<svg width="28" height="24" viewBox="0 0 28 24" fill="none" xmlns="http://www.w3.org/2000/svg">
<g clip-path="url(#clip0_470_741)">
<path d="M21.7232 14.3019C21.4482 13.9899 20.5852 12.9439 20.5852 11.6219C20.5852 10.2999 20.5852 5.17888 20.5852 4.49988C20.5852 3.82088 20.2552 1.48888 17.1712 0.405883C14.0872 -0.677117 10.4892 0.680883 9.68117 1.30488C8.87417 1.92888 8.12117 2.75588 7.80917 3.59988C7.49717 4.44388 7.27717 5.23388 7.88217 5.32588C8.48817 5.41788 10.7462 5.65588 11.0212 5.65588C11.2962 5.65588 11.5172 5.42688 11.5402 5.24288C11.5402 5.24288 11.8152 3.28788 13.9492 3.27388C16.0832 3.25988 16.1932 4.88888 16.2072 5.28888C16.2212 5.68788 16.2072 6.67488 16.2072 6.67488C16.2072 6.67488 12.3062 7.01488 11.0032 7.49188C9.70017 7.96888 8.17617 8.68488 7.33217 10.7409C6.48817 12.7969 7.29517 14.8349 7.55217 15.3489C7.80917 15.8629 8.87417 17.4419 11.3702 17.5329C13.8672 17.6249 15.2072 16.6519 15.4822 16.4679C15.7572 16.2839 16.8402 15.3119 16.8402 15.3119C16.8402 15.3119 18.1072 17.1109 18.6022 17.3309C19.0982 17.5509 19.3912 17.2019 19.5932 17.0369C19.7952 16.8719 21.7592 15.2749 21.8882 15.1279C22.0172 14.9809 21.9992 14.6139 21.7232 14.3019ZM15.7212 12.8699C15.1522 13.8979 14.3632 14.4669 13.2612 14.4299C12.1592 14.3929 11.2782 13.1999 11.5542 11.7679C11.8292 10.3359 12.5822 9.96888 13.3712 9.54688C14.1602 9.12488 16.1982 9.16188 16.1982 9.16188C16.1982 9.16188 16.2162 11.0159 16.2162 11.2179C16.2162 11.4199 16.2902 11.8419 15.7212 12.8699ZM0.00716854 17.5599C0.0831685 17.3929 0.264169 17.4039 0.824169 17.7339C1.38417 18.0639 6.87317 21.1299 13.9492 21.1299C20.4932 21.1299 24.9362 19.0189 24.9362 19.0189C24.9362 19.0189 25.1562 18.8309 25.4182 19.1059C25.6802 19.3809 25.4592 19.5879 25.1432 19.8079C25.1432 19.8079 20.7242 23.1399 13.4542 23.1119C6.18417 23.0859 -0.244831 18.1159 0.00716854 17.5599Z" fill="white"/>
<path d="M22.747 17.95C22.802 17.817 23.716 17.203 24.991 17.041C26.478 16.853 27.442 17.013 27.827 17.22C28.212 17.427 27.855 19.161 27.703 19.561C27.552 19.96 26.808 21.433 26.133 21.888C25.458 22.342 26.023 21.117 26.119 20.897C26.215 20.677 26.918 18.653 26.656 18.322C26.394 17.992 25.637 18.005 24.976 18.019C24.315 18.033 23.324 18.129 23.131 18.157C22.94 18.185 22.666 18.147 22.747 17.95Z" fill="white"/>
</g>
<defs>
<clipPath id="clip0_470_741">
<rect width="28" height="23.114" fill="white"/>
</clipPath>
</defs>
</svg>
