<svg width="24" height="24" viewBox="0 0 24 24" fill="none" xmlns="http://www.w3.org/2000/svg">
<path d="M17.4579 12.625C17.4669 11.8596 17.6699 11.1091 18.0481 10.4436C18.4262 9.77813 18.967 9.21949 19.6199 8.82C19.2049 8.22913 18.6587 7.74247 18.024 7.39824C17.3893 7.054 16.6835 6.86155 15.9619 6.836C14.4039 6.678 12.9219 7.753 12.1329 7.753C11.3429 7.753 10.1239 6.859 8.83289 6.883C7.98464 6.90643 7.15705 7.14992 6.43127 7.5896C5.70549 8.02927 5.10645 8.65003 4.69289 9.391C2.93089 12.451 4.24389 16.984 5.96089 19.467C6.80089 20.681 7.80389 22.048 9.11889 21.999C10.3869 21.949 10.8649 21.179 12.3959 21.179C13.9269 21.179 14.3579 21.999 15.6959 21.974C17.0599 21.949 17.9249 20.735 18.7579 19.517C19.3549 18.6408 19.8214 17.6824 20.1429 16.672C19.3491 16.3332 18.6719 15.7695 18.1947 15.0503C17.7176 14.3312 17.4615 13.488 17.4579 12.625ZM14.9409 5.193C15.6956 4.30774 16.0694 3.1599 15.9809 2C14.8417 2.11085 13.788 2.65324 13.0359 3.516C12.6605 3.93398 12.3732 4.42323 12.1909 4.95461C12.0086 5.486 11.9351 6.04863 11.9749 6.609C12.5448 6.61668 13.1089 6.49293 13.6232 6.24736C14.1376 6.00179 14.5885 5.64101 14.9409 5.193Z" fill="white"/>
</svg>
