<svg width="21" height="24" viewBox="0 0 21 24" fill="none" xmlns="http://www.w3.org/2000/svg">
<path d="M0 24V21.1154L2.55495 20.6209V3.3956L0 2.9011V0H2.55495H10.6648C13.489 0 15.6923 0.549451 17.2747 1.64835C18.8571 2.74725 19.6484 4.39011 19.6484 6.57692C19.6484 7.68681 19.3516 8.68132 18.7582 9.56044C18.1758 10.4286 17.3242 11.0824 16.2033 11.522C17.1593 11.7308 17.956 12.0989 18.5934 12.6264C19.2418 13.1538 19.7253 13.7967 20.044 14.5549C20.3626 15.3022 20.522 16.1209 20.522 17.011C20.522 19.3077 19.7637 21.0495 18.2473 22.2363C16.7308 23.4121 14.5824 24 11.8022 24H0ZM7.36813 20.3077H11.8022C13.0769 20.3077 14.0495 20.033 14.7198 19.4835C15.3901 18.9231 15.7253 18.0989 15.7253 17.011C15.7253 16.2198 15.5989 15.5549 15.3462 15.0165C15.0934 14.478 14.7033 14.0714 14.1758 13.7967C13.6593 13.522 12.989 13.3846 12.1648 13.3846H7.36813V20.3077ZM7.36813 10.0549H10.8297C12.1154 10.0549 13.1044 9.79121 13.7967 9.26374C14.489 8.73626 14.8352 7.96703 14.8352 6.95604C14.8352 5.84615 14.4835 5.02747 13.7802 4.5C13.0879 3.97253 12.0495 3.70879 10.6648 3.70879H7.36813V10.0549Z" fill="white"/>
</svg>
