<svg width="256" height="256" viewBox="0 0 256 256" fill="none" xmlns="http://www.w3.org/2000/svg">
<g clip-path="url(#clip0_483_1503)">
<path d="M118.784 129.244L112.429 155.007C120.274 156.977 144.469 164.834 148.045 150.301C151.783 135.144 126.628 131.224 118.784 129.244ZM127.452 94.0847L121.691 117.451C128.224 119.098 148.361 125.814 151.624 112.595C155.023 98.8049 133.985 95.7313 127.452 94.0847ZM128 21.3335C106.904 21.3335 86.2806 27.5894 68.7394 39.3101C51.1981 51.0308 37.5264 67.6898 29.4531 87.1806C21.3797 106.671 19.2674 128.118 23.3831 148.81C27.4989 169.501 37.6579 188.507 52.5755 203.425C67.4931 218.342 86.4993 228.502 107.191 232.617C127.882 236.733 149.329 234.621 168.82 226.547C188.311 218.474 204.97 204.802 216.69 187.261C228.411 169.72 234.667 149.097 234.667 128C234.667 113.992 231.908 100.122 226.547 87.1806C221.187 74.2392 213.33 62.4804 203.425 52.5754C193.52 42.6705 181.761 34.8135 168.82 29.453C155.878 24.0925 142.008 21.3335 128 21.3335ZM174.486 112.804C174.261 116.897 172.691 120.8 170.019 123.908C167.347 127.016 163.722 129.153 159.71 129.988C162.347 131.062 164.733 132.67 166.718 134.712C168.703 136.754 170.243 139.184 171.242 141.851C172.241 144.517 172.677 147.362 172.522 150.205C172.367 153.048 171.625 155.829 170.342 158.371C164.097 176.421 149.258 177.944 129.526 174.167L124.737 193.577L113.165 190.661L117.892 171.511C114.892 170.758 111.827 169.958 108.67 169.091L103.927 188.33L92.368 185.414L97.1573 165.967C94.4542 165.267 91.7088 164.524 88.9073 163.814L73.8487 160.017L79.5935 146.621C79.5935 146.621 88.1196 148.914 88.0044 148.744C88.535 148.914 89.094 148.976 89.6489 148.928C90.2038 148.879 90.7436 148.721 91.2369 148.462C91.7303 148.204 92.1674 147.85 92.5228 147.421C92.8783 146.992 93.1451 146.497 93.3077 145.964L106.294 93.2945C106.46 91.6808 105.99 90.0658 104.982 88.7942C103.975 87.5226 102.511 86.6949 100.902 86.4878C101.083 86.3648 92.4962 84.3746 92.4962 84.3746L95.5749 71.8745L111.533 75.9045L111.52 75.965C113.919 76.5678 116.391 77.1414 118.91 77.7215L123.652 58.5015L135.217 61.4181L130.571 80.2613C133.676 80.978 136.8 81.7013 139.842 82.4682L144.456 63.7482L156.028 66.6649L151.289 85.8915C165.899 90.9813 176.584 98.6115 174.486 112.804Z" fill="white"/>
</g>
<defs>
<clipPath id="clip0_483_1503">
<rect width="256" height="256" fill="white"/>
</clipPath>
</defs>
</svg>
