<svg width="256" height="256" viewBox="0 0 256 256" fill="none" xmlns="http://www.w3.org/2000/svg">
<g clip-path="url(#clip0_486_1495)">
<path fill-rule="evenodd" clip-rule="evenodd" d="M138.162 9.50811L225.663 59.3381C232.777 63.4211 235.825 70.5351 235.825 77.6481V178.343C235.825 186.508 230.744 193.622 224.647 196.671L138.162 246.5C132.064 250.566 123.935 250.566 117.82 246.5L30.3538 195.655C24.2563 192.605 20.1738 185.492 20.1738 178.343V77.6481C20.1738 69.5181 25.2723 62.4051 32.3858 59.3381L117.82 9.50811C124.951 5.44261 132.064 5.44261 138.162 9.50811Z" fill="white"/>
<path opacity="0.7" fill-rule="evenodd" clip-rule="evenodd" d="M138.162 9.50817L176.814 31.8827V42.0622C176.814 108.17 123.935 161.067 57.8093 161.067C44.5988 161.067 32.3858 159.035 20.1738 154.97V77.6477C20.1738 69.5177 25.2723 62.4047 32.3858 59.3377L117.82 9.50767C124.951 5.44267 132.064 5.44267 138.162 9.50817Z" fill="#D1D2D4"/>
<path fill-rule="evenodd" clip-rule="evenodd" d="M79.5892 117.261L127.899 97.4961L174.754 117.732L127.852 45.9951L79.5892 117.261ZM79.7767 139.138L127.993 166.275L177.194 139.138L128.415 205.005L79.7767 139.138ZM128.134 107.168L177.054 128.296L128.134 154.821L77.8052 127.685L128.134 107.168Z" fill="white"/>
<path fill-rule="evenodd" clip-rule="evenodd" d="M80.0892 114.761L128.399 94.9961L175.254 115.232L128.352 43.4951L80.0892 114.761ZM80.2767 136.638L128.493 163.775L177.694 136.638L128.915 202.505L80.2767 136.638ZM128.634 104.668L177.554 125.796L128.634 152.321L78.3052 125.185L128.634 104.668Z" fill="black"/>
<path fill-rule="evenodd" clip-rule="evenodd" d="M80.0892 115.261L128.399 95.4961L175.254 115.732L128.352 43.9951L80.0892 115.261ZM80.2767 137.138L128.493 164.275L177.694 137.138L128.915 203.005L80.2767 137.138ZM128.634 105.168L177.554 126.296L128.634 152.821L78.3052 125.685L128.634 105.168Z" fill="black"/>
</g>
<defs>
<clipPath id="clip0_486_1495">
<rect width="256" height="256" fill="white"/>
</clipPath>
</defs>
</svg>
