<svg width="24" height="24" viewBox="0 0 24 24" fill="none" xmlns="http://www.w3.org/2000/svg">
<g clip-path="url(#clip0_480_1497)">
<path d="M18.6609 10.9312C18.6609 10.875 18.6703 10.8188 18.6703 10.7625C18.6703 7.71563 16.2422 5.25 13.2469 5.25C11.0859 5.25 9.22969 6.53438 8.35781 8.39062C7.97813 8.19844 7.55156 8.08594 7.10156 8.08594C5.71875 8.08594 4.56563 9.1125 4.34531 10.4531C2.68594 11.025 1.5 12.6141 1.5 14.4844C1.5 16.8375 3.37969 18.7453 5.69531 18.75H18.6656C20.7844 18.7406 22.4953 16.9922 22.4953 14.8406C22.5 12.6844 20.7797 10.9359 18.6609 10.9312Z" fill="white"/>
</g>
<defs>
<clipPath id="clip0_480_1497">
<rect width="24" height="24" fill="white"/>
</clipPath>
</defs>
</svg>
