<svg width="24" height="24" viewBox="0 0 24 24" fill="none" xmlns="http://www.w3.org/2000/svg">
<path d="M17.44 6H6.56C6.11468 5.99979 5.68202 6.14821 5.3306 6.42173C4.97918 6.69526 4.7291 7.07825 4.62 7.51L2 18H22L19.38 7.51C19.2709 7.07825 19.0208 6.69526 18.6694 6.42173C18.318 6.14821 17.8853 5.99979 17.44 6Z" fill="#FFE3DC"/>
<path d="M22 19H1.99997C1.84807 19.0008 1.69799 18.967 1.56111 18.9012C1.42422 18.8353 1.30414 18.7392 1.20997 18.62C1.1113 18.5024 1.04103 18.3636 1.00462 18.2145C0.9682 18.0654 0.966609 17.9099 0.999967 17.76L3.64997 7.27C3.81267 6.62145 4.18738 6.04584 4.7146 5.63457C5.24181 5.22331 5.89131 4.99996 6.55997 5H17.44C18.1086 4.99996 18.7581 5.22331 19.2853 5.63457C19.8125 6.04584 20.1873 6.62145 20.35 7.27L23 17.76C23.0374 17.9076 23.0407 18.0618 23.0095 18.2108C22.9783 18.3599 22.9135 18.4998 22.82 18.62C22.7227 18.7433 22.5978 18.8419 22.4553 18.9079C22.3129 18.9739 22.1569 19.0055 22 19ZM3.27997 17H20.72L18.41 7.76C18.3552 7.53812 18.2261 7.34169 18.0442 7.20341C17.8622 7.06513 17.6384 6.99334 17.41 7H6.55997C6.33153 6.99334 6.10771 7.06513 5.92576 7.20341C5.74381 7.34169 5.61472 7.53812 5.55997 7.76L3.27997 17ZM16.88 10C16.88 9.73478 16.7746 9.48043 16.5871 9.29289C16.3995 9.10536 16.1452 9 15.88 9H13C12.7348 9 12.4804 9.10536 12.2929 9.29289C12.1053 9.48043 12 9.73478 12 10C12 10.2652 12.1053 10.5196 12.2929 10.7071C12.4804 10.8946 12.7348 11 13 11H15.88C16.1452 11 16.3995 10.8946 16.5871 10.7071C16.7746 10.5196 16.88 10.2652 16.88 10Z" fill="white"/>
</svg>
