<svg width="91" height="24" viewBox="0 0 91 24" fill="none" xmlns="http://www.w3.org/2000/svg">
<path d="M21.8 6.1L12.3 0.6C12.2 0.5 12 0.5 11.8 0.6L2.2 6.1C2.1 6.2 2 6.3 2 6.5V16.9C2 17.8 2.7 18.5 3.6 18.5C4.5 18.5 5.2 17.8 5.2 16.9V8L12 4L18.9 8V16.9C18.9 17.8 19.6 18.5 20.5 18.5C21.4 18.5 22.1 17.8 22.1 16.9V6.5C22 6.3 21.9 6.2 21.8 6.1Z" fill="#200E32"/>
<path d="M16.9 9.3L14.8 8C14.7 7.9 14.5 7.9 14.3 8C14.1 8.1 14 8.3 14 8.4V18.8L12 20L10 18.8V8.4C10 8.3 9.9 8.1 9.7 8C9.6 7.9 9.4 7.9 9.2 8L7.1 9.3C6.9 9.3 6.8 9.5 6.8 9.7V20.3C6.8 20.5 6.9 20.6 7 20.7L11.7 23.4C11.8 23.4 11.9 23.5 11.9 23.5C11.9 23.5 12.1 23.5 12.1 23.4L16.8 20.7C16.9 20.6 17 20.5 17 20.3V9.7C17.2 9.5 17.1 9.3 16.9 9.3Z" fill="#200E32"/>
<path d="M84.0511 15.5682L84.0739 11.8409H84.483L86.5966 8.90909H90.1193L86.5739 13.4773H85.6875L84.0511 15.5682ZM81.233 17.6364V6H84.3693V17.6364H81.233ZM86.6193 17.6364L84.6193 14.1818L86.6648 11.9545L90.2102 17.6364H86.6193Z" fill="#200E32"/>
<path d="M74.0256 12.7273V17.6364H70.8892V8.90909H73.8665V10.5682H73.9574C74.1468 10.0152 74.4801 9.58144 74.9574 9.26705C75.4384 8.95265 75.9991 8.79545 76.6392 8.79545C77.2566 8.79545 77.7926 8.9375 78.2472 9.22159C78.7055 9.50189 79.0597 9.88826 79.3097 10.3807C79.5634 10.8731 79.6884 11.4356 79.6847 12.0682V17.6364H76.5483V12.7273C76.5521 12.2955 76.4422 11.9564 76.2188 11.7102C75.9991 11.464 75.6922 11.3409 75.2983 11.3409C75.0407 11.3409 74.8153 11.3977 74.6222 11.5114C74.4328 11.6212 74.2869 11.7803 74.1847 11.9886C74.0824 12.1932 74.0294 12.4394 74.0256 12.7273Z" fill="#200E32"/>
<path d="M63.8679 17.7727C63.3111 17.7727 62.8187 17.6818 62.3906 17.5C61.9664 17.3144 61.633 17.0341 61.3906 16.6591C61.1482 16.2841 61.027 15.8068 61.027 15.2273C61.027 14.75 61.1084 14.3428 61.2713 14.0057C61.4342 13.6648 61.6615 13.3864 61.9531 13.1705C62.2448 12.9545 62.5838 12.7898 62.9702 12.6761C63.3603 12.5625 63.7808 12.4886 64.2315 12.4545C64.7202 12.4167 65.1122 12.3712 65.4077 12.3182C65.7069 12.2614 65.9228 12.1837 66.0554 12.0852C66.188 11.983 66.2543 11.8485 66.2543 11.6818V11.6591C66.2543 11.4318 66.1671 11.2576 65.9929 11.1364C65.8187 11.0152 65.5952 10.9545 65.3224 10.9545C65.0232 10.9545 64.7789 11.0208 64.5895 11.1534C64.4039 11.2822 64.2921 11.4811 64.2543 11.75H61.3679C61.4058 11.2197 61.5743 10.7311 61.8736 10.2841C62.1766 9.83333 62.6179 9.47349 63.1974 9.20455C63.777 8.93182 64.5005 8.79545 65.3679 8.79545C65.9929 8.79545 66.5535 8.86932 67.0497 9.01705C67.5459 9.16099 67.9683 9.36364 68.3168 9.625C68.6652 9.88258 68.9304 10.1856 69.1122 10.5341C69.2978 10.8788 69.3906 11.2538 69.3906 11.6591V17.6364H66.4588V16.4091H66.3906C66.2164 16.7348 66.0043 16.9981 65.7543 17.1989C65.508 17.3996 65.2259 17.5455 64.9077 17.6364C64.5933 17.7273 64.2467 17.7727 63.8679 17.7727ZM64.8906 15.7955C65.1293 15.7955 65.3527 15.7462 65.5611 15.6477C65.7732 15.5492 65.9455 15.4072 66.0781 15.2216C66.2107 15.036 66.277 14.8106 66.277 14.5455V13.8182C66.1937 13.8523 66.1046 13.8845 66.0099 13.9148C65.919 13.9451 65.8205 13.9735 65.7145 14C65.6122 14.0265 65.5024 14.0511 65.3849 14.0739C65.2713 14.0966 65.152 14.1174 65.027 14.1364C64.7846 14.1742 64.5857 14.2367 64.4304 14.3239C64.2789 14.4072 64.1652 14.5114 64.0895 14.6364C64.0175 14.7576 63.9815 14.8939 63.9815 15.0455C63.9815 15.2879 64.0668 15.4735 64.2372 15.6023C64.4077 15.7311 64.6255 15.7955 64.8906 15.7955Z" fill="#200E32"/>
<path d="M50.7031 17.6364V6H55.7486C56.6349 6 57.3793 6.11932 57.9815 6.35795C58.5876 6.59659 59.044 6.93371 59.3509 7.36932C59.6615 7.80492 59.8168 8.31818 59.8168 8.90909C59.8168 9.33712 59.7221 9.72727 59.5327 10.0795C59.3471 10.4318 59.0857 10.7273 58.7486 10.9659C58.4115 11.2008 58.0175 11.3636 57.5668 11.4545V11.5682C58.0668 11.5871 58.5213 11.714 58.9304 11.9489C59.3395 12.1799 59.6652 12.5 59.9077 12.9091C60.1501 13.3144 60.2713 13.7917 60.2713 14.3409C60.2713 14.9773 60.1046 15.5436 59.7713 16.0398C59.4418 16.536 58.9721 16.9261 58.3622 17.2102C57.7524 17.4943 57.0251 17.6364 56.1804 17.6364H50.7031ZM53.8622 15.1136H55.3395C55.8698 15.1136 56.2675 15.0152 56.5327 14.8182C56.7978 14.6174 56.9304 14.322 56.9304 13.9318C56.9304 13.6591 56.8679 13.428 56.7429 13.2386C56.6179 13.0492 56.4399 12.9053 56.2088 12.8068C55.9815 12.7083 55.7069 12.6591 55.3849 12.6591H53.8622V15.1136ZM53.8622 10.7045H55.1577C55.4342 10.7045 55.6785 10.661 55.8906 10.5739C56.1027 10.4867 56.2675 10.3617 56.3849 10.1989C56.5062 10.0322 56.5668 9.82955 56.5668 9.59091C56.5668 9.23106 56.438 8.95644 56.1804 8.76705C55.9228 8.57386 55.5971 8.47727 55.2031 8.47727H53.8622V10.7045Z" fill="#200E32"/>
<path d="M46.017 13.8182V8.90909H49.1534V17.6364H46.1761V15.9773H46.0852C45.8958 16.5341 45.5644 16.9697 45.0909 17.2841C44.6174 17.5947 44.0549 17.75 43.4034 17.75C42.7936 17.75 42.2595 17.6098 41.8011 17.3295C41.3466 17.0492 40.9924 16.6629 40.7386 16.1705C40.4886 15.678 40.3617 15.1136 40.358 14.4773V8.90909H43.4943V13.8182C43.4981 14.25 43.608 14.589 43.8239 14.8352C44.0436 15.0814 44.3504 15.2045 44.7443 15.2045C45.0057 15.2045 45.2311 15.1496 45.4205 15.0398C45.6136 14.9261 45.7614 14.767 45.8636 14.5625C45.9697 14.3542 46.0208 14.1061 46.017 13.8182Z" fill="#200E32"/>
<path d="M38.8182 6V17.6364H36.1818L31.9773 11.5227H31.9091V17.6364H28.75V6H31.4318L35.5682 12.0909H35.6591V6H38.8182Z" fill="#200E32"/>
</svg>
