<svg width="256" height="256" viewBox="0 0 256 256" fill="none" xmlns="http://www.w3.org/2000/svg">
<g clip-path="url(#clip0_483_1512)">
<path fill-rule="evenodd" clip-rule="evenodd" d="M138.162 9.50811L225.663 59.3381C232.777 63.4211 235.825 70.5351 235.825 77.6481V178.343C235.825 186.508 230.744 193.622 224.647 196.671L138.162 246.5C132.064 250.566 123.935 250.566 117.82 246.5L30.3538 195.655C24.2563 192.605 20.1738 185.492 20.1738 178.343V77.6481C20.1738 69.5181 25.2723 62.4051 32.3858 59.3381L117.82 9.50811C124.951 5.44261 132.064 5.44261 138.162 9.50811Z" fill="white"/>
<path opacity="0.7" fill-rule="evenodd" clip-rule="evenodd" d="M138.162 9.50817L176.814 31.8827V42.0622C176.814 108.17 123.935 161.067 57.8093 161.067C44.5988 161.067 32.3858 159.035 20.1738 154.97V77.6477C20.1738 69.5177 25.2723 62.4047 32.3858 59.3377L117.82 9.50767C124.951 5.44267 132.064 5.44267 138.162 9.50817Z" fill="white"/>
<path fill-rule="evenodd" clip-rule="evenodd" d="M90.5747 146.768L81.1387 150.476L85.6917 132.168L95.2232 128.318L109.026 72.4966H143.015L132.921 113.529L142.265 109.773L137.758 127.988L128.322 131.744L122.686 154.844H173.861L168.085 178.504H82.7822L90.5747 146.768Z" fill="white"/>
<path fill-rule="evenodd" clip-rule="evenodd" d="M91.0747 144.268L81.6387 147.976L86.1917 129.668L95.7232 125.818L109.526 69.9966H143.515L133.421 111.029L142.765 107.273L138.258 125.488L128.822 129.244L123.186 152.344H174.361L168.585 176.004H83.2822L91.0747 144.268Z" fill="black"/>
<path fill-rule="evenodd" clip-rule="evenodd" d="M91.0747 144.768L81.6387 148.476L86.1917 130.168L95.7232 126.318L109.526 70.4966H143.515L133.421 111.529L142.765 107.773L138.258 125.988L128.822 129.744L123.186 152.844H174.361L168.585 176.504H83.2822L91.0747 144.768Z" fill="black"/>
</g>
<defs>
<clipPath id="clip0_483_1512">
<rect width="256" height="256" fill="white"/>
</clipPath>
</defs>
</svg>
