<svg width="24" height="24" viewBox="0 0 24 24" fill="none" xmlns="http://www.w3.org/2000/svg">
<g clip-path="url(#clip0_482_1501)">
<path fill-rule="evenodd" clip-rule="evenodd" d="M5.53846 0C2.47015 0 0 2.47015 0 5.53846V18.4615C0 21.5298 2.47015 24 5.53846 24H18.4615C21.5298 24 24 21.5298 24 18.4615V5.53846C24 2.47015 21.5298 0 18.4615 0H5.53846ZM6.46154 7.39015L8.30769 7.40954V8.30769H6.46154V7.39015ZM17.5385 7.39015V8.30769H15.6923V7.40954L17.5385 7.39015ZM6.46154 9.23077H8.30769V12.9323C8.30965 13.9099 8.69964 14.8468 9.39198 15.5371C10.0843 16.2273 11.0224 16.6145 12 16.6135C14.0372 16.6135 15.6923 14.9649 15.6923 12.9323V9.23077H17.5385V12.9231C17.5385 15.9997 15.0766 18.4615 12 18.4615C8.92338 18.4615 6.46154 15.9997 6.46154 12.9231V9.23077Z" fill="white"/>
</g>
<defs>
<clipPath id="clip0_482_1501">
<rect width="24" height="24" fill="white"/>
</clipPath>
</defs>
</svg>
