<svg width="24" height="24" viewBox="0 0 24 24" fill="none" xmlns="http://www.w3.org/2000/svg">
<g clip-path="url(#clip0_476_1485)">
<path d="M10.17 13.46L10.16 18.52C10.16 23.33 10.15 23.6 10.1 23.6C9.92 23.6 8.4 23.7 7.89 23.75C7.56 23.78 6.89 23.85 6.41 23.91C5.92 23.97 5.52 24.01 5.51 24C5.51 23.99 5.5 18.59 5.5 11.99V0L10.17 13.46ZM18.49 0.01H13.86L13.85 5.32V10.649L18.48 23.99C18.5 23.98 18.5 18.57 18.5 11.98L18.49 0.01Z" fill="white"/>
<path d="M18.48 23.99H18.44C18.36 23.99 18.2 23.98 18.01 23.96C16.94 23.83 15.53 23.7 14.39 23.65C14.02 23.63 13.71 23.61 13.7 23.61C13.7 23.61 13.41 22.77 12.86 21.2C12.33 19.67 11.55 17.43 10.54 14.52L10.17 13.46L5.5 0H10.15L10.35 0.57L11.23 3.1L18.48 23.99Z" fill="white"/>
</g>
<defs>
<clipPath id="clip0_476_1485">
<rect width="24" height="24" fill="white"/>
</clipPath>
</defs>
</svg>
