<svg width="24" height="24" viewBox="0 0 24 24" fill="none" xmlns="http://www.w3.org/2000/svg">
<g clip-path="url(#clip0_476_1479)">
<path d="M9.0375 8.8635C11.0385 8.8635 12.8625 10.4115 12.939 10.4775C13.0875 10.6077 13.1787 10.7912 13.1927 10.9882C13.2067 11.1852 13.1424 11.3798 13.0138 11.5297C12.8853 11.6796 12.7027 11.7728 12.5059 11.7889C12.3091 11.8051 12.1138 11.7429 11.9625 11.616C11.9475 11.604 10.4775 10.365 9.0375 10.365C9.0255 10.3635 9.012 10.368 9 10.368V13.476C9.309 13.569 9.639 13.635 10.0125 13.635C12.1545 13.635 14.6865 11.9085 16.206 10.5795C14.511 9.1845 11.631 7.5 9.525 7.5C9.354 7.5 9.177 7.521 9 7.542V8.8665L9.0375 8.8635Z" fill="white"/>
<path d="M23.25 3H9.75004C9.55112 3 9.36036 3.07902 9.21971 3.21967C9.07905 3.36032 9.00004 3.55109 9.00004 3.75V6.0375C9.17554 6.021 9.35103 6 9.52503 6C12.507 6 16.209 8.469 17.841 10.026C17.9895 10.1655 18.072 10.3605 18.0735 10.563C18.075 10.7655 17.9925 10.962 17.8485 11.1045C17.427 11.517 13.6275 15.1365 10.011 15.1365C9.64953 15.1365 9.31654 15.093 8.99854 15.03V16.4175C9.18304 16.4595 9.36603 16.5 9.52503 16.5C11.616 16.5 17.784 14.7945 19.725 12.8955C19.8679 12.7595 20.0585 12.6853 20.2556 12.6888C20.4528 12.6923 20.6407 12.7734 20.7785 12.9144C20.9164 13.0554 20.9931 13.245 20.9922 13.4422C20.9913 13.6394 20.9127 13.8283 20.7735 13.968C18.4365 16.257 11.904 18 9.52503 18C9.35853 18 9.17554 17.949 9.00004 17.922V20.25C9.00004 20.4489 9.07905 20.6397 9.21971 20.7803C9.36036 20.921 9.55112 21 9.75004 21H23.25C23.4489 21 23.6397 20.921 23.7804 20.7803C23.921 20.6397 24 20.4489 24 20.25V3.75C24 3.55109 23.921 3.36032 23.7804 3.21967C23.6397 3.07902 23.4489 3 23.25 3Z" fill="white"/>
<path d="M6.55076 11.2905C7.09076 10.926 8.05376 10.383 9.00026 10.368V8.86646C7.01276 8.88596 5.21276 10.4115 5.13626 10.476C5.02275 10.5735 4.94107 10.7027 4.90177 10.8471C4.86247 10.9915 4.86734 11.1444 4.91576 11.286C4.96376 11.43 6.03626 14.4465 9.00026 15.03V13.4775C7.65626 13.0755 6.88976 11.952 6.55076 11.2905Z" fill="white"/>
<path d="M1.91258 10.8136C2.45258 10.5241 3.00458 10.2106 3.55808 9.8941C5.42258 8.8306 7.34258 7.7446 9.00008 7.5421V6.0376C6.98858 6.2236 4.87058 7.4191 2.81558 8.5921C2.00108 9.0556 1.19708 9.5146 0.420084 9.8941C0.320096 9.94347 0.232324 10.0144 0.163106 10.1019C0.0938886 10.1893 0.0449539 10.291 0.0198371 10.3997C-0.00527972 10.5083 -0.00595163 10.6212 0.0178699 10.7301C0.0416915 10.8391 0.0894117 10.9413 0.157584 11.0296C2.70608 14.2861 6.32858 17.5306 9.00008 17.9221V16.4176C7.22708 16.0231 4.39208 13.7926 1.91258 10.8136Z" fill="white"/>
</g>
<defs>
<clipPath id="clip0_476_1479">
<rect width="24" height="24" fill="white"/>
</clipPath>
</defs>
</svg>
