<svg width="24" height="24" viewBox="0 0 24 24" fill="none" xmlns="http://www.w3.org/2000/svg">
<g clip-path="url(#clip0_478_1490)">
<path d="M16.3159 4.47663C15.1578 3.1393 13.8545 1.9349 12.4301 0.885612C12.3041 0.797346 12.1539 0.75 12 0.75C11.8461 0.75 11.6959 0.797346 11.5699 0.885612C10.1455 1.9349 8.84224 3.1393 7.68407 4.47663C5.11038 7.43635 3.75 10.5566 3.75 13.5C3.75 15.6881 4.61919 17.7865 6.16637 19.3337C7.71354 20.8808 9.81196 21.75 12 21.75C14.188 21.75 16.2865 20.8808 17.8336 19.3337C19.3808 17.7865 20.25 15.6881 20.25 13.5C20.25 10.5566 18.8896 7.43635 16.3159 4.47663ZM17.1762 14.3809C16.994 15.4521 16.4831 16.44 15.7143 17.2078C14.9456 17.9756 13.957 18.4853 12.8856 18.6661C12.6895 18.6991 12.4882 18.6528 12.3262 18.5375C12.1642 18.4221 12.0546 18.2471 12.0216 18.0509C11.9886 17.8548 12.0349 17.6535 12.1503 17.4915C12.2656 17.3295 12.4406 17.2199 12.6368 17.1869C13.401 17.0579 14.1062 16.6944 14.6545 16.1467C15.2029 15.599 15.5673 14.8943 15.6972 14.1303C15.7305 13.9342 15.8402 13.7593 16.0024 13.6441C16.1646 13.5289 16.3659 13.4829 16.562 13.5161C16.7581 13.5494 16.933 13.6592 17.0482 13.8213C17.1634 13.9835 17.2094 14.1848 17.1762 14.3809Z" fill="white"/>
</g>
<defs>
<clipPath id="clip0_478_1490">
<rect width="24" height="24" fill="white"/>
</clipPath>
</defs>
</svg>
