<svg width="256" height="256" viewBox="0 0 256 256" fill="none" xmlns="http://www.w3.org/2000/svg">
<path d="M128 253.44C197.279 253.44 253.44 197.279 253.44 128C253.44 58.7215 197.279 2.56006 128 2.56006C58.7215 2.56006 2.56006 58.7215 2.56006 128C2.56006 197.279 58.7215 253.44 128 253.44Z" fill="white"/>
<path d="M153.518 144.233C176.596 144.847 186.806 175.147 169.631 190.571C153.411 205.683 127.291 192.809 127.652 170.685C127.414 164.339 130.276 158.766 133.32 153.559C135.114 148.436 133.087 131.958 120.494 132.047C113.144 132.441 106.465 136.31 104.015 142.226C100.37 148.554 94.4486 153.078 87.4803 154.596C65.2416 159.621 48.96 133.32 60.9075 114.506C70.8378 97.5768 95.8515 98.7903 104.53 116.188C116.198 132.654 139.136 122.946 132.037 100.669C129.388 96.1049 127.57 91.0412 127.649 85.6549C127.319 62.4895 154.86 49.8277 170.975 66.4959C187.241 82.9874 175.772 112.525 152.709 112.097C130.045 112.891 132.826 143.795 153.518 144.233Z" fill="black"/>
</svg>
