<svg width="256" height="256" viewBox="0 0 256 256" fill="none" xmlns="http://www.w3.org/2000/svg">
<g clip-path="url(#clip0_485_1470)">
<g clip-path="url(#clip1_485_1470)">
<path fill-rule="evenodd" clip-rule="evenodd" d="M128 256C57.6 256 0 198.401 0 127.363C0.64 56.9641 57.6 -0.634705 128.64 0.00528219C199.04 0.645269 256 57.6041 256 129.283C255.36 199.041 198.4 256 128 256Z" fill="#E42D04"/>
<path fill-rule="evenodd" clip-rule="evenodd" d="M130.493 221.866C139.784 221.866 163.616 217.679 184.621 200.925C208.774 181.66 211.049 170.917 212.517 163.989C212.645 163.386 212.766 162.812 212.896 162.264C213.141 161.226 213.284 159.816 213.333 158.141C208.26 157.319 201.149 156.849 192.85 157.834C179.278 159.445 168.614 168.707 164.979 173.137C162.959 163.069 153.103 142.933 129.837 142.933C106.57 142.933 94.021 163.069 90.655 173.137C88.5005 169.378 80.4758 161.056 65.6109 157.834C56.4199 155.842 48.4026 156.826 42.6665 158.502C43.1194 165.989 45.5802 173.974 52.1298 182.4C63.3995 196.898 80.8858 205.85 88.6874 209.844C89.5544 210.288 90.3017 210.671 90.9076 210.993C96.9665 214.214 113.528 221.866 130.493 221.866Z" fill="white"/>
<path fill-rule="evenodd" clip-rule="evenodd" d="M213.314 157.846C208.243 157.027 201.137 156.558 192.843 157.54C179.279 159.147 168.621 168.383 164.988 172.8C162.969 162.761 153.119 142.682 129.866 142.682C106.613 142.682 94.0711 162.761 90.7068 172.8C88.5537 169.052 80.5336 160.753 65.6775 157.54C56.4918 155.554 48.4792 156.536 42.7463 158.208C42.3337 151.4 43.5896 145.006 44.9374 139.068C47.1981 129.109 52.8769 115.911 55.4337 110.557C53.1461 105.069 47.8441 89.5146 44.9374 71.2031C42.0308 52.8915 46.956 40.5499 49.7818 36.6681C54.3572 37.8728 65.2839 41.6477 72.3892 47.1091C79.4942 52.5704 90.421 64.644 94.9963 69.9984C100.917 68.392 116.15 65.1795 129.715 65.1795C143.279 65.1795 156.359 68.392 161.203 69.9984C165.24 65.1795 175.171 53.8553 182.6 47.1091C190.028 40.3626 202.111 37.0698 207.225 36.2666C208.57 38.0068 211.424 43.0933 212.07 49.5184C212.877 57.5498 210.455 74.4157 207.225 85.6595C204.642 94.6547 201.304 105.202 199.959 109.352C200.631 110.824 202.946 115.617 206.822 123.005C210.931 130.841 213.587 148.501 213.314 157.846Z" fill="#FFAA35"/>
<path d="M147.067 193.583C146.107 194.867 145.067 197.33 144.667 198.4V197.999L143.467 188.364C141.2 188.632 135.307 189.167 129.867 189.167C124.427 189.167 118 188.632 115.467 188.364L115.067 197.999C114.8 197.597 114.107 196.473 113.467 195.189C112.667 193.583 109.867 191.174 109.867 189.97C109.867 189.007 108.533 186.893 107.867 185.956L106.667 184.35H113.867L115.467 185.555C116.8 185.42 120.187 185.314 123.067 185.956C125.947 186.598 127.733 184.083 128.267 182.745V176.322C127.067 175.519 124.107 173.672 121.867 172.709C119.067 171.505 116.267 166.688 117.067 161.871C117.867 157.053 120.267 155.448 121.867 155.849C123.467 156.251 133.867 155.448 135.467 155.849C137.067 156.251 139.867 157.053 141.067 159.061C142.267 161.068 141.467 169.096 139.067 171.906C137.147 174.154 133.467 175.786 131.867 176.322V182.745C131.867 183.547 134.667 185.555 135.067 185.956C135.467 186.357 141.467 185.956 142.667 185.956C143.627 185.956 144.4 185.153 144.667 184.752H151.467V186.357C151.467 187.16 150.267 190.773 149.867 191.174C149.467 191.576 148.267 191.977 147.067 193.583Z" fill="black"/>
<path d="M134.197 190.933L130.133 194.133L126.882 190.933L124.038 192.356L121.6 189.867H138.667L136.228 192.711L134.197 190.933ZM90.4647 125.292C85.704 123.323 80.5466 122.01 78.5631 121.6C78.034 121.873 76.9761 122.749 76.9761 124.062C76.9761 125.703 76.5795 127.344 76.9761 130.626C77.3729 133.908 80.5466 135.959 86.1008 138.421C91.6547 140.882 101.176 142.933 107.92 142.933C114.665 142.933 108.317 135.959 105.937 134.318C103.556 132.677 96.4154 127.754 90.4647 125.292Z" fill="black"/>
<path d="M96.9796 114.405C93.4221 115.041 88.4898 115.2 86.4683 115.2C84.4469 114.935 80.1615 113.689 79.1913 110.826C77.9785 107.247 81.2128 103.271 85.2555 101.283C89.2984 99.2946 94.554 100.09 97.7882 104.861C101.023 109.633 101.427 113.609 96.9796 114.405Z" fill="white"/>
<path d="M169.802 123.159C174.563 121.19 179.72 119.877 181.704 119.467C182.233 119.74 183.29 120.616 183.29 121.928C183.29 123.569 183.687 125.21 183.29 128.493C182.894 131.774 179.72 133.826 174.166 136.287C168.612 138.749 159.091 140.8 152.346 140.8C145.602 140.8 151.95 133.826 154.33 132.185C156.71 130.544 163.851 125.621 169.802 123.159Z" fill="black"/>
<path d="M156.887 114.405C160.444 115.041 165.377 115.2 167.398 115.2C169.42 114.935 173.705 113.689 174.675 110.826C175.888 107.247 172.654 103.271 168.611 101.283C164.568 99.2946 159.313 100.09 156.078 104.861C152.844 109.633 152.44 113.609 156.887 114.405Z" fill="white"/>
<path d="M69.1827 84.6385C66.2754 87.8137 60.7033 94.9579 58.2807 98.1331C56.6656 94.6933 53.1125 85.5117 51.8203 76.3036C50.5284 67.0957 51.5511 52.8866 52.2242 46.9331C53.9739 47.0654 59.0882 48.5207 65.5485 53.2834C72.0089 58.0463 81.4304 66.9105 85.3335 70.7471C81.1611 74.0546 72.0898 81.4632 69.1827 84.6385Z" fill="#FF8C30"/>
<path fill-rule="evenodd" clip-rule="evenodd" d="M51.2002 54.4934C57.5501 57.1432 65.9083 61.1938 69.411 64.8546C72.9643 68.5683 76.0902 73.4844 77.946 76.7998C80.7319 74.4898 83.5004 72.2707 85.3335 70.8286C81.3869 66.9788 71.8607 58.0843 65.3284 53.3052C58.7961 48.5261 53.6247 47.0658 51.8556 46.9331C51.6444 48.7876 51.399 51.4404 51.2002 54.4934Z" fill="#FF9A32"/>
<path d="M184.684 84.6385C187.591 87.8137 193.163 94.9579 195.586 98.1331C197.201 94.6933 200.754 85.5117 202.046 76.3036C203.339 67.0957 202.315 52.8866 201.643 46.9331C199.893 47.0654 194.779 48.5207 188.318 53.2834C181.858 58.0463 172.436 66.9105 168.533 70.7471C172.706 74.0546 181.777 81.4632 184.684 84.6385Z" fill="#FF8C30"/>
<path fill-rule="evenodd" clip-rule="evenodd" d="M202.667 54.4934C196.316 57.1432 187.958 61.1938 184.456 64.8546C180.902 68.5683 177.776 73.4844 175.921 76.7998C173.135 74.4898 170.366 72.2707 168.533 70.8286C172.479 66.9788 182.006 58.0843 188.538 53.3052C195.07 48.5261 200.241 47.0658 202.011 46.9331C202.222 48.7876 202.467 51.4404 202.667 54.4934Z" fill="#FF9A32"/>
</g>
</g>
<defs>
<clipPath id="clip0_485_1470">
<rect width="256" height="256" fill="white"/>
</clipPath>
<clipPath id="clip1_485_1470">
<rect width="256" height="256" fill="white"/>
</clipPath>
</defs>
</svg>
