<svg width="256" height="256" viewBox="0 0 256 256" fill="none" xmlns="http://www.w3.org/2000/svg">
<g clip-path="url(#clip0_485_1485)">
<g clip-path="url(#clip1_485_1485)">
<path d="M128 256C198.692 256 256 198.692 256 128C256 57.3076 198.692 0 128 0C57.3076 0 0 57.3076 0 128C0 198.692 57.3076 256 128 256Z" fill="white"/>
<path d="M79.3494 158.324C80.2364 157.437 81.456 156.92 82.7497 156.92H200.056C202.2 156.92 203.272 159.507 201.756 161.022L178.583 184.195C177.696 185.082 176.477 185.6 175.183 185.6H57.8765C55.7329 185.6 54.6612 183.013 56.1765 181.497L79.3494 158.324Z" fill="black"/>
<path d="M79.3494 71.8043C80.2733 70.9172 81.4929 70.3999 82.7497 70.3999H200.056C202.2 70.3999 203.272 72.987 201.756 74.5023L178.583 97.6754C177.696 98.5625 176.477 99.0798 175.183 99.0798H57.8765C55.7329 99.0798 54.6612 96.4927 56.1765 94.9774L79.3494 71.8043Z" fill="black"/>
<path d="M178.583 114.787C177.696 113.9 176.477 113.383 175.183 113.383H57.8765C55.7329 113.383 54.6612 115.97 56.1765 117.485L79.3494 140.658C80.2364 141.545 81.456 142.063 82.7497 142.063H200.056C202.2 142.063 203.272 139.476 201.756 137.96L178.583 114.787Z" fill="black"/>
</g>
</g>
<defs>
<clipPath id="clip0_485_1485">
<rect width="256" height="256" fill="white"/>
</clipPath>
<clipPath id="clip1_485_1485">
<rect width="256" height="256" fill="white"/>
</clipPath>
</defs>
</svg>
