<svg width="24" height="24" viewBox="0 0 24 24" fill="none" xmlns="http://www.w3.org/2000/svg">
<g clip-path="url(#clip0_476_1464)">
<path d="M12 0C8.472 0.015 4.375 0.61 0 2.349C0 2.349 0.195 2.874 0.672 3.745C4.674 1.989 8.585 1.435 12 1.46V1.463C15.415 1.433 19.326 1.991 23.328 3.743C23.863 2.775 24 2.348 24 2.348C19.625 0.612 15.528 0.015 12 0Z" fill="white"/>
<path d="M8.61918 5.03394L12.0002 23.9999L15.3612 5.03794C18.5612 5.03794 19.5692 5.38894 19.7152 6.82794C19.7152 6.82794 21.8642 6.02594 22.9462 4.38994C18.7202 2.42594 14.4752 2.33594 14.4752 2.33594L12.0002 5.36194V5.36394H11.9962L12.0002 5.36194L9.52518 2.33994C9.52518 2.33994 5.28018 2.43094 1.05518 4.39594C2.13818 6.03094 4.28418 6.82594 4.28418 6.82594C4.43118 5.38794 5.43918 5.03394 8.61918 5.03394Z" fill="white"/>
</g>
<defs>
<clipPath id="clip0_476_1464">
<rect width="24" height="24" fill="white"/>
</clipPath>
</defs>
</svg>
