<svg width="256" height="256" viewBox="0 0 256 256" fill="none" xmlns="http://www.w3.org/2000/svg">
<g clip-path="url(#clip0_485_1463)">
<g clip-path="url(#clip1_485_1463)">
<path d="M128 256C198.692 256 256 198.692 256 128C256 57.3075 198.692 0 128 0C57.3075 0 0 57.3075 0 128C0 198.692 57.3075 256 128 256Z" fill="white"/>
<path d="M188.965 93.7568C183.071 89.6343 176.769 85.2393 170.602 80.8788C170.46 80.7688 170.312 80.6664 170.159 80.5723C169.435 79.9852 168.617 79.5243 167.739 79.2093L167.671 79.1753C151.182 75.1893 134.422 71.1009 118.203 67.1489C103.485 63.5712 88.7785 59.9938 74.0835 56.4168C73.7085 56.3168 73.3333 56.2123 72.9248 56.1103C71.4805 55.6145 69.951 55.4176 68.4282 55.5313C67.9784 55.5969 67.548 55.7597 67.1675 56.0084L66.7583 56.3488C66.2418 56.8695 65.8465 57.4975 65.6001 58.1883L65.5 58.4609V60.0278L65.5679 60.2663C74.8679 86.3293 84.4079 112.766 93.6069 138.353C100.693 158.045 108.053 178.453 115.241 198.485C115.486 199.164 115.927 199.754 116.51 200.179C117.093 200.604 117.791 200.845 118.512 200.87H118.852C119.535 200.889 120.212 200.726 120.811 200.396C121.41 200.067 121.909 199.583 122.259 198.996L149.242 159.646C155.818 150.072 162.392 140.488 168.968 130.891C171.659 126.973 174.351 123.021 177.042 119.103C181.471 112.63 186.037 105.953 190.568 99.4454L190.807 99.1048V98.6959C190.907 97.5034 190.943 95.0503 188.967 93.7558M157.349 108.1C151.012 111.404 144.539 114.811 138.032 118.184C141.813 114.13 145.632 110.042 149.411 105.987C154.146 100.877 159.086 95.5963 163.924 90.4178L164.024 90.3178C164.474 89.7511 164.964 89.2165 165.489 88.7178C165.864 88.3428 166.272 87.9678 166.647 87.5253C169.168 89.2582 171.678 91.007 174.177 92.7718C175.948 94.0321 177.754 95.2926 179.594 96.5533C172.099 100.369 164.604 104.287 157.347 108.103M141.062 106.468C136.108 111.835 131.134 117.184 126.14 122.514C116.424 110.726 106.68 98.9605 96.9082 87.2188C92.5472 81.9723 88.152 76.6913 83.7915 71.4448L83.7573 71.4108C82.7693 70.2863 81.8153 69.0608 80.8613 67.9018C80.2478 67.1183 79.6011 66.3688 78.9536 65.5853C82.9036 66.6073 86.8916 67.5613 90.8096 68.4813C94.2506 69.2988 97.8274 70.1508 101.337 71.0363C121.097 75.84 140.868 80.6437 160.651 85.4473C154.076 92.4653 147.467 99.5858 141.062 106.468ZM123.924 172.868C124.299 169.29 124.708 165.611 125.049 162C125.355 159.104 125.662 156.14 125.969 153.312C126.446 148.781 126.957 144.08 127.366 139.48L127.466 138.663C127.806 135.733 128.148 132.701 128.352 129.669C128.748 129.449 129.157 129.255 129.579 129.09C130.103 128.868 130.614 128.617 131.111 128.34C138.981 124.217 146.863 120.106 154.755 116.007C162.745 111.851 170.729 107.683 178.706 103.503C171.442 114.021 164.208 124.56 157.005 135.119C150.905 144.011 144.638 153.176 138.405 162.204C135.952 165.816 133.398 169.495 130.979 173.038C128.253 176.988 125.459 181.044 122.733 185.099C123.074 181.01 123.483 176.888 123.926 172.868M76.4346 73.6218C75.9916 72.3953 75.5145 71.1348 75.106 69.9423C84.306 81.0488 93.5716 92.2233 102.6 103.057C107.268 108.679 111.935 114.266 116.6 119.921C117.52 120.977 118.44 122.102 119.326 123.192C120.484 124.589 121.642 126.054 122.902 127.45C122.493 130.959 122.152 134.5 121.778 137.909C121.539 140.294 121.301 142.679 121.028 145.098V145.132C120.928 146.665 120.721 148.198 120.551 149.697C120.312 151.775 119.768 156.477 119.768 156.477L119.733 156.716C119.12 163.598 118.37 170.548 117.655 177.294C117.349 180.087 117.077 182.949 116.77 185.811C116.599 185.3 116.395 184.789 116.225 184.311C115.705 182.922 115.205 181.525 114.725 180.121L111.079 170.002C99.5298 137.875 87.9799 105.747 76.4292 73.6208" fill="#04041A"/>
</g>
</g>
<defs>
<clipPath id="clip0_485_1463">
<rect width="256" height="256" fill="white"/>
</clipPath>
<clipPath id="clip1_485_1463">
<rect width="256" height="256" fill="white"/>
</clipPath>
</defs>
</svg>
