<svg width="24" height="24" viewBox="0 0 24 24" fill="none" xmlns="http://www.w3.org/2000/svg">
<path d="M3.49979 13.9124V13.7079C3.53471 13.0531 3.74136 12.4187 4.09925 11.8677C4.69601 11.1991 5.10626 10.3869 5.28922 9.51192C5.33396 8.84518 5.28922 8.16066 5.33396 7.48503C5.65606 4.24024 8.86809 2 11.9459 2H12.0354C15.1669 2 18.2984 4.24024 18.6384 7.48503C18.701 8.15177 18.6384 8.84518 18.6921 9.51192C18.8706 10.3884 19.2814 11.2017 19.882 11.8677C20.2555 12.4124 20.4692 13.0495 20.4995 13.7079V13.9124C20.5049 14.7993 20.1871 15.6582 19.6047 16.3304C18.8575 17.1274 17.8419 17.624 16.7505 17.7261C13.5637 18.135 10.3371 18.135 7.15023 17.7261C6.07158 17.6157 5.07004 17.1197 4.33188 16.3304C3.76774 15.6518 3.47191 14.7921 3.49979 13.9124Z" fill="white"/>
<path opacity="0.4" d="M13.1627 19.0952C12.5275 19.0507 12.0086 19.0952 11.4896 19.0952C10.975 19.0863 10.4612 19.14 9.95966 19.2552C9.53019 19.353 9.06494 19.5841 9.06494 20.0731C9.11 20.5456 9.36618 20.9731 9.76282 21.2376C10.5269 21.8212 11.4897 22.0858 12.447 21.9755C13.3775 21.9069 14.2279 21.4273 14.7643 20.6687C15.0607 20.2844 14.9931 19.735 14.6122 19.433C14.1611 19.2125 13.6654 19.097 13.1627 19.0952Z" fill="white"/>
</svg>
