<svg width="256" height="256" viewBox="0 0 256 256" fill="none" xmlns="http://www.w3.org/2000/svg">
<g clip-path="url(#clip0_8_2)">
<path d="M128 176C150.091 176 168 158.091 168 136C168 113.909 150.091 96 128 96C105.909 96 88 113.909 88 136C88 158.091 105.909 176 128 176Z" fill="#53616E"/>
<path d="M200 64H193.92C192.429 64.0104 190.965 63.6039 189.693 62.8264C188.421 62.049 187.391 60.9315 186.72 59.6L184 54.08C180.675 47.4442 175.569 41.8645 169.254 37.9651C162.938 34.0656 155.662 32.0002 148.24 32H107.76C100.338 32.0002 93.0619 34.0656 86.7465 37.9651C80.4311 41.8645 75.3252 47.4442 72 54.08L69.28 59.6C68.6091 60.9315 67.5795 62.049 66.3073 62.8264C65.0351 63.6039 63.5709 64.0104 62.08 64H56C45.3913 64 35.2172 68.2143 27.7157 75.7157C20.2143 83.2172 16 93.3913 16 104V184C16 194.609 20.2143 204.783 27.7157 212.284C35.2172 219.786 45.3913 224 56 224H200C210.609 224 220.783 219.786 228.284 212.284C235.786 204.783 240 194.609 240 184V104C240 93.3913 235.786 83.2172 228.284 75.7157C220.783 68.2143 210.609 64 200 64ZM128 192C116.924 192 106.097 188.716 96.8881 182.562C87.6789 176.409 80.5013 167.663 76.2627 157.43C72.0242 147.198 70.9153 135.938 73.076 125.075C75.2368 114.212 80.5703 104.234 88.402 96.402C96.2338 88.5703 106.212 83.2368 117.075 81.076C127.938 78.9153 139.198 80.0242 149.43 84.2627C159.663 88.5013 168.409 95.6789 174.562 104.888C180.716 114.097 184 124.924 184 136C184 150.852 178.1 165.096 167.598 175.598C157.096 186.1 142.852 192 128 192ZM200 112C198.418 112 196.871 111.531 195.555 110.652C194.24 109.773 193.214 108.523 192.609 107.061C192.003 105.6 191.845 103.991 192.154 102.439C192.462 100.887 193.224 99.462 194.343 98.3431C195.462 97.2243 196.887 96.4624 198.439 96.1537C199.991 95.845 201.6 96.0035 203.061 96.609C204.523 97.2145 205.773 98.2398 206.652 99.5554C207.531 100.871 208 102.418 208 104C208 106.122 207.157 108.157 205.657 109.657C204.157 111.157 202.122 112 200 112Z" fill="#53616E"/>
</g>
<defs>
<clipPath id="clip0_8_2">
<rect width="256" height="256" fill="white"/>
</clipPath>
</defs>
</svg>
