<svg width="256" height="256" viewBox="0 0 256 256" fill="none" xmlns="http://www.w3.org/2000/svg">
<g clip-path="url(#clip0_66_34)">
<mask id="mask0_66_34" style="mask-type:luminance" maskUnits="userSpaceOnUse" x="0" y="0" width="256" height="256">
<path d="M256 0H0V256H256V0Z" fill="white"/>
</mask>
<g mask="url(#mask0_66_34)">
<path d="M224 32H32C23.5131 32 15.3737 35.3714 9.37258 41.3726C3.37142 47.3737 0 55.5131 0 64V74.6667H256V64C256 55.5131 252.629 47.3737 246.627 41.3726C240.626 35.3714 232.487 32 224 32ZM0 192C0 200.487 3.37142 208.626 9.37258 214.627C15.3737 220.629 23.5131 224 32 224H224C232.487 224 240.626 220.629 246.627 214.627C252.629 208.626 256 200.487 256 192V96H0V192ZM53.3333 138.667H96C98.829 138.667 101.542 139.79 103.542 141.791C105.543 143.791 106.667 146.504 106.667 149.333C106.667 152.162 105.543 154.875 103.542 156.876C101.542 158.876 98.829 160 96 160H53.3333C50.5044 160 47.7913 158.876 45.7909 156.876C43.7905 154.875 42.6667 152.162 42.6667 149.333C42.6667 146.504 43.7905 143.791 45.7909 141.791C47.7913 139.79 50.5044 138.667 53.3333 138.667Z" fill="white"/>
</g>
</g>
<defs>
<clipPath id="clip0_66_34">
<rect width="256" height="256" fill="white"/>
</clipPath>
</defs>
</svg>
