<svg width="24" height="24" viewBox="0 0 24 24" fill="none" xmlns="http://www.w3.org/2000/svg">
<path d="M20 4C18.8954 4 18 4.8954 18 6C18 6.3747 18.1094 6.7213 18.2888 7.021L14.9649 13.0035C14.6125 13.0097 14.2859 13.1111 14.0006 13.2771L9.999 10.9906C9.9938 9.8904 9.1013 9 8 9C6.8954 9 6 9.8954 6 11C6 11.366 6.1055 11.7045 6.2772 11.9996L3.9907 16.0009C2.8905 16.006 2 16.8986 2 18C2 19.1046 2.8954 20 4 20C5.1046 20 6 19.1046 6 18C6 17.634 5.8945 17.2955 5.7228 17.0004L8.0093 12.9991C8.3717 12.9974 8.707 12.893 8.9995 12.7229L13.0008 15.0094C13.006 16.1095 13.8986 17 15 17C16.1046 17 17 16.1046 17 15C17 14.6252 16.8905 14.2787 16.7112 13.9789L20.0348 7.9965C21.1229 7.9775 22 7.0927 22 6C22 4.8954 21.1046 4 20 4Z" fill="#00FF00"/>
</svg>
