<svg width="8" height="8" viewBox="0 0 8 8" fill="none" xmlns="http://www.w3.org/2000/svg">
<g clip-path="url(#clip0_70_40)">
<path fill-rule="evenodd" clip-rule="evenodd" d="M0.59099 6.12899C0.81699 6.35399 1.12199 6.47999 1.43999 6.47999H6.23999C6.55799 6.47999 6.86299 6.35399 7.08899 6.12899C7.18199 6.03499 7.18199 5.88299 7.08899 5.78899C6.99499 5.69499 6.84299 5.69499 6.74899 5.78899C6.61399 5.92399 6.43099 5.99999 6.23999 5.99999H1.43999C1.24899 5.99999 1.06599 5.92399 0.93099 5.78899C0.83699 5.69499 0.68499 5.69499 0.59099 5.78899C0.49799 5.88299 0.49799 6.03499 0.59099 6.12899ZM0.59099 7.08899C0.81699 7.31399 1.12199 7.43999 1.43999 7.43999H6.23999C6.55799 7.43999 6.86299 7.31399 7.08899 7.08899C7.18199 6.99499 7.18199 6.84299 7.08899 6.74899C6.99499 6.65499 6.84299 6.65499 6.74899 6.74899C6.61399 6.88399 6.43099 6.95999 6.23999 6.95999H1.43999C1.24899 6.95999 1.06599 6.88399 0.93099 6.74899C0.83699 6.65499 0.68499 6.65499 0.59099 6.74899C0.49799 6.84299 0.49799 6.99499 0.59099 7.08899ZM7.39899 5.03999H6.71999C6.52899 5.03999 6.34599 5.11599 6.21099 5.25099C6.13399 5.32799 6.07699 5.41999 6.04099 5.51999H6.71999C6.91099 5.51999 7.09399 5.44399 7.22899 5.30899C7.30599 5.23199 7.36299 5.13999 7.39899 5.03999ZM0.28099 5.03999C0.31699 5.13999 0.37399 5.23199 0.45099 5.30899C0.58599 5.44399 0.76899 5.51999 0.95999 5.51999H1.63899C1.60299 5.41999 1.54599 5.32799 1.46899 5.25099C1.33399 5.11599 1.15099 5.03999 0.95999 5.03999H0.28099ZM1.63899 0.23999H0.95999C0.76899 0.23999 0.58599 0.31599 0.45099 0.45099C0.37399 0.52799 0.31699 0.61999 0.28099 0.71999H0.95999C1.15099 0.71999 1.33399 0.64399 1.46899 0.50899C1.54599 0.43199 1.60299 0.33999 1.63899 0.23999ZM6.04099 0.23999C6.07699 0.33999 6.13399 0.43199 6.21099 0.50899C6.34599 0.64399 6.52899 0.71999 6.71999 0.71999H7.39899C7.36299 0.61999 7.30599 0.52799 7.22899 0.45099C7.09399 0.31599 6.91099 0.23999 6.71999 0.23999H6.04099ZM2.13599 0.23999C2.08899 0.46899 1.97599 0.68099 1.80899 0.84899C1.58299 1.07399 1.27799 1.19999 0.95999 1.19999H0.23999V4.55999H0.95999C1.27799 4.55999 1.58299 4.68599 1.80899 4.91099C1.97599 5.07899 2.08899 5.29099 2.13599 5.51999H5.54399C5.59099 5.29099 5.70399 5.07899 5.87099 4.91099C6.09699 4.68599 6.40199 4.55999 6.71999 4.55999H7.43999V1.19999H6.71999C6.40199 1.19999 6.09699 1.07399 5.87099 0.84899C5.70399 0.68099 5.59099 0.46899 5.54399 0.23999H2.13599ZM3.35999 3.11999H4.31999C4.45299 3.11999 4.55999 3.22699 4.55999 3.35999C4.55999 3.49299 4.45299 3.59999 4.31999 3.59999H3.35999C3.22699 3.59999 3.11999 3.49299 3.11999 3.35999C3.11999 3.22799 3.01199 3.11999 2.87999 3.11999C2.74799 3.11999 2.63999 3.22799 2.63999 3.35999C2.63999 3.75799 2.96199 4.07999 3.35999 4.07999H3.59999V4.31999C3.59999 4.45199 3.70799 4.55999 3.83999 4.55999C3.97199 4.55999 4.07999 4.45199 4.07999 4.31999V4.07999H4.31999C4.71799 4.07999 5.03999 3.75799 5.03999 3.35999C5.03999 2.96199 4.71799 2.63999 4.31999 2.63999H3.35999C3.22699 2.63999 3.11999 2.53299 3.11999 2.39999C3.11999 2.26699 3.22699 2.15999 3.35999 2.15999H4.31999C4.45299 2.15999 4.55999 2.26699 4.55999 2.39999C4.55999 2.53199 4.66799 2.63999 4.79999 2.63999C4.93199 2.63999 5.03999 2.53199 5.03999 2.39999C5.03999 2.00199 4.71799 1.67999 4.31999 1.67999H4.07999V1.43999C4.07999 1.30799 3.97199 1.19999 3.83999 1.19999C3.70799 1.19999 3.59999 1.30799 3.59999 1.43999V1.67999H3.35999C2.96199 1.67999 2.63999 2.00199 2.63999 2.39999C2.63999 2.79799 2.96199 3.11999 3.35999 3.11999Z" fill="white"/>
</g>
<defs>
<clipPath id="clip0_70_40">
<rect width="8" height="8" fill="white"/>
</clipPath>
</defs>
</svg>
