<svg width="468" height="284" viewBox="0 0 468 284" fill="none" xmlns="http://www.w3.org/2000/svg">
<path d="M442.735 150.205C442.389 152.548 442.099 154.004 442.027 154.35C435.142 186.806 412.76 214.265 382.765 235.425C382.25 235.786 381.731 236.148 381.212 236.509C380.616 236.922 380.015 237.334 379.414 237.732C375.126 240.644 370.699 243.427 366.132 246.078C365.98 246.17 365.822 246.256 365.669 246.343C364.712 246.903 363.754 247.448 362.787 247.983C360.688 249.171 358.567 250.322 356.421 251.436C352.255 253.625 348.008 255.705 343.679 257.674C342.569 258.183 341.454 258.688 340.333 259.176C325.197 265.828 309.526 271.187 293.487 275.198C288.2 276.527 282.908 277.703 277.608 278.727C263.885 281.415 249.975 283.04 236.001 283.585C224.881 283.967 213.747 283.681 202.66 282.73C198.067 282.343 193.427 281.847 188.742 281.243C179.774 280.087 170.694 278.518 161.665 276.517C160.779 276.323 159.898 276.119 159.012 275.916C157.937 275.666 156.868 275.412 155.793 275.152C150.456 273.853 145.16 272.398 139.904 270.788C138.784 270.451 137.669 270.1 136.558 269.744C136.365 269.682 136.176 269.621 135.988 269.56C135.642 269.443 135.29 269.331 134.939 269.214C128.344 267.05 121.861 264.631 115.577 261.947C115.205 261.789 114.838 261.631 114.467 261.468C112.74 260.725 111.031 259.959 109.338 259.171C104.19 256.778 99.2076 254.199 94.3917 251.436C91.2495 249.633 88.1957 247.745 85.2301 245.773C84.6801 245.411 84.1301 245.044 83.5852 244.673C81.7773 243.435 80.0051 242.172 78.2685 240.869C76.3741 239.458 74.5272 238.005 72.7278 236.509C57.3227 223.732 45.569 208.149 39.6514 189.53C39.1319 187.885 38.6481 186.215 38.2153 184.509C35.2024 172.415 34.2605 159.899 35.4296 147.491C37.4361 125.486 45.9255 103.995 61.7889 90.7185C75.1009 79.5708 92.7722 74.9009 109.338 73.3375C109.445 73.3222 109.557 73.3171 109.669 73.3069C131.145 71.3259 150.69 74.5444 156.338 75.5782C175.995 79.1889 193.809 86.9704 223.372 83.6449C225.745 83.375 233.888 82.3972 248.733 78.3181C249.054 78.2315 249.38 78.1398 249.711 78.0482C251.142 77.6509 252.537 77.2503 253.897 76.8463C296.023 64.4357 305.811 50.7824 330.713 44.4523C332.44 44.0093 334.232 43.612 336.071 43.2505C338.811 42.7208 341.662 42.2778 344.601 41.9468C368.862 39.212 398.817 43.8106 419.106 62.5921C438.982 80.9917 443.779 107.606 444.151 127.451C444.297 135.062 443.824 142.672 442.735 150.205Z" fill="#E6EDFA"/>
<path d="M381.212 236.509C351.416 257.13 314.374 271.617 277.61 278.73C263.886 281.414 249.975 283.038 236.001 283.586C224.88 283.965 213.746 283.68 202.658 282.732C186.864 281.414 171.196 278.879 155.792 275.15C149.121 273.527 142.5 271.666 135.99 269.56C135.641 269.446 135.289 269.334 134.939 269.216C128.342 267.05 121.863 264.63 115.577 261.948C115.206 261.79 114.837 261.632 114.469 261.471C112.742 260.726 111.032 259.959 109.337 259.171C95.8649 252.907 83.4156 245.385 72.7262 236.509L381.212 236.509Z" fill="#D8DFF3"/>
<path d="M442.737 150.205C442.391 152.548 442.099 154.005 442.024 154.349C428.246 219.33 352.348 264.27 277.609 278.729C277.609 278.475 277.601 278.214 277.576 277.957C277.412 276.214 276.6 274.604 276.209 272.896C274.668 266.204 279.844 259.71 285.712 256.142C291.581 252.573 298.434 250.677 303.855 246.459C301.045 244.315 303.266 239.839 305.8 237.377C311.844 231.521 319.066 227.02 326.986 224.174C325.713 214.23 336.625 204.863 346.258 207.624C346.321 205.187 347.248 202.853 348.875 201.038C350.501 199.223 352.72 198.046 355.135 197.717C357.55 197.389 360.003 197.93 362.055 199.245C364.107 200.559 365.625 202.561 366.336 204.892C366.747 201.405 367.725 198.008 369.233 194.836C370.551 192.064 374.676 192.277 375.645 195.188C375.65 195.208 375.656 195.228 375.664 195.248C378.859 188.817 388.904 187.325 393.832 192.548C392.113 186.148 399.823 179.469 405.913 182.083C402.993 177.794 402.202 171.803 404.958 167.404C407.713 163.006 414.411 161.258 418.419 164.552C415.571 159.696 419.159 152.449 424.749 151.77C427.601 151.424 430.435 152.523 433.307 152.597C434.794 152.63 436.259 152.237 437.529 151.463C439.077 150.476 440.91 150.033 442.737 150.205ZM344.47 67.4693C344.47 80.0796 326.55 90.3325 304.289 90.5642C304.03 90.5698 303.773 90.5698 303.514 90.5698C301.923 90.5698 300.356 90.5153 298.816 90.417C294.784 94.331 289.526 96.7363 283.928 97.2279C278.331 97.7195 272.734 96.2674 268.082 93.1161C267.961 93.0372 267.847 92.9552 267.73 92.8737C267.757 93.0397 267.781 93.2093 267.801 93.3784V93.3809C267.863 93.8943 267.894 94.4109 267.894 94.9281C267.894 100.862 263.927 106.272 257.406 110.362C256.797 110.747 256.164 111.115 255.513 111.472C250.495 114.231 244.228 116.269 237.238 117.286V117.289C236.499 117.395 235.758 117.49 235.017 117.573C234.403 117.644 233.787 117.704 233.17 117.758H233.167C227.485 118.248 221.764 118.065 216.124 117.213C216.124 117.21 216.124 117.21 216.121 117.21C215.96 117.185 215.802 117.159 215.641 117.133C208.667 116.007 202.451 113.865 197.536 111.006C192.508 108.084 188.838 104.411 187.106 100.317C186.437 100.341 185.769 100.36 185.092 100.36C184.495 100.36 183.9 100.349 183.31 100.327C180.868 100.245 178.437 99.9764 176.036 99.5226C175.558 99.4326 175.087 99.3343 174.62 99.2277H174.617C170.542 98.3644 166.646 96.8076 163.098 94.625C162.259 95.3385 161.382 96.0061 160.471 96.6249C159.223 97.472 157.923 98.242 156.581 98.9303C156.123 99.1676 155.653 99.3994 155.173 99.6204C154.581 99.9015 153.972 100.169 153.353 100.426H153.348C152.303 100.864 151.225 101.268 150.106 101.645C143.776 103.707 137.156 104.736 130.5 104.695H130.265C124.7 104.663 119.375 102.428 115.455 98.4788C111.534 94.5301 109.337 89.1891 109.344 83.6245V73.3375C109.454 73.3237 109.565 73.3156 109.675 73.3075C131.152 71.3264 150.697 74.5434 156.345 75.5803C176.002 79.1868 193.815 86.9678 223.378 83.6424C225.753 83.375 233.894 82.3952 248.739 78.3165C249.061 78.2294 249.386 78.1393 249.716 78.0466C251.146 77.6484 252.542 77.2481 253.904 76.8458C296.026 64.4351 305.818 50.7824 330.716 44.4503C332.448 44.0106 334.234 43.6105 336.075 43.25C336.235 46.3799 335.735 49.5085 334.61 52.4334C340.202 56.1082 343.779 60.7817 344.382 65.9191C344.443 66.4336 344.472 66.9513 344.47 67.4693Z" fill="#CAD4EF"/>
<path d="M281.613 76.8463C281.613 76.8463 281.605 76.8738 281.591 76.9283C281.471 77.3357 280.903 79.2612 279.847 82.3656C279.103 84.5514 278.116 87.3233 276.865 90.5647C276.188 92.3247 275.433 94.2165 274.598 96.2399C269.182 109.372 262.711 122.043 255.246 134.129C254.946 134.615 254.641 135.102 254.33 135.591C251.686 139.782 248.83 144.016 245.752 148.234C245.752 148.236 245.751 148.238 245.751 148.24C245.75 148.242 245.748 148.244 245.747 148.245C245.551 148.515 245.351 148.785 245.152 149.053C244.918 149.372 244.68 149.694 244.439 150.013C244.139 150.416 243.837 150.819 243.533 151.222C243.533 151.222 243.533 151.222 243.528 151.227C237.041 159.859 229.811 167.907 221.922 175.28C204.295 191.651 188.884 210.256 176.081 230.623C176.081 230.623 176.081 230.623 176.081 230.628C175.776 231.114 175.475 231.6 175.178 232.08C171.87 237.455 168.975 242.62 166.49 247.458V247.463C166.323 247.783 166.162 248.099 166.004 248.413C160.383 259.515 156.981 268.867 155.795 275.149C149.123 273.526 142.503 271.665 135.993 269.559C135.643 269.445 135.291 269.333 134.942 269.215C128.345 267.049 121.865 264.629 115.579 261.947C115.208 261.789 114.84 261.631 114.471 261.47C112.745 260.725 111.034 259.958 109.339 259.17V214.975C123.069 195.227 143.244 172.852 172.793 150.91C174.642 149.538 176.025 147.631 176.755 145.448C177.484 143.264 177.525 140.909 176.872 138.701C176.866 138.679 176.858 138.655 176.853 138.633C176.001 135.765 174.948 132.398 173.778 129.084C173.118 127.217 172.31 125.407 171.361 123.67C171.361 123.668 171.361 123.666 171.361 123.664C171.225 123.405 171.08 123.148 170.932 122.895C170.785 122.641 170.641 122.385 170.488 122.136C170.488 122.136 170.488 122.136 170.488 122.131C168.32 118.547 165.572 115.35 162.354 112.669C158.86 109.755 154.437 105.896 150.127 101.663L150.107 101.644C148.445 100.015 146.801 98.334 145.232 96.6239C143.537 94.8069 141.931 92.9134 140.413 90.9436C139.868 90.2398 139.335 89.5258 138.815 88.8017C136.452 85.4568 134.736 82.221 134.125 79.3457C137.948 79.7695 141.803 78.8887 145.062 76.8463L150.279 83.2828L154.506 88.4992L156.763 91.2818C157.014 91.6029 157.358 91.8386 157.748 91.9563C158.138 92.074 158.556 92.068 158.942 91.9392C159.287 91.8174 159.589 91.6001 159.815 91.3127C160.04 91.0253 160.179 90.6797 160.215 90.3162L160.623 86.2156L160.768 84.7587L160.997 82.4721C161.983 83.2609 163.086 83.8922 164.265 84.3436C166.517 85.244 168.923 85.6938 171.348 85.6677C171.612 85.6677 171.882 85.6622 172.158 85.6514C172.18 85.6514 172.202 85.6514 172.223 85.6514H172.229C173.816 85.5799 175.392 85.3524 176.935 84.972C177.795 87.962 178.817 90.9031 179.996 93.7822C180.902 96.0584 182.012 98.2481 183.311 100.325C184.025 101.497 184.933 102.539 185.996 103.408C187.426 104.48 189.472 107.088 191.663 110.266L191.662 110.268L191.663 110.269C191.93 110.657 192.199 111.052 192.468 111.456C193.701 113.289 194.963 115.262 196.167 117.211C198.115 120.351 199.921 123.42 201.256 125.726C201.481 126.116 201.782 126.458 202.14 126.733C202.498 127.007 202.906 127.208 203.342 127.325C203.778 127.442 204.232 127.471 204.679 127.412C205.126 127.353 205.557 127.207 205.948 126.981C206.218 126.824 206.466 126.631 206.684 126.408C207.451 125.622 208.338 124.714 209.32 123.701C209.321 123.698 209.323 123.695 209.326 123.693L210.049 122.944H210.052C211.667 121.277 213.506 119.367 215.489 117.289L215.637 117.133C219.355 113.234 223.563 108.757 227.723 104.201C228.623 103.216 229.52 102.228 230.413 101.238C237.594 93.274 244.265 85.3998 247.569 80.2711C247.569 80.2711 247.572 80.2711 247.572 80.2655C247.785 79.938 247.979 79.6192 248.166 79.3131C248.376 78.9669 248.564 78.6343 248.734 78.3175C249.056 78.2305 249.38 78.1403 249.711 78.0476C251.14 77.6494 252.536 77.2491 253.899 76.8468L281.613 76.8463Z" fill="#D8DFF3"/>
<path d="M229.855 154.001C224.519 155.41 219.002 156.865 213.704 158.737C200.325 163.459 190.876 170.292 185.622 179.047C182.471 184.298 180.843 190.176 179.552 195.746C176.793 207.649 175.257 219.803 174.969 232.019C174.968 232.044 174.976 232.069 174.991 232.089C175.006 232.11 175.027 232.125 175.051 232.132C175.075 232.139 175.101 232.138 175.125 232.129C175.149 232.121 175.169 232.104 175.182 232.083C175.479 231.6 175.78 231.116 176.083 230.63L176.101 230.573C176.471 218.926 177.983 207.344 180.614 195.992C181.884 190.509 183.483 184.73 186.557 179.609C191.676 171.077 200.932 164.401 214.066 159.766C219.323 157.911 224.818 156.46 230.132 155.056C234.536 153.894 239.053 152.698 243.481 151.264L243.538 151.224C243.843 150.821 244.146 150.418 244.445 150.014C244.46 149.995 244.468 149.971 244.469 149.947C244.469 149.922 244.461 149.898 244.447 149.879C244.432 149.859 244.412 149.844 244.388 149.837C244.365 149.83 244.34 149.83 244.317 149.838C239.546 151.438 234.634 152.739 229.855 154.001Z" fill="#CAD4EF"/>
<path d="M166.49 247.458V247.463C166.487 247.473 166.484 247.482 166.479 247.491C166.326 247.788 166.173 248.088 166.021 248.386C166.015 248.395 166.008 248.405 166.001 248.413C165.995 248.419 165.989 248.425 165.982 248.429C165.956 248.445 165.925 248.45 165.895 248.443C165.865 248.436 165.84 248.417 165.824 248.391C165.158 247.333 164.451 246.299 163.704 245.289C162.361 243.472 160.506 241.189 158.062 239.642C156.359 238.601 154.452 237.936 152.471 237.693C150.49 237.451 148.48 237.635 146.575 238.234C145.897 238.454 145.281 238.832 144.777 239.337C144.274 239.841 143.897 240.458 143.678 241.137C140.729 250.116 137.684 259.725 135.988 269.56C135.639 269.446 135.287 269.334 134.938 269.216C136.785 258.573 140.19 248.227 143.347 238.646L143.453 238.46L143.597 238.343C145.918 237.078 148.53 236.447 151.172 236.514C153.814 236.581 156.391 237.344 158.644 238.725C161.239 240.367 163.177 242.752 164.581 244.645C165.238 245.535 165.868 246.444 166.472 247.373C166.488 247.398 166.494 247.429 166.49 247.458Z" fill="#647CBE"/>
<path d="M270.031 80.1504C268.494 85.5457 266.632 90.8429 264.454 96.0128H264.451C262.383 100.928 260.031 105.719 257.407 110.361C255.532 113.688 253.519 116.935 251.366 120.101C251.041 120.576 250.716 121.051 250.389 121.527C248.051 124.926 245.634 128.443 244.477 132.388C243.833 134.651 243.58 137.008 243.727 139.356C243.728 139.37 243.731 139.384 243.738 139.397C243.744 139.411 243.752 139.424 243.763 139.435C243.774 139.445 243.787 139.454 243.801 139.459C243.816 139.465 243.831 139.467 243.846 139.467C243.861 139.467 243.876 139.463 243.89 139.457C247.702 137.768 251.438 135.939 255.101 133.968C255.118 133.958 255.138 133.954 255.158 133.954C255.178 133.954 255.198 133.958 255.215 133.968C255.228 133.976 255.24 133.986 255.248 133.998C255.257 134.011 255.264 134.025 255.267 134.039C255.27 134.054 255.271 134.07 255.268 134.085C255.265 134.099 255.259 134.114 255.251 134.126C254.951 134.612 254.645 135.099 254.334 135.588C254.321 135.603 254.306 135.617 254.291 135.63C250.888 137.422 247.428 139.091 243.91 140.636C243.887 140.646 243.868 140.663 243.856 140.685C243.844 140.706 243.839 140.731 243.841 140.756C244.145 143.291 244.791 145.773 245.762 148.133C245.769 148.149 245.772 148.166 245.771 148.183C245.77 148.2 245.765 148.217 245.757 148.232C245.757 148.234 245.756 148.236 245.755 148.238C245.754 148.24 245.753 148.241 245.751 148.242C245.555 148.512 245.355 148.783 245.156 149.05C245.145 149.067 245.129 149.081 245.11 149.088C245.082 149.1 245.05 149.1 245.022 149.089C244.993 149.078 244.97 149.056 244.957 149.028C243.892 146.553 243.169 143.944 242.81 141.273C242.811 141.262 242.808 141.252 242.802 141.243C242.796 141.229 242.788 141.217 242.777 141.206C242.767 141.196 242.754 141.188 242.74 141.182C242.727 141.176 242.712 141.174 242.697 141.174C242.683 141.174 242.668 141.177 242.654 141.183C231.388 146.031 219.608 149.588 207.541 151.787C206.957 151.889 206.374 151.997 205.787 152.099C200.593 153.015 195.22 153.962 190.844 156.815C184.487 160.963 181.328 168.296 178.272 175.389C177.039 178.255 175.762 181.217 174.286 183.954C169.536 192.766 162.246 199.89 155.194 206.779C149.565 212.279 143.746 217.968 139.249 224.48C136.077 229.08 133.504 234.187 131.016 239.12C128.364 244.38 125.625 249.82 122.135 254.698C120.229 257.354 118.03 259.785 115.579 261.948C115.208 261.789 114.839 261.631 114.471 261.47C117.014 259.279 119.287 256.793 121.244 254.065C124.684 249.253 127.406 243.851 130.037 238.629C132.542 233.66 135.133 228.523 138.35 223.86C142.904 217.26 148.764 211.534 154.428 205.998C161.421 199.166 168.651 192.1 173.322 183.435C174.773 180.742 176.039 177.801 177.264 174.958C180.385 167.714 183.613 160.225 190.242 155.901C194.807 152.925 200.291 151.958 205.592 151.023C206.179 150.921 206.762 150.817 207.341 150.712C219.463 148.504 231.293 144.916 242.599 140.017C242.62 140.008 242.638 139.992 242.65 139.972C242.663 139.952 242.668 139.929 242.667 139.905C242.447 137.273 242.706 134.622 243.43 132.081C244.636 127.969 247.103 124.379 249.488 120.911C249.815 120.436 250.139 119.96 250.461 119.485C252.238 116.868 253.921 114.197 255.512 111.469C257.613 107.871 259.544 104.184 261.306 100.409C261.825 99.2985 262.328 98.1817 262.815 97.0583C265.247 91.4641 267.305 85.7148 268.977 79.8484C268.981 79.8339 268.988 79.8203 268.997 79.8085C269.007 79.7967 269.018 79.7869 269.032 79.7798C269.045 79.7727 269.06 79.7683 269.075 79.767C269.09 79.7656 269.105 79.7673 269.119 79.772L269.948 80.0068C269.963 80.0106 269.977 80.0174 269.989 80.0267C270.002 80.0361 270.012 80.0478 270.02 80.0611C270.028 80.0745 270.033 80.0893 270.034 80.1046C270.036 80.1199 270.035 80.1355 270.031 80.1504Z" fill="#CAD4EF"/>
<path d="M212.913 124.349C214.481 124.492 216.138 124.604 217.829 124.604C221.013 124.683 224.181 124.129 227.149 122.974C231.078 121.329 234.308 118.272 237.158 115.574L244.373 108.747C246.152 107.062 248.17 105.153 249.202 102.669C250.178 100.323 250.169 97.6954 250.166 95.3793C250.154 90.2867 250.135 84.5463 248.373 79.3376C248.368 79.3233 248.361 79.31 248.351 79.2986C248.341 79.2872 248.329 79.2778 248.315 79.271C248.302 79.2643 248.287 79.2602 248.272 79.2592C248.257 79.2581 248.242 79.26 248.228 79.2648C248.201 79.2735 248.179 79.2917 248.166 79.3157C247.982 79.6213 247.784 79.9387 247.572 80.268C247.563 80.2819 247.558 80.2976 247.555 80.3139C247.553 80.3303 247.554 80.3469 247.559 80.3627C249.047 85.1966 249.063 90.3687 249.075 95.3859C249.08 97.5996 249.086 100.109 248.194 102.254C247.25 104.524 245.323 106.348 243.622 107.957L236.407 114.786C233.488 117.547 230.471 120.403 226.727 121.971C222.329 123.812 217.326 123.658 213.011 123.265C212.09 123.181 211.123 123.078 210.151 122.916C210.133 122.913 210.114 122.915 210.096 122.921C210.079 122.927 210.063 122.937 210.05 122.95L209.325 123.697C209.304 123.719 209.293 123.749 209.293 123.779C209.294 123.81 209.307 123.839 209.329 123.86C209.345 123.875 209.366 123.886 209.388 123.89C210.587 124.116 211.783 124.246 212.913 124.349ZM109.337 231.515C109.337 231.535 109.342 231.554 109.352 231.571C109.361 231.588 109.375 231.602 109.392 231.613C109.408 231.623 109.427 231.629 109.447 231.63C109.466 231.632 109.486 231.628 109.503 231.619C115.265 228.859 120.142 224.545 123.586 219.164C124.75 217.317 125.743 215.345 126.704 213.433C127.768 211.203 128.972 209.043 130.31 206.966C134.312 201.047 140.55 196.704 146.053 192.872L159.337 183.623C163.14 180.975 167.873 177.68 170.096 172.827C172.819 166.885 171.11 160.18 167.735 154.901C167.718 154.875 167.691 154.857 167.661 154.851C167.631 154.845 167.6 154.85 167.574 154.867C167.555 154.879 167.54 154.897 167.531 154.918L166.928 155.376C166.911 155.381 166.894 155.389 166.881 155.401C166.868 155.413 166.857 155.428 166.85 155.445C166.844 155.461 166.841 155.479 166.843 155.497C166.845 155.515 166.851 155.533 166.86 155.548C170.037 160.538 171.644 166.828 169.104 172.37C167.003 176.953 162.407 180.153 158.715 182.724L145.431 191.973C139.849 195.859 133.523 200.264 129.408 206.351C128.042 208.467 126.814 210.667 125.73 212.94C124.781 214.824 123.799 216.777 122.664 218.58C119.407 223.673 114.821 227.779 109.402 230.456C109.383 230.466 109.367 230.48 109.356 230.498C109.345 230.516 109.339 230.537 109.339 230.558L109.337 231.515ZM178.43 104.361C182.255 108.099 187.342 109.937 192.335 111.631C192.358 111.639 192.383 111.639 192.406 111.631C192.429 111.624 192.449 111.61 192.463 111.591C192.478 111.572 192.486 111.548 192.487 111.524C192.487 111.5 192.48 111.477 192.467 111.457C192.195 111.054 191.926 110.659 191.66 110.271L191.604 110.228C186.94 108.623 182.59 106.902 179.192 103.58C174.511 99.0067 172.843 92.6262 172.336 85.7563C172.334 85.7268 172.32 85.6992 172.298 85.6796C172.276 85.6599 172.247 85.6496 172.218 85.6509C171.925 85.6631 171.639 85.6682 171.357 85.6687C171.342 85.6687 171.327 85.6717 171.313 85.6774C171.299 85.6832 171.287 85.6916 171.276 85.7023C171.266 85.7129 171.257 85.7256 171.251 85.7395C171.246 85.7534 171.243 85.7683 171.243 85.7833V85.7914C171.76 92.9032 173.496 99.5394 178.43 104.361ZM150.207 101.695C153.275 101.509 156.341 101.37 159.406 101.279L159.459 101.29C163.847 103.42 167.112 106.55 168.731 110.228C170.119 113.379 170.334 116.976 170.427 120.1C170.446 120.76 170.461 121.421 170.47 122.084L170.486 122.135C170.789 122.636 171.079 123.145 171.358 123.662C171.37 123.685 171.39 123.702 171.413 123.713C171.436 123.723 171.462 123.725 171.487 123.719C171.512 123.712 171.534 123.698 171.549 123.678C171.565 123.658 171.574 123.633 171.574 123.608C171.572 122.425 171.553 121.245 171.519 120.065C171.423 116.838 171.198 113.116 169.731 109.786C168.274 106.476 165.584 103.593 161.996 101.424C161.975 101.412 161.958 101.392 161.949 101.37C161.939 101.347 161.938 101.321 161.944 101.297C161.95 101.274 161.964 101.252 161.983 101.237C162.002 101.221 162.026 101.213 162.051 101.212C162.795 101.197 163.539 101.185 164.283 101.176C166.06 101.154 167.639 101.195 168.955 101.906C170.327 102.647 171.265 104.066 172.107 105.455C176.157 112.139 179.309 119.329 181.482 126.837C182.304 129.679 182.93 132.908 181.345 135.297C180.357 136.785 178.631 137.695 177.108 138.497L176.849 138.633C176.856 138.655 176.863 138.679 176.869 138.7C176.903 138.813 176.935 138.927 176.964 139.041L177.747 139.394C179.281 138.585 181.143 137.573 182.254 135.902C184.088 133.142 183.425 129.618 182.531 126.535C180.333 118.935 177.142 111.657 173.041 104.891C172.121 103.374 171.088 101.819 169.476 100.948C167.931 100.112 166.202 100.063 164.273 100.086C162.749 100.104 161.223 100.135 159.695 100.177L159.645 100.166C159.224 99.9687 158.799 99.7762 158.36 99.5964C154.215 97.8976 149.788 97.1494 145.434 96.5444L145.332 96.7369C145.641 97.0724 145.953 97.4068 146.268 97.7402L146.334 97.7748C149.794 98.2053 153.204 98.9715 156.516 100.062C156.541 100.072 156.562 100.089 156.575 100.112C156.588 100.135 156.593 100.162 156.589 100.188C156.585 100.214 156.572 100.238 156.553 100.255C156.533 100.273 156.508 100.284 156.482 100.285C154.112 100.377 151.743 100.499 149.373 100.651C149.358 100.652 149.343 100.656 149.329 100.663C149.315 100.669 149.303 100.679 149.293 100.69C149.283 100.702 149.276 100.715 149.271 100.73C149.266 100.744 149.264 100.76 149.265 100.775C149.267 100.803 149.279 100.829 149.299 100.848C149.573 101.12 149.847 101.391 150.122 101.663C150.134 101.674 150.147 101.682 150.162 101.688C150.176 101.693 150.192 101.696 150.207 101.695Z" fill="#CAD4EF"/>
<path d="M350.431 53.8278C350.431 58.2614 348.216 62.4027 344.377 65.9196C337.169 72.5247 324.234 76.9283 309.474 76.9283H309.449C308.314 76.9283 307.187 76.8982 306.074 76.8463C305.638 76.8275 305.209 76.803 304.776 76.7755C300.691 80.7399 295.351 83.1545 289.676 83.6028C284.002 84.0511 278.349 82.505 273.692 79.2311C273.799 79.9108 273.853 80.5976 273.856 81.2855C273.856 85.6096 271.747 89.6557 268.08 93.1151C267.987 93.2027 267.897 93.2898 267.802 93.3774H267.799V93.3799C266.748 94.3368 265.629 95.2167 264.452 96.0128H264.449C263.922 96.3726 263.379 96.7218 262.819 97.0603C259.892 98.7929 256.781 100.194 253.543 101.236C252.173 101.689 250.755 102.097 249.287 102.458C248.85 102.568 248.409 102.672 247.963 102.77C243.017 103.855 237.966 104.395 232.903 104.382C231.151 104.382 229.427 104.321 227.73 104.199C215.452 103.326 204.869 99.3892 198.461 93.7883L198.458 93.7853V93.7827C196.149 91.8491 194.307 89.4186 193.069 86.673C192.401 86.6974 191.736 86.7162 191.059 86.7162C186.451 86.7369 181.865 86.0769 177.45 84.7576C174.499 83.8768 171.679 82.607 169.063 80.9815C168.087 81.8107 167.06 82.5789 165.988 83.2818C165.435 83.6469 164.859 84.0019 164.267 84.3426C163.086 85.029 161.87 85.6538 160.625 86.2146C158.638 87.1113 156.594 87.8741 154.505 88.4981C154.162 88.6 153.815 88.7008 153.466 88.8006C149.202 89.9678 144.827 90.6857 140.413 90.9426C139.099 91.0217 137.781 91.058 136.46 91.0516C133.456 91.0542 130.456 90.8538 127.479 90.4517C123.08 89.842 118.988 87.8544 115.789 84.7742C112.59 81.694 110.449 77.6795 109.674 73.3069C131.151 71.3259 150.696 74.5429 156.344 75.5798C176.001 79.1863 193.814 86.9673 223.378 83.6418C225.752 83.3745 233.893 82.3947 248.739 78.316C249.061 78.2289 249.385 78.1388 249.716 78.0461C251.145 77.6479 252.541 77.2476 253.904 76.8453C296.026 64.4346 305.817 50.7819 330.716 44.4498C332.447 44.0101 334.234 43.61 336.074 43.2494C338.816 42.7173 341.67 42.2778 344.609 41.9478C348.303 45.4194 350.431 49.4818 350.431 53.8278ZM202.658 282.732C136.224 277.181 58.468 248.713 39.6509 189.528C39.1297 187.885 38.6505 186.213 38.2132 184.51C35.2031 172.417 34.2621 159.901 35.4301 147.493C36.8894 147.544 38.2993 148.034 39.4762 148.898C40.7563 149.79 42.3046 150.215 43.8609 150.101C46.8839 149.875 49.9094 148.37 52.8942 148.669C58.7354 149.247 62.1627 158.079 58.9375 164.247C63.308 159.967 70.2599 161.825 72.9498 167.156C75.6397 172.487 74.5239 179.968 71.2499 185.435C77.7761 181.899 85.5601 189.828 83.4512 197.861C88.8749 191.139 99.3625 192.514 102.416 200.356C102.424 200.332 102.432 200.306 102.437 200.28C103.594 196.616 107.937 196.158 109.192 199.538C110.647 203.508 111.512 207.67 111.76 211.892C113.457 206.094 118.878 201.868 123.871 202.45C128.863 203.031 132.827 208.351 132.732 214.334C142.987 210.448 154.01 221.569 152.203 233.98C160.566 237.266 167.995 242.553 173.839 249.379C176.385 252.317 178.507 257.771 175.454 260.57C180.948 265.552 188.064 267.579 194.061 271.737C197.987 274.432 200.989 278.271 202.658 282.732Z" fill="#CAD4EF"/>
<path d="M168.335 58.5359C151.2 54.8458 133.053 47.7503 124.617 32.3854C121.588 26.8676 120.06 20.125 122.287 14.2374C125.277 6.33119 134.09 2.15526 142.454 0.938637C152.922 -0.55597 163.595 1.31477 172.931 6.28078C185.631 13.0789 195.814 25.5573 210.078 27.5678C220.989 29.1042 231.583 24.059 242.092 20.7478C252.602 17.4366 265.458 16.3213 273.361 24.0025C275.249 25.8389 275.565 28.2803 275.747 29.2769C277.289 37.6797 268.965 45.3904 265.956 48.1791C261.847 51.9848 252.307 59.1755 222.447 61.5838C206.378 62.8783 189.994 63.2002 168.335 58.5359Z" fill="#E6EDFA"/>
<path d="M102.645 124.049H2.38124C0.675815 121.091 -0.0240743 117.659 0.386635 114.27C0.797344 110.88 2.29649 107.715 4.65902 105.25C7.02155 102.785 10.12 101.152 13.4892 100.598C16.8583 100.043 20.3165 100.597 23.3444 102.175C23.6238 98.6547 24.6681 95.2379 26.4042 92.1629C28.1404 89.0879 30.5266 86.4288 33.3964 84.3712C36.2663 82.3135 39.5505 80.9069 43.02 80.2495C46.4895 79.5921 50.0607 79.6997 53.4844 80.5648C56.908 81.4299 60.1016 83.0316 62.8424 85.2583C65.5831 87.485 67.805 90.2829 69.3529 93.4568C70.9008 96.6307 71.7374 100.104 71.8045 103.635C71.8715 107.165 71.1673 110.668 69.741 113.898C80.6961 117.374 91.4405 121.626 102.645 124.049ZM334.321 25.429H388.277C389.194 23.8371 389.57 21.9905 389.349 20.1665C389.128 18.3425 388.322 16.6394 387.05 15.3128C385.779 13.9863 384.112 13.1078 382.299 12.8094C380.486 12.5109 378.625 12.8084 376.995 13.6574C376.845 11.7634 376.282 9.925 375.348 8.27061C374.414 6.61621 373.129 5.18561 371.585 4.07863C370.041 2.97166 368.274 2.21495 366.407 1.86132C364.54 1.50768 362.619 1.56564 360.776 2.03114C358.934 2.49663 357.216 3.35845 355.741 4.55648C354.266 5.75452 353.071 7.25989 352.238 8.96759C351.405 10.6753 350.954 12.5442 350.918 14.4439C350.882 16.3436 351.26 18.2283 352.027 19.9666C346.132 21.8366 340.351 24.1247 334.321 25.429ZM328.053 110.815H464.85C467.177 106.779 468.131 102.098 467.571 97.4731C467.01 92.8487 464.965 88.5308 461.741 85.1677C458.518 81.8045 454.291 79.5776 449.695 78.8211C445.098 78.0647 440.38 78.8195 436.249 80.9723C435.869 76.1689 434.444 71.5064 432.076 67.3103C429.707 63.1141 426.452 59.4854 422.536 56.6774C418.62 53.8694 414.139 51.9498 409.405 51.0526C404.67 50.1554 399.797 50.3021 395.126 51.4826C390.454 52.6631 386.097 54.8489 382.357 57.8875C378.617 60.926 375.586 64.744 373.474 69.0751C371.362 73.4062 370.221 78.146 370.13 82.9636C370.04 87.7812 371.001 92.5606 372.948 96.9682C357.999 101.708 343.338 107.509 328.053 110.815Z" fill="#D8DFF3"/>
<path d="M310.011 120.57L327.398 126.497C329.813 127.32 332.04 128.613 333.952 130.302C335.864 131.991 337.423 134.041 338.538 136.336C339.653 138.63 340.302 141.123 340.448 143.67C340.594 146.216 340.235 148.767 339.39 151.174L314.64 221.668C270.667 185.504 252.218 147.754 263.006 130.984C271.238 118.188 295.649 118.913 310.011 120.57Z" fill="#77BBCB"/>
<path d="M309.549 140.152V270.691C299.057 273.954 288.394 276.636 277.608 278.727C263.885 281.415 249.975 283.04 236.001 283.585C224.881 283.967 213.747 283.681 202.66 282.73C186.866 281.412 171.198 278.878 155.793 275.152C149.122 273.527 142.501 271.663 135.988 269.56C135.642 269.443 135.29 269.331 134.939 269.214C128.344 267.05 121.861 264.631 115.577 261.947C115.205 261.789 114.838 261.631 114.467 261.468C112.74 260.725 111.031 259.959 109.338 259.171C108.804 258.922 108.269 258.672 107.739 258.413C106.023 257.603 104.326 256.768 102.647 255.907V113.304C102.647 110.093 103.923 107.013 106.194 104.742C108.465 102.471 111.545 101.195 114.757 101.194H170.287C172.067 101.194 173.826 101.586 175.438 102.343C177.049 103.1 178.474 104.203 179.611 105.574L194.609 123.657C195.746 125.028 197.171 126.131 198.782 126.888C200.394 127.645 202.153 128.037 203.933 128.037H297.438C299.029 128.037 300.605 128.35 302.074 128.959C303.544 129.567 304.88 130.46 306.004 131.585C307.129 132.71 308.021 134.046 308.629 135.516C309.237 136.986 309.55 138.561 309.549 140.152Z" fill="#4863C9"/>
<path d="M294.85 72.7478L319.086 80.953C327.528 121.458 310.011 120.57 310.011 120.57L309.858 126.815C309.964 128.687 309.669 130.559 308.99 132.306C308.312 134.054 307.267 135.635 305.926 136.944C304.584 138.254 302.978 139.26 301.215 139.896C299.452 140.532 297.573 140.782 295.704 140.63C293.988 140.49 292.316 140.014 290.784 139.229C289.252 138.443 287.89 137.363 286.775 136.051C285.66 134.739 284.814 133.22 284.287 131.581C283.759 129.942 283.559 128.215 283.699 126.499L286.395 99.6097L281.703 99.2282C279.816 99.0746 278.067 98.1777 276.841 96.7348C275.616 95.292 275.013 93.4213 275.166 91.5343C275.188 91.276 275.22 91.0191 275.265 90.7638C275.457 89.6605 275.864 88.6058 276.464 87.6599C277.063 86.7141 277.843 85.8955 278.759 85.251C279.675 84.6066 280.708 84.1488 281.801 83.9039C282.894 83.659 284.024 83.6317 285.128 83.8236L287.579 84.2494L294.85 72.7478Z" fill="#FFC1C2"/>
<path d="M326.9 72.318C326.572 69.5318 324.177 67.1423 320.959 66.0169C321.21 65.2102 323.854 56.2391 318.562 50.487C315.635 47.3042 311.743 46.6971 309.797 46.3931C297.588 44.4879 286.905 54.7801 284.772 56.8329C281.944 59.5574 282.693 59.7021 275.84 67.4668C274.27 69.1459 272.958 71.0487 271.946 73.1129C271.026 75.1539 270.38 77.3075 270.023 79.5179C269.24 84.7266 274.166 96.8327 285.204 109.48L286.035 99.2624L281.502 98.8937H281.495C279.898 98.7808 278.391 98.1091 277.24 96.9963C276.089 95.8836 275.366 94.4009 275.199 92.8085C275.14 92.1114 275.171 91.4096 275.292 90.7205C275.477 89.6554 275.871 88.6373 276.45 87.7243C277.028 86.8113 277.782 86.0212 278.666 85.3993C279.55 84.7775 280.549 84.3359 281.604 84.0999C282.659 83.8639 283.75 83.838 284.815 84.0238C285.485 84.1399 286.095 84.4816 286.543 84.9921C286.992 85.5026 287.253 86.1512 287.282 86.8303L287.453 90.7842C287.461 90.9606 287.53 91.1289 287.647 91.2608C287.765 91.3928 287.924 91.4803 288.098 91.5089C288.267 91.5309 288.439 91.4983 288.588 91.4158C288.737 91.3334 288.856 91.2054 288.927 91.0506L293.447 81.8426C293.471 81.7917 293.498 81.7454 293.524 81.698C293.672 81.4441 293.868 81.2218 294.101 81.0437C294.334 80.8657 294.601 80.7354 294.884 80.6604C295.168 80.5853 295.464 80.5669 295.755 80.6063C296.046 80.6457 296.326 80.742 296.58 80.8898C300.34 83.0761 311.094 85.2623 317.966 83.0516C320.515 82.1896 322.76 80.6084 324.431 78.4988C325.514 77.1391 327.216 74.9982 326.9 72.318Z" fill="#32477B"/>
<path d="M337.478 94.4733C337.472 95.7639 337.897 97.0196 338.687 98.0404C339.477 99.0611 340.586 99.7883 341.837 100.106L385.013 111.193C386.429 111.555 387.885 111.739 389.346 111.741H389.486C391.927 111.715 394.335 111.172 396.551 110.146C398.767 109.121 400.74 107.638 402.34 105.794C403.94 103.95 405.131 101.787 405.833 99.449C406.536 97.1109 406.734 94.6502 406.416 92.2297C406.097 89.8091 405.269 87.4837 403.985 85.407C402.701 83.3304 400.991 81.5497 398.968 80.1826C396.946 78.8155 394.656 77.8931 392.25 77.4764C389.845 77.0596 387.378 77.158 385.013 77.765L341.837 88.8526C340.591 89.1761 339.488 89.903 338.7 90.9197C337.911 91.9364 337.481 93.1856 337.478 94.4723V94.4733Z" fill="#77BBCB"/>
<path d="M338.408 97.647C339.206 98.8645 340.428 99.7413 341.837 100.106L385.013 111.193C386.429 111.555 387.885 111.739 389.346 111.741H389.486L398.649 96.1803L338.421 97.62L338.408 97.647Z" fill="#589FAD"/>
<path d="M389.176 111.749C398.65 111.749 406.329 104.069 406.329 94.596C406.329 85.1228 398.65 77.4431 389.176 77.4431C379.703 77.4431 372.024 85.1228 372.024 94.596C372.024 104.069 379.703 111.749 389.176 111.749Z" fill="#9BCFDC"/>
<path d="M389.176 108.677C396.953 108.677 403.257 102.373 403.257 94.596C403.257 86.8193 396.953 80.515 389.176 80.515C381.4 80.515 375.095 86.8193 375.095 94.596C375.095 102.373 381.4 108.677 389.176 108.677Z" fill="#32477B"/>
<path d="M398.512 100.623C398.686 100.623 398.858 100.575 399.007 100.484C399.156 100.394 399.278 100.264 399.358 100.109C400.729 97.4927 401.059 94.4548 400.283 91.605C399.507 88.7552 397.682 86.3041 395.174 84.7434C395.068 84.6746 394.949 84.6278 394.824 84.6054C394.7 84.5831 394.572 84.5859 394.448 84.6134C394.325 84.641 394.208 84.6929 394.104 84.7662C394.001 84.8394 393.913 84.9324 393.846 85.0399C393.779 85.1473 393.734 85.2671 393.714 85.3921C393.693 85.5171 393.698 85.6449 393.728 85.7681C393.757 85.8913 393.811 86.0073 393.886 86.1095C393.961 86.2117 394.055 86.298 394.164 86.3633C396.263 87.6692 397.791 89.721 398.441 92.1067C399.09 94.4925 398.813 97.0356 397.666 99.2257C397.59 99.3712 397.553 99.5338 397.558 99.6978C397.563 99.8618 397.611 100.022 397.696 100.162C397.781 100.302 397.9 100.419 398.043 100.499C398.186 100.58 398.348 100.622 398.512 100.623ZM392.23 105.81C392.254 105.81 392.281 105.81 392.303 105.81C393.264 105.725 394.197 105.437 395.038 104.965C395.88 104.494 396.612 103.849 397.186 103.073C397.257 102.97 397.306 102.853 397.332 102.73C397.357 102.607 397.358 102.481 397.335 102.358C397.311 102.234 397.264 102.117 397.195 102.012C397.127 101.907 397.038 101.817 396.934 101.746C396.83 101.676 396.714 101.626 396.591 101.601C396.468 101.575 396.342 101.574 396.219 101.597C396.095 101.621 395.978 101.668 395.873 101.737C395.768 101.806 395.678 101.894 395.607 101.998C395.197 102.539 394.679 102.988 394.085 103.316C393.491 103.645 392.835 103.846 392.16 103.906C391.914 103.926 391.686 104.04 391.522 104.223C391.359 104.407 391.272 104.647 391.281 104.893C391.291 105.139 391.394 105.372 391.571 105.544C391.748 105.715 391.984 105.811 392.23 105.813L392.23 105.81Z" fill="white"/>
<path d="M294.149 94.4733C294.142 95.7639 294.568 97.0196 295.358 98.0404C296.148 99.0611 297.256 99.7883 298.507 100.106L341.684 111.193C343.1 111.555 344.555 111.739 346.017 111.741H346.157C348.598 111.715 351.006 111.172 353.222 110.146C355.438 109.121 357.411 107.638 359.011 105.794C360.611 103.95 361.802 101.787 362.504 99.449C363.207 97.1109 363.405 94.6502 363.087 92.2297C362.768 89.8091 361.939 87.4837 360.656 85.407C359.372 83.3304 357.662 81.5497 355.639 80.1826C353.616 78.8155 351.327 77.8931 348.921 77.4764C346.515 77.0596 344.049 77.158 341.684 77.765L298.507 88.8526C297.262 89.1761 296.159 89.903 295.37 90.9197C294.582 91.9364 294.152 93.1856 294.149 94.4723V94.4733Z" fill="#77BBCB"/>
<path d="M295.079 97.647C295.876 98.8645 297.099 99.7413 298.507 100.106L341.684 111.193C343.1 111.555 344.555 111.739 346.017 111.741H346.157L355.32 96.1803L295.092 97.62L295.079 97.647Z" fill="#589FAD"/>
<path d="M345.847 111.749C355.32 111.749 363 104.069 363 94.596C363 85.1228 355.32 77.4431 345.847 77.4431C336.374 77.4431 328.694 85.1228 328.694 94.596C328.694 104.069 336.374 111.749 345.847 111.749Z" fill="#9BCFDC"/>
<path d="M345.847 108.677C353.624 108.677 359.928 102.373 359.928 94.596C359.928 86.8193 353.624 80.515 345.847 80.515C338.07 80.515 331.766 86.8193 331.766 94.596C331.766 102.373 338.07 108.677 345.847 108.677Z" fill="#32477B"/>
<path d="M355.182 100.623C355.357 100.623 355.528 100.575 355.678 100.484C355.827 100.394 355.948 100.264 356.029 100.109C357.399 97.4927 357.729 94.4548 356.953 91.605C356.177 88.7552 354.353 86.3041 351.845 84.7434C351.739 84.6746 351.62 84.6278 351.495 84.6054C351.37 84.5831 351.242 84.5859 351.119 84.6134C350.995 84.641 350.878 84.6929 350.775 84.7662C350.672 84.8394 350.584 84.9324 350.517 85.0399C350.45 85.1473 350.405 85.2671 350.384 85.3921C350.364 85.5171 350.369 85.6449 350.398 85.7681C350.428 85.8913 350.482 86.0073 350.556 86.1095C350.631 86.2117 350.726 86.298 350.834 86.3633C352.934 87.6692 354.462 89.721 355.111 92.1067C355.761 94.4925 355.484 97.0356 354.336 99.2257C354.261 99.3712 354.223 99.5338 354.229 99.6978C354.234 99.8618 354.281 100.022 354.366 100.162C354.451 100.302 354.571 100.419 354.714 100.499C354.857 100.58 355.018 100.622 355.182 100.623ZM348.901 105.81C348.925 105.81 348.952 105.81 348.974 105.81C349.935 105.725 350.867 105.437 351.709 104.965C352.551 104.494 353.283 103.849 353.857 103.073C353.999 102.864 354.053 102.606 354.006 102.358C353.958 102.109 353.814 101.889 353.605 101.746C353.395 101.604 353.138 101.55 352.889 101.597C352.64 101.645 352.421 101.789 352.278 101.998C351.868 102.539 351.349 102.988 350.756 103.316C350.162 103.645 349.506 103.846 348.83 103.906C348.585 103.926 348.357 104.04 348.193 104.223C348.029 104.407 347.943 104.647 347.952 104.893C347.961 105.139 348.065 105.372 348.242 105.544C348.418 105.715 348.654 105.811 348.901 105.813L348.901 105.81Z" fill="white"/>
<path d="M302.633 101.581L295.828 116.489L274.293 115.962C274.293 115.962 288.175 81.7097 310.374 85.8092C310.374 85.8092 299.47 91.0801 302.633 101.581Z" fill="#FFC1C2"/>
<path d="M302.633 101.581L295.828 116.489L274.293 115.962L288.324 113.969C290.4 113.674 292.369 112.867 294.055 111.621C295.74 110.375 297.089 108.729 297.98 106.831C299.31 103.93 300.137 100.823 300.424 97.6444C301.413 87.7052 310.373 85.8092 310.373 85.8092C310.373 85.8092 299.47 91.0801 302.633 101.581ZM279.091 92.6257C279.084 92.6018 278.496 90.1756 279.745 88.8134C280.575 87.9089 282.074 87.6238 284.204 87.9644L284.414 86.6531C281.812 86.2381 279.91 86.6643 278.761 87.9222C277.03 89.8192 277.771 92.8248 277.804 92.9521L279.091 92.6257ZM309.862 126.896C304.742 126.046 300.585 123.44 297.176 119.526C301.063 121.183 310.009 120.57 310.009 120.57L309.862 126.896ZM311.402 111.322L311.734 110.173C308.791 109.32 305.761 108.8 302.702 108.621L302.632 109.815C305.602 109.988 308.544 110.493 311.402 111.322Z" fill="#ED9C9C"/>
<path d="M284.462 99.8012L283.455 99.022C291.796 88.241 301.144 83.4545 310.49 85.1834L310.258 86.4351C299.079 84.3696 290.062 92.5636 284.462 99.8012Z" fill="#ED9C9C"/>
<path d="M314.641 140.152V269.056C312.95 269.616 311.253 270.161 309.549 270.691C299.057 273.954 288.394 276.636 277.608 278.727C263.885 281.415 249.975 283.04 236.001 283.585C224.881 283.967 213.747 283.681 202.66 282.73C186.866 281.412 171.198 278.878 155.793 275.152C149.122 273.527 142.501 271.663 135.988 269.56C135.642 269.443 135.29 269.331 134.939 269.214C128.344 267.05 121.861 264.631 115.577 261.947C115.205 261.789 114.838 261.631 114.467 261.468C112.74 260.725 111.031 259.959 109.338 259.171C108.804 258.922 108.269 258.672 107.739 258.413V113.304C107.74 110.093 109.016 107.013 111.287 104.742C113.558 102.471 116.638 101.195 119.85 101.194H175.379C177.16 101.194 178.919 101.586 180.53 102.343C182.142 103.1 183.567 104.203 184.704 105.574L199.701 123.657C200.838 125.028 202.263 126.131 203.875 126.888C205.487 127.645 207.245 128.037 209.026 128.037H302.531C305.743 128.04 308.822 129.317 311.093 131.589C313.364 133.86 314.64 136.94 314.641 140.152Z" fill="#687ED4"/>
<path d="M288.125 145.716H225.922C222.667 145.716 220.029 148.354 220.029 151.609V157.174C220.029 160.429 222.667 163.067 225.922 163.067H288.125C291.379 163.067 294.017 160.429 294.017 157.174V151.609C294.017 148.354 291.379 145.716 288.125 145.716Z" fill="#4863C9"/>
<path d="M196.294 248.35H134.091C130.837 248.35 128.199 250.988 128.199 254.243V259.808C128.199 263.063 130.837 265.701 134.091 265.701H196.294C199.549 265.701 202.187 263.063 202.187 259.808V254.243C202.187 250.988 199.549 248.35 196.294 248.35Z" fill="#4863C9"/>
<path d="M117.122 120.835H182.926" stroke="white" stroke-width="5.09259" stroke-linecap="round" stroke-linejoin="round"/>
<path d="M211.19 128.038L276.748 107.175L298.284 116.954L280.075 128.038H211.19Z" fill="#77BBCB"/>
<path d="M309.424 163.165C309.424 163.165 274.803 174.005 309.459 173.495C309.459 173.495 274.019 179.395 309.486 181.513C309.486 181.513 275.232 186.941 309.513 189.601C309.513 189.601 275.729 195.509 309.539 197.009L311.067 196.976C312.601 196.944 314.092 196.463 315.354 195.591C316.617 194.72 317.596 193.496 318.17 192.073C321.284 184.452 321.463 175.947 318.673 168.201C318.096 166.618 317.024 165.265 315.615 164.342C314.206 163.419 312.536 162.977 310.855 163.081L309.424 163.165Z" fill="#FFC1C2"/>
<path d="M298.284 116.954L211.19 128.038H280.075L298.284 116.954Z" fill="#589FAD"/>
<path d="M294.178 171.503L309.459 173.495C309.459 173.495 295.315 176.093 294.178 171.503ZM293.736 178.357L309.486 181.514C309.486 181.514 294.427 184.889 293.736 178.357ZM294.281 186.226L309.513 189.601C309.513 189.601 293.38 191.564 294.281 186.226ZM294.507 194.422L314.278 196.212C314.278 196.212 295.807 201.714 294.507 194.422Z" fill="#ED9C9C"/>
</svg>
