<svg width="128" height="128" viewBox="0 0 128 128" fill="none" xmlns="http://www.w3.org/2000/svg">
<g clip-path="url(#clip0_450_838)">
<path d="M64 128C28.7 128 0 99.3 0 64C0 28.7 28.7 0 64 0C99.3 0 128 28.7 128 64C128 99.3 99.3 128 64 128Z" fill="white"/>
<path d="M65.1999 87.2V109.9L93.3 70.4L65.1999 87.2ZM92.3 63.1L65.1999 18.1V50.8L92.3 63.1ZM65.1999 53.3V81.3L92.0999 65.6L65.1999 53.3ZM35.7999 63.1L62.7999 18.1V50.8L35.7999 63.1ZM62.7999 53.3V81.3L35.9 65.6L62.7999 53.3ZM62.7999 87.2V109.9L34.7 70.4L62.7999 87.2Z" fill="#3482C3"/>
</g>
<defs>
<clipPath id="clip0_450_838">
<rect width="128" height="128" fill="white"/>
</clipPath>
</defs>
</svg>
