<svg width="18" height="18" viewBox="0 0 18 18" fill="none" xmlns="http://www.w3.org/2000/svg">
<g clip-path="url(#clip0_152_84)">
<path d="M9 3.63513C5.56091 3.63513 2.44216 5.51669 0.140841 8.57284C-0.0469469 8.82323 -0.0469469 9.17303 0.140841 9.42341C2.44216 12.4832 5.56091 14.3648 9 14.3648C12.4391 14.3648 15.5578 12.4832 17.8592 9.42709C18.0469 9.17671 18.0469 8.82691 17.8592 8.57653C15.5578 5.51669 12.4391 3.63513 9 3.63513ZM9.2467 12.7778C6.96379 12.9214 5.07855 11.0399 5.22215 8.75327C5.33998 6.86803 6.86806 5.33995 8.7533 5.22212C11.0362 5.07852 12.9214 6.96008 12.7778 9.24667C12.6563 11.1282 11.1283 12.6563 9.2467 12.7778ZM9.13256 11.0325C7.90273 11.1098 6.88647 10.0972 6.96747 8.86741C7.03007 7.85115 7.85486 7.03004 8.87113 6.96376C10.101 6.88644 11.1172 7.89902 11.0362 9.12884C10.9699 10.1488 10.1451 10.9699 9.13256 11.0325Z" fill="#CFDADD"/>
</g>
<defs>
<clipPath id="clip0_152_84">
<rect width="18" height="18" fill="white"/>
</clipPath>
</defs>
</svg>
