<svg width="24" height="24" viewBox="0 0 24 24" fill="none" xmlns="http://www.w3.org/2000/svg">
<path d="M22.2252 1.77358C22.0002 1.54862 21.695 1.42224 21.3768 1.42224C21.0586 1.42224 20.7534 1.54862 20.5284 1.77358L1.776 20.5284C1.66139 20.6391 1.56997 20.7715 1.50708 20.9179C1.44419 21.0643 1.41108 21.2218 1.4097 21.3811C1.40831 21.5404 1.43868 21.6985 1.49901 21.8459C1.55935 21.9934 1.64845 22.1274 1.76113 22.2401C1.8738 22.3527 2.00778 22.4418 2.15526 22.5022C2.30273 22.5625 2.46075 22.5929 2.62008 22.5915C2.77942 22.5901 2.93688 22.557 3.08329 22.4941C3.22969 22.4312 3.3621 22.3398 3.4728 22.2252L22.224 3.47038C22.449 3.24535 22.5753 2.94018 22.5753 2.62198C22.5753 2.30379 22.449 1.99862 22.224 1.77358H22.2252ZM3.7296 16.1976L6.8016 13.1256C6.71401 12.7567 6.66852 12.3791 6.666 12C6.666 9.14518 9.054 6.82918 12 6.82918C12.3432 6.82918 12.6768 6.86758 13.002 6.92758L14.4456 5.48518C13.6372 5.35127 12.8194 5.28304 12 5.28118C4.128 5.27998 0 11.0772 0 12C0 12.5076 1.2684 14.508 3.7296 16.1964V16.1976ZM20.274 7.80598L17.1996 10.878C17.2824 11.2404 17.3328 11.6136 17.3328 12C17.3328 14.8548 14.946 17.1684 12 17.1684C11.6592 17.1684 11.328 17.13 11.0052 17.0712L9.5604 18.5148C10.3308 18.6396 11.1396 18.7188 12 18.7188C19.872 18.7188 24 12.9192 24 12C24 11.4912 22.7328 9.49198 20.274 7.80598Z" fill="#F5F5F7"/>
</svg>
