<svg width="1792" height="1792" viewBox="0 0 1792 1792" fill="none" xmlns="http://www.w3.org/2000/svg">
<path d="M1376 128C1455.33 128 1523.17 156.167 1579.5 212.5C1635.83 268.833 1664 336.667 1664 416V1376C1664 1455.33 1635.83 1523.17 1579.5 1579.5C1523.17 1635.83 1455.33 1664 1376 1664H1188V1069H1387L1417 837H1188V689C1188 651.667 1195.83 623.667 1211.5 605C1227.17 586.333 1257.67 577 1303 577L1425 576V369C1383 363 1323.67 360 1247 360C1156.33 360 1083.83 386.667 1029.5 440C975.167 493.333 948 568.667 948 666V837H748V1069H948V1664H416C336.667 1664 268.833 1635.83 212.5 1579.5C156.167 1523.17 128 1455.33 128 1376V416C128 336.667 156.167 268.833 212.5 212.5C268.833 156.167 336.667 128 416 128H1376Z" fill="white"/>
</svg>
