<svg width="256" height="256" viewBox="0 0 256 256" fill="none" xmlns="http://www.w3.org/2000/svg">
<g clip-path="url(#clip0_66_18)">
<mask id="mask0_66_18" style="mask-type:luminance" maskUnits="userSpaceOnUse" x="0" y="0" width="256" height="256">
<path d="M256 0H0V256H256V0Z" fill="white"/>
</mask>
<g mask="url(#mask0_66_18)">
<path d="M224.75 128C224.75 132.875 224.425 137.75 223.775 142.6C223.925 141.5 224.075 140.375 224.225 139.275C222.925 148.875 220.375 158.275 216.6 167.2C217.025 166.2 217.45 165.2 217.85 164.225C214.2 172.85 209.45 180.95 203.75 188.375C204.4 187.525 205.05 186.7 205.7 185.85C199.95 193.3 193.25 199.975 185.825 205.725C186.675 205.075 187.5 204.425 188.35 203.775C180.925 209.475 172.825 214.225 164.2 217.875C165.2 217.45 166.2 217.025 167.175 216.625C158.25 220.375 148.85 222.95 139.25 224.25C140.35 224.1 141.475 223.95 142.575 223.8C132.9 225.075 123.075 225.075 113.375 223.8C114.475 223.95 115.6 224.1 116.7 224.25C107.1 222.95 97.7 220.4 88.775 216.625C89.775 217.05 90.775 217.475 91.75 217.875C83.125 214.225 75.025 209.475 67.6 203.775C68.45 204.425 69.275 205.075 70.125 205.725C62.675 199.975 56 193.275 50.25 185.85C50.9 186.7 51.55 187.525 52.2 188.375C46.5 180.95 41.75 172.85 38.1 164.225C38.525 165.225 38.95 166.225 39.35 167.2C35.6 158.275 33.025 148.875 31.725 139.275C31.875 140.375 32.025 141.5 32.175 142.6C30.9 132.925 30.9 123.1 32.175 113.4C32.025 114.5 31.875 115.625 31.725 116.725C33.025 107.125 35.575 97.725 39.35 88.8C38.925 89.8 38.5 90.8 38.1 91.775C41.75 83.15 46.5 75.05 52.2 67.625C51.55 68.475 50.9 69.3 50.25 70.15C56 62.7 62.7 56.025 70.125 50.275C69.275 50.925 68.45 51.575 67.6 52.225C75.025 46.525 83.125 41.775 91.75 38.125C90.75 38.55 89.75 38.975 88.775 39.375C97.7 35.625 107.1 33.05 116.7 31.75C115.6 31.9 114.475 32.05 113.375 32.2C123.05 30.925 132.875 30.925 142.575 32.2C141.475 32.05 140.35 31.9 139.25 31.75C148.85 33.05 158.25 35.6 167.175 39.375C166.175 38.95 165.175 38.525 164.2 38.125C172.825 41.775 180.925 46.525 188.35 52.225C187.5 51.575 186.675 50.925 185.825 50.275C193.275 56.025 199.95 62.725 205.7 70.15C205.05 69.3 204.4 68.475 203.75 67.625C209.45 75.05 214.2 83.15 217.85 91.775C217.425 90.775 217 89.775 216.6 88.8C220.35 97.725 222.925 107.125 224.225 116.725C224.075 115.625 223.925 114.5 223.775 113.4C224.425 118.25 224.75 123.125 224.75 128C224.75 131.2 226.15 134.575 228.4 136.85C230.575 139.025 234.125 140.65 237.25 140.5C240.475 140.35 243.825 139.3 246.1 136.85C248.35 134.4 249.775 131.4 249.75 128C249.725 115.5 247.85 102.8 243.975 90.9C240.225 79.35 234.85 68.2 227.775 58.3C224.025 53.025 219.95 47.95 215.45 43.3C210.925 38.625 206 34.5 200.825 30.55C191.175 23.15 180.4 17.575 169.025 13.375C157.325 9.07501 144.8 6.82501 132.375 6.32501C119.775 5.82501 106.875 7.37501 94.75 10.825C83.125 14.125 71.775 19.225 61.675 25.875C51.675 32.45 42.45 40.425 34.825 49.65C30.675 54.7 26.75 59.975 23.4 65.575C20.025 71.2 17.3 77.125 14.8 83.2C10.075 94.725 7.50001 107 6.55001 119.4C5.57501 131.975 6.77501 144.875 9.72501 157.125C12.6 168.95 17.4 180.525 23.725 190.925C29.925 201.125 37.7 210.625 46.625 218.55C55.625 226.525 65.7 233.4 76.675 238.35C82.675 241.075 88.85 243.475 95.2 245.25C101.7 247.075 108.35 248.175 115.05 248.95C127.725 250.45 140.625 249.6 153.1 247.075C165.025 244.65 176.7 240.175 187.325 234.25C197.75 228.425 207.475 220.925 215.725 212.275C224.05 203.575 231.25 193.575 236.6 182.8C242.075 171.8 246.1 160.05 247.95 147.9C248.95 141.275 249.65 134.65 249.65 127.95C249.65 124.75 248.25 121.375 246 119.1C243.825 116.925 240.275 115.3 237.15 115.45C233.925 115.6 230.575 116.65 228.3 119.1C226.175 121.6 224.75 124.6 224.75 128Z" fill="white"/>
<path d="M128 205.1C131.2 205.1 134.575 203.7 136.85 201.45C139.025 199.275 140.65 195.725 140.5 192.6C140.35 189.375 139.3 186.025 136.85 183.75C134.4 181.5 131.4 180.1 128 180.1C124.8 180.1 121.425 181.5 119.15 183.75C116.975 185.925 115.35 189.475 115.5 192.6C115.65 195.825 116.7 199.175 119.15 201.45C121.6 203.7 124.625 205.1 128 205.1ZM103.75 100.125C103.75 98.5 103.85 96.9 104.075 95.275C103.925 96.375 103.775 97.5 103.625 98.6C104.075 95.375 104.925 92.225 106.175 89.225C105.75 90.225 105.325 91.225 104.925 92.2C106.175 89.275 107.775 86.525 109.7 84C109.05 84.85 108.4 85.675 107.75 86.525C109.7 84.025 111.925 81.8 114.425 79.85C113.575 80.5 112.75 81.15 111.9 81.8C114.425 79.875 117.175 78.275 120.1 77.025C119.1 77.45 118.1 77.875 117.125 78.275C120.125 77.025 123.275 76.175 126.5 75.725C125.4 75.875 124.275 76.025 123.175 76.175C126.4 75.775 129.65 75.775 132.875 76.175C131.775 76.025 130.65 75.875 129.55 75.725C132.775 76.175 135.925 77 138.95 78.25C137.95 77.825 136.95 77.4 135.975 77C138.9 78.25 141.65 79.85 144.175 81.775C143.325 81.125 142.5 80.475 141.65 79.825C144.15 81.775 146.375 84 148.325 86.5C147.675 85.65 147.025 84.825 146.375 83.975C148.3 86.5 149.9 89.25 151.15 92.175C150.725 91.175 150.3 90.175 149.9 89.2C151.15 92.225 152 95.35 152.425 98.6C152.275 97.5 152.125 96.375 151.975 95.275C152.375 98.5 152.375 101.75 151.975 104.95C152.125 103.85 152.275 102.725 152.425 101.625C151.975 104.85 151.125 108 149.875 111.025C150.3 110.025 150.725 109.025 151.125 108.05C149.875 110.975 148.275 113.725 146.325 116.275C146.975 115.425 147.625 114.6 148.275 113.75C146.325 116.25 144.1 118.475 141.6 120.425C142.45 119.775 143.275 119.125 144.125 118.475C141.625 120.375 138.925 121.925 136.075 123.2C132.425 124.825 129 127.375 126.175 130.175C119.625 136.7 115.975 145.475 115.55 154.675C115.475 156.5 115.525 158.325 115.525 160.15C115.525 163.35 116.925 166.725 119.175 169C121.35 171.175 124.9 172.8 128.025 172.65C131.25 172.5 134.6 171.45 136.875 169C139.125 166.55 140.525 163.55 140.525 160.15C140.525 157.6 140.425 155.05 140.75 152.525C140.6 153.625 140.45 154.75 140.3 155.85C140.6 153.85 141.125 151.925 141.9 150.05C141.475 151.05 141.05 152.05 140.65 153.025C141.475 151.075 142.55 149.275 143.85 147.575C143.2 148.425 142.55 149.25 141.9 150.1C143.15 148.525 144.575 147.125 146.15 145.875C145.3 146.525 144.475 147.175 143.625 147.825C146.05 145.975 148.775 144.9 151.45 143.5C154.775 141.75 157.825 139.45 160.675 137.025C165.7 132.75 169.95 127.075 172.6 121.025C174.15 117.475 175.55 113.95 176.25 110.125C176.95 106.275 177.45 102.325 177.25 98.4C176.9 90.8 174.975 83.65 171.475 76.925C165.25 64.975 153.5 55.825 140.5 52.475C132.975 50.55 125.4 50.525 117.8 51.975C114.175 52.65 110.85 54 107.45 55.45C104.925 56.525 102.525 57.85 100.3 59.45C93.95 64 88.425 69.65 84.725 76.625C80.875 83.875 78.775 91.9 78.75 100.15C78.725 103.35 80.15 106.725 82.4 109C84.575 111.175 88.125 112.8 91.25 112.65C98.05 112.325 103.725 107.15 103.75 100.125Z" fill="white"/>
</g>
</g>
<defs>
<clipPath id="clip0_66_18">
<rect width="256" height="256" fill="white"/>
</clipPath>
</defs>
</svg>
