<svg width="256" height="256" viewBox="0 0 256 256" fill="none" xmlns="http://www.w3.org/2000/svg">
<g clip-path="url(#clip0_444_732)">
<path d="M165.867 157.819H90.5724C86.4143 157.819 83.043 161.19 83.043 165.349V240.643C83.043 244.801 86.4143 248.172 90.5724 248.172H165.867C170.025 248.172 173.396 244.801 173.396 240.643V165.349C173.396 161.19 170.025 157.819 165.867 157.819ZM143.655 233.791H113.387C109.17 233.791 105.857 230.478 105.857 226.262C105.857 222.121 109.17 218.732 113.387 218.732H120.765V188.388C116.624 188.314 113.311 185.001 113.311 180.859C113.311 176.718 116.7 173.33 120.841 173.33H128.295C132.436 173.33 135.824 176.718 135.824 180.859V218.732H143.655C147.871 218.732 151.184 222.121 151.184 226.262C151.184 230.478 147.871 233.791 143.655 233.791ZM120.757 104.421V128.44C116.541 128.44 112.776 130.096 110.066 132.806C107.355 135.517 105.698 139.282 105.698 143.498H150.875C150.875 135.14 144.099 128.44 135.816 128.44V104.421C153.059 100.957 166.009 85.7475 166.009 67.5264V14.8205C166.009 10.6794 162.621 7.29114 158.48 7.29114H98.2444C94.1033 7.29114 90.715 10.6794 90.715 14.8205V67.5264C90.715 85.6725 103.59 100.882 120.757 104.421ZM68.0514 52.8439C68.0514 47.2722 71.1386 42.4533 75.6561 39.8936V23.7805C62.6304 27.0934 52.9925 38.8393 52.9925 52.8439C52.9925 68.5806 65.3408 81.6064 80.8514 82.7359C78.2912 77.5406 76.635 71.9689 76.0325 66.0204C71.2889 63.536 68.0514 58.5664 68.0514 52.8439ZM203.731 52.8439C203.731 38.8393 194.094 27.0935 181.068 23.7805V39.8181C185.585 42.3783 188.673 47.2722 188.673 52.8439C188.673 58.5663 185.435 63.5359 180.691 66.0957C180.014 71.9689 178.357 77.6159 175.873 82.7358C191.459 81.6817 203.731 68.656 203.731 52.8439ZM241.255 195.375H196.078C191.92 195.375 188.549 198.746 188.549 202.905V241.179C188.549 245.337 191.92 248.709 196.078 248.709H241.255C245.414 248.709 248.784 245.337 248.784 241.179V202.905C248.784 198.747 245.413 195.375 241.255 195.375ZM59.9217 180.316H14.7452C10.5867 180.316 7.21582 183.688 7.21582 187.846V241.179C7.21582 245.337 10.5867 248.709 14.7452 248.709H59.9217C64.0803 248.709 67.4511 245.337 67.4511 241.179V187.846C67.4511 183.688 64.0803 180.316 59.9217 180.316Z" fill="white"/>
</g>
<defs>
<clipPath id="clip0_444_732">
<rect width="256" height="256" fill="white"/>
</clipPath>
</defs>
</svg>
