<svg width="528" height="144" viewBox="0 0 528 144" fill="none" xmlns="http://www.w3.org/2000/svg">
<path d="M87.3899 99.03L15.4319 99L-5.34058e-05 72.036L15.4319 45.006L87.4199 45.006L97.7159 63.024L25.7579 63.024H25.7519L20.5799 72L25.698 81.042H97.6859L87.3899 99.03Z" fill="white"/>
<path d="M36.018 9.006H108.03L108.036 9L144 71.94L107.976 135H36.024L25.728 117.012L97.686 117.126L123.444 72.06L97.686 27.024L25.752 27.024L36.018 9.006Z" fill="white"/>
<path d="M507.926 107.136L497.846 89.76L494.006 87.456L475.478 60.192H494.774L504.662 77.088L508.31 79.2L527.126 107.136H507.926ZM474.518 107.136L493.814 79.392L503.318 89.664L492.374 107.136H474.518ZM507.734 87.456L498.23 77.184L508.31 60.192H526.166L507.734 87.456Z" fill="white"/>
<path d="M443.734 107.136V57.216C443.734 53.248 444.598 49.696 446.326 46.56C448.054 43.36 450.518 40.8 453.718 38.88C456.982 36.96 460.886 36 465.43 36C468.822 36 471.798 36.576 474.358 37.728C476.918 38.816 479.126 40.288 480.982 42.144L470.518 52.608C470.006 52.032 469.366 51.616 468.598 51.36C467.894 51.04 467.062 50.88 466.102 50.88C464.374 50.88 462.998 51.392 461.974 52.416C460.95 53.44 460.438 54.816 460.438 56.544V107.136H443.734ZM433.75 74.112V60.192H473.686V74.112H433.75Z" fill="white"/>
<path d="M395.505 107.136V60.192H412.209V107.136H395.505ZM412.209 81.6L404.721 75.264C406.577 69.952 409.041 65.952 412.113 63.264C415.185 60.576 419.185 59.232 424.113 59.232C426.353 59.232 428.273 59.52 429.873 60.096C431.537 60.672 432.945 61.568 434.097 62.784L424.401 75.744C423.889 75.168 423.153 74.72 422.193 74.4C421.297 74.016 420.273 73.824 419.121 73.824C416.945 73.824 415.249 74.496 414.033 75.84C412.817 77.12 412.209 79.04 412.209 81.6Z" fill="white"/>
<path d="M357.245 108.096C352.893 108.096 349.021 107.04 345.629 104.928C342.237 102.816 339.581 99.936 337.661 96.288C335.741 92.576 334.781 88.384 334.781 83.712C334.781 78.976 335.741 74.752 337.661 71.04C339.581 67.328 342.237 64.448 345.629 62.4C349.021 60.288 352.893 59.232 357.245 59.232C360.189 59.232 362.877 59.776 365.309 60.864C367.741 61.888 369.725 63.36 371.261 65.28C372.861 67.2 373.821 69.376 374.141 71.808V95.424C373.821 97.92 372.861 100.128 371.261 102.048C369.725 103.904 367.741 105.376 365.309 106.464C362.877 107.552 360.189 108.096 357.245 108.096ZM360.797 93.216C363.549 93.216 365.757 92.32 367.421 90.528C369.149 88.736 370.013 86.432 370.013 83.616C370.013 81.76 369.629 80.128 368.861 78.72C368.093 77.312 367.005 76.192 365.597 75.36C364.253 74.528 362.685 74.112 360.893 74.112C359.101 74.112 357.501 74.528 356.093 75.36C354.749 76.192 353.661 77.344 352.829 78.816C352.061 80.224 351.677 81.824 351.677 83.616C351.677 85.472 352.061 87.136 352.829 88.608C353.597 90.016 354.685 91.136 356.093 91.968C357.501 92.8 359.069 93.216 360.797 93.216ZM369.341 107.136V94.56L371.741 83.04L369.341 71.712V60.192H385.757V107.136H369.341Z" fill="white"/>
<path d="M311.13 107.136V37.152H327.834V107.136H311.13Z" fill="white"/>
<path d="M284.599 107.136V37.152H301.303V107.136H284.599Z" fill="white"/>
<path d="M251.86 108.192C246.804 108.192 242.292 107.136 238.324 105.024C234.42 102.848 231.316 99.904 229.012 96.192C226.708 92.416 225.556 88.192 225.556 83.52C225.556 78.848 226.676 74.688 228.916 71.04C231.22 67.328 234.356 64.416 238.324 62.304C242.292 60.128 246.772 59.04 251.764 59.04C256.756 59.04 261.204 60.128 265.108 62.304C269.076 64.416 272.212 67.328 274.516 71.04C276.82 74.688 277.972 78.848 277.972 83.52C277.972 88.192 276.82 92.416 274.516 96.192C272.276 99.904 269.172 102.848 265.204 105.024C261.3 107.136 256.852 108.192 251.86 108.192ZM251.764 93.312C253.62 93.312 255.22 92.928 256.564 92.16C257.972 91.328 259.06 90.176 259.828 88.704C260.596 87.232 260.98 85.536 260.98 83.616C260.98 81.696 260.564 80.032 259.732 78.624C258.964 77.152 257.908 76.032 256.564 75.264C255.22 74.432 253.62 74.016 251.764 74.016C249.972 74.016 248.372 74.432 246.964 75.264C245.556 76.096 244.468 77.248 243.7 78.72C242.932 80.128 242.548 81.792 242.548 83.712C242.548 85.568 242.932 87.232 243.7 88.704C244.468 90.176 245.556 91.328 246.964 92.16C248.372 92.928 249.972 93.312 251.764 93.312Z" fill="white"/>
<path d="M191.04 108.096C186.496 108.096 182.496 107.04 179.04 104.928C175.584 102.816 172.864 99.936 170.88 96.288C168.96 92.576 168 88.384 168 83.712C168 78.976 168.96 74.752 170.88 71.04C172.864 67.328 175.552 64.448 178.944 62.4C182.4 60.288 186.432 59.232 191.04 59.232C193.984 59.232 196.736 59.776 199.296 60.864C201.856 61.888 204 63.36 205.728 65.28C207.456 67.2 208.48 69.376 208.8 71.808V94.752C208.48 97.184 207.456 99.424 205.728 101.472C204 103.52 201.856 105.152 199.296 106.368C196.736 107.52 193.984 108.096 191.04 108.096ZM194.016 93.216C195.872 93.216 197.472 92.832 198.816 92.064C200.16 91.232 201.216 90.112 201.984 88.704C202.816 87.232 203.232 85.536 203.232 83.616C203.232 81.76 202.848 80.128 202.08 78.72C201.312 77.312 200.224 76.192 198.816 75.36C197.472 74.528 195.904 74.112 194.112 74.112C192.32 74.112 190.72 74.528 189.312 75.36C187.968 76.192 186.88 77.344 186.048 78.816C185.28 80.224 184.896 81.824 184.896 83.616C184.896 85.472 185.28 87.136 186.048 88.608C186.816 90.016 187.904 91.136 189.312 91.968C190.72 92.8 192.288 93.216 194.016 93.216ZM218.976 107.136H202.56V94.56L204.96 83.04L202.272 71.712V37.152H218.976V107.136Z" fill="white"/>
</svg>
