<svg width="52" height="32" viewBox="0 0 52 32" fill="none" xmlns="http://www.w3.org/2000/svg">
<path d="M32.8874 3.42079H18.8875V28.5791H32.8874V3.42079Z" fill="white"/>
<path d="M19.7765 16C19.7742 13.577 20.3233 11.1854 21.382 9.006C22.4408 6.82663 23.9815 4.9167 25.8875 3.4208C23.5272 1.56553 20.6925 0.411768 17.7074 0.0913803C14.7224 -0.229007 11.7074 0.296898 9.00716 1.60901C6.30688 2.92112 4.03023 4.9665 2.43744 7.51133C0.844655 10.0562 0 12.9978 0 16C0 19.0022 0.844655 21.9438 2.43744 24.4886C4.03023 27.0335 6.30688 29.0788 9.00716 30.3909C11.7074 31.703 14.7224 32.229 17.7074 31.9086C20.6925 31.5882 23.5272 30.4344 25.8875 28.5791C23.9815 27.0832 22.4408 25.1733 21.3821 22.9939C20.3233 20.8146 19.7743 18.4229 19.7765 16Z" fill="#F5F5F7"/>
<path d="M51.7742 16C51.7743 19.0021 50.9298 21.9437 49.3371 24.4886C47.7444 27.0334 45.4678 29.0788 42.7676 30.3909C40.0673 31.703 37.0524 32.2289 34.0674 31.9086C31.0824 31.5882 28.2478 30.4344 25.8875 28.5791C27.7918 27.0817 29.3313 25.1715 30.3899 22.9925C31.4485 20.8134 31.9985 18.4225 31.9985 16C31.9985 13.5774 31.4485 11.1865 30.3899 9.00747C29.3313 6.82845 27.7918 4.91821 25.8875 3.4208C28.2478 1.56552 31.0824 0.411759 34.0674 0.0913761C37.0524 -0.229007 40.0673 0.296921 42.7676 1.60905C45.4678 2.92117 47.7444 4.96654 49.3371 7.51138C50.9298 10.0562 51.7743 12.9978 51.7742 16Z" fill="#CFDADD"/>
<path d="M50.2477 25.9145V25.3994H50.4554V25.2945H49.9265V25.3994H50.1343V25.9145H50.2477ZM51.2746 25.9145V25.2935H51.1125L50.926 25.7206L50.7395 25.2935H50.5772V25.9145H50.6917V25.446L50.8666 25.8499H50.9853L51.1602 25.445V25.9145H51.2746Z" fill="#CFDADD"/>
</svg>
