<svg width="160" height="160" viewBox="0 0 160 160" fill="none" xmlns="http://www.w3.org/2000/svg">
<circle cx="80" cy="80" r="80" fill="#D2691E"/>
<path d="M63.5185 103C71.1111 103 77.037 97 77.037 89.5C77.037 81.8125 71.1111 75.8125 63.5185 75.8125C63.5185 70.5625 65 64.9375 67.2222 60.0625C67.7778 58.9375 67.2222 58 65.9259 58H63.5185C62.7778 58 62.2222 58.1875 61.4815 58.9375C57.037 64 50 75.0625 50 87.625C50 97 56.1111 103 63.5185 103ZM96.4815 103C104.074 103 110 97 110 89.5C110 81.8125 104.074 75.8125 96.4815 75.8125C96.4815 70.5625 97.963 64.9375 100.185 60.0625C100.741 58.9375 100.185 58 98.8889 58H96.4815C95.7407 58 95.1852 58.1875 94.4444 58.9375C90 64 82.963 75.0625 82.963 87.625C82.963 97 89.0741 103 96.4815 103Z" fill="white"/>
</svg>
