<svg width="24" height="24" viewBox="0 0 24 24" fill="none" xmlns="http://www.w3.org/2000/svg">
<path d="M12.7141 2.00036C13.2641 1.99036 13.7851 2.18936 14.1741 2.57036C14.5651 2.93936 14.7741 3.45036 14.7741 3.99036C14.7741 5.09036 15.6841 5.98136 16.8151 5.98136C17.1641 5.98136 17.5141 5.88036 17.8251 5.71036C18.7941 5.18936 20.0041 5.52036 20.5541 6.45036L21.2351 7.62036C21.4051 7.92036 21.5041 8.26036 21.5041 8.61036C21.5041 9.32036 21.1151 9.98136 20.4851 10.3304C20.1741 10.5004 19.9141 10.7604 19.7351 11.0614C19.2041 12.0004 19.5351 13.1894 20.4851 13.7314C21.4441 14.2804 21.7741 15.4814 21.2351 16.4304L20.5541 17.5614C20.1941 18.1804 19.5241 18.5614 18.8041 18.5614C18.4441 18.5614 18.0841 18.4704 17.7851 18.2904C17.4641 18.1204 17.1151 18.0204 16.7641 18.0204C16.2241 18.0204 15.7041 18.2314 15.3251 18.6104C14.9341 18.9814 14.7241 19.4904 14.7241 20.0204C14.7241 21.1104 13.8151 22.0004 12.6841 22.0004H11.3151C10.7741 22.0004 10.2641 21.7804 9.89413 21.4104C9.51413 21.0304 9.31513 20.5304 9.31513 20.0104C9.31513 18.9104 8.41413 18.0204 7.28513 18.0204C6.91413 18.0204 6.55413 18.1204 6.24413 18.3114C5.77413 18.5704 5.21413 18.6404 4.69413 18.5104C4.17413 18.3704 3.72413 18.0304 3.45413 17.5804L2.81513 16.4504C2.51413 15.9814 2.42413 15.4204 2.56513 14.8904C2.70413 14.3604 3.06513 13.9104 3.55413 13.6404C3.86513 13.4704 4.12413 13.2204 4.30413 12.9104C4.82513 11.9704 4.49413 10.7904 3.55413 10.2404C2.60413 9.70036 2.27413 8.51036 2.81513 7.57036L3.45413 6.45036C3.72413 5.98136 4.17413 5.64036 4.70413 5.50036C5.23513 5.36036 5.79413 5.43936 6.26413 5.71036C6.58413 5.88036 6.93413 5.97036 7.28513 5.97036C7.82513 5.97036 8.34413 5.76036 8.72413 5.39036C9.10413 5.02036 9.31513 4.51036 9.31513 3.99036C9.31513 2.89036 10.2241 2.00036 11.3541 2.00036H12.7141ZM13.1151 9.48136C12.0651 9.05036 10.8541 9.28036 10.0441 10.0704C9.24413 10.8504 8.99413 12.0404 9.43413 13.0614C9.86513 14.0904 10.8841 14.7604 12.0241 14.7604H12.0351C12.7851 14.7704 13.4851 14.4814 14.0141 13.9604C14.5441 13.4504 14.8441 12.7504 14.8441 12.0204C14.8541 10.9104 14.1641 9.90036 13.1151 9.48136Z" fill="white"/>
</svg>
