<svg width="512" height="512" viewBox="0 0 512 512" fill="none" xmlns="http://www.w3.org/2000/svg">
<path fill-rule="evenodd" clip-rule="evenodd" d="M434.478 16H77.519C43.718 16 16 43.719 16 77.521V434.478C16 468.282 43.718 496 77.519 496H434.478C468.281 496 496 468.282 496 434.479V77.521C496 43.719 468.281 16 434.478 16ZM383.41 191.673C383.522 194.467 383.578 197.262 383.577 200.058C383.577 212.909 382.06 226.047 379.115 239.093C362.458 312.951 299.315 384.122 196.571 384.122C159.477 384.122 124.922 373.421 95.804 355.052C101.017 355.665 106.262 355.97 111.511 355.966C142.3 355.966 170.631 345.639 193.132 328.256C164.37 327.751 140.116 309.041 131.741 283.341C135.763 284.095 139.873 284.524 144.095 284.524C150.127 284.524 155.903 283.714 161.442 282.242C139.3 277.828 121.374 262.513 113.354 242.217C110.47 234.955 108.999 227.062 108.999 218.773V217.958C117.999 222.813 127.868 225.724 138.624 226.065C121.005 214.457 109.315 194.645 109.315 172.217C109.315 160.363 112.535 149.246 118.172 139.682C150.58 178.825 198.987 204.593 253.609 207.3C252.491 202.464 251.924 197.517 251.921 192.554C251.921 156.825 281.335 127.855 317.638 127.855C336.551 127.855 353.623 135.696 365.582 148.276C380.292 145.44 394.413 140.124 407.341 132.554C402.411 147.684 392.019 160.363 378.437 168.365C391.743 166.802 404.394 163.334 416.176 158.199C407.392 171.163 396.229 182.56 383.41 191.673Z" fill="white"/>
</svg>
