<svg width="128" height="128" viewBox="0 0 128 128" fill="none" xmlns="http://www.w3.org/2000/svg">
<path d="M75 49.78V37.27H103.46V17.53H24.46V37.27H53V49.78C29.09 50.93 11.14 55.73 11.14 61.48C11.14 67.23 29.07 72 53 73.18V114.47H75V73.18C98.91 72.04 116.86 67.24 116.86 61.48C116.86 55.72 98.93 50.93 75 49.78ZM64 69.44C38.11 69.44 17.12 65.44 17.12 60.62C17.12 56.47 32.41 52.99 52.98 52.06V66.19C56.52 66.35 60.2 66.44 63.98 66.44C67.76 66.44 71.46 66.35 74.98 66.19V52.06C95.55 52.99 110.84 56.47 110.84 60.62C110.88 65.49 89.89 69.44 64 69.44Z" fill="white"/>
</svg>
