<svg width="16" height="16" viewBox="0 0 16 16" fill="none" xmlns="http://www.w3.org/2000/svg">
<g clip-path="url(#clip0_1501_204)">
<path d="M10.5858 13.214C10.442 13.2875 10.2951 13.3547 10.1451 13.4187C10.2201 13.3875 10.2951 13.3562 10.3686 13.325C9.82013 13.5547 9.24357 13.7109 8.65295 13.7922C8.73576 13.7812 8.81857 13.7703 8.90295 13.7593C8.30138 13.839 7.69045 13.839 7.08889 13.7578C7.1717 13.7687 7.25451 13.7797 7.33888 13.7906C6.75295 13.7109 6.18107 13.5547 5.63576 13.3265C5.71076 13.3578 5.78576 13.389 5.8592 13.4203C5.32014 13.1937 4.81389 12.8968 4.35139 12.5406C4.41389 12.589 4.47795 12.639 4.54045 12.6875C4.08107 12.3328 3.66857 11.9203 3.31389 11.4609C3.36232 11.5234 3.41232 11.5875 3.46076 11.65C3.10451 11.1875 2.8092 10.6797 2.58107 10.1422C2.61232 10.2172 2.64357 10.2922 2.67482 10.3656C2.44675 9.82047 2.29075 9.24794 2.21076 8.66247C2.2217 8.74528 2.23264 8.82809 2.24357 8.91247C2.16232 8.30778 2.16232 7.69528 2.24357 7.09059C2.23264 7.17341 2.2217 7.25622 2.21076 7.34059C2.29045 6.75465 2.4467 6.18278 2.67482 5.63747C2.64357 5.71247 2.61232 5.78747 2.58107 5.86091C2.80764 5.32184 3.10451 4.81559 3.46076 4.35309C3.41232 4.41559 3.36232 4.47966 3.31389 4.54216C3.66857 4.08278 4.08107 3.67028 4.54045 3.31559C4.47795 3.36403 4.41389 3.41403 4.35139 3.46247C4.81389 3.10622 5.3217 2.81091 5.8592 2.58278C5.7842 2.61403 5.7092 2.64528 5.63576 2.67653C6.18107 2.44841 6.75451 2.29216 7.33888 2.21247C7.25607 2.22341 7.17326 2.23434 7.08889 2.24528C7.69357 2.16403 8.30607 2.16403 8.91076 2.24528C8.82795 2.23434 8.74513 2.22341 8.66076 2.21247C9.2467 2.29216 9.81857 2.44841 10.3639 2.67653C10.2889 2.64528 10.2139 2.61403 10.1404 2.58278C10.6795 2.80934 11.1858 3.10622 11.6483 3.46247C11.5858 3.41403 11.5217 3.36403 11.4592 3.31559C11.9186 3.67028 12.3311 4.08278 12.6858 4.54216C12.6373 4.47966 12.5873 4.41559 12.5389 4.35309C12.8951 4.81559 13.1904 5.32341 13.4186 5.86091C13.3873 5.78591 13.3561 5.71091 13.3248 5.63747C13.5529 6.18278 13.7092 6.75622 13.7889 7.34059C13.7779 7.25778 13.767 7.17497 13.7561 7.09059C13.7967 7.39216 13.817 7.69684 13.817 8.00153C13.817 8.24215 13.9217 8.49372 14.092 8.66403C14.2545 8.82653 14.5217 8.9484 14.7545 8.93903C14.9967 8.92809 15.2483 8.8484 15.417 8.66403C15.5858 8.48122 15.692 8.25465 15.692 8.00153C15.6904 6.70465 15.3576 5.41716 14.7326 4.28122C14.1295 3.18278 13.2451 2.25309 12.2045 1.56247C11.6779 1.20934 11.0998 0.937468 10.5045 0.728093C9.89357 0.512469 9.25451 0.393719 8.61076 0.335906C7.9467 0.276531 7.2842 0.324969 6.62795 0.434344C5.99045 0.540594 5.38732 0.748406 4.79826 1.00934C4.21701 1.26559 3.6967 1.60934 3.19826 1.99841C2.76545 2.33591 2.3717 2.72497 2.03107 3.15622C1.64201 3.64997 1.2967 4.16559 1.03576 4.74059C0.770137 5.32653 0.557637 5.92966 0.445137 6.56403C0.215449 7.85778 0.279512 9.20622 0.709199 10.4547C1.12014 11.6422 1.80295 12.7343 2.7217 13.5953C3.64201 14.4562 4.76701 15.0968 5.9842 15.425C6.61545 15.5953 7.27951 15.6843 7.93263 15.6906C8.37951 15.6953 8.82014 15.6484 9.26232 15.5812C9.6342 15.525 10.0014 15.4375 10.3592 15.3203C10.7608 15.189 11.1545 15.0218 11.5311 14.8312C11.7342 14.7281 11.9029 14.4843 11.9623 14.2703C12.0248 14.0453 11.9967 13.7468 11.8686 13.5484C11.7389 13.3484 11.5467 13.1718 11.3076 13.1172C11.0529 13.0625 10.8186 13.0953 10.5858 13.214Z" fill="#CFDADD"/>
<path d="M10.4 7.99995C10.4 8.15152 10.3891 8.30308 10.3688 8.45464C10.3797 8.37183 10.3907 8.28901 10.4016 8.20464C10.361 8.49683 10.2828 8.7812 10.1688 9.05308C10.2 8.97808 10.2313 8.90308 10.2625 8.82964C10.1485 9.09526 10.0032 9.3437 9.82659 9.57183C9.87503 9.50933 9.92503 9.44526 9.97347 9.38276C9.80155 9.60311 9.60319 9.80148 9.38284 9.97339C9.44534 9.92495 9.5094 9.87495 9.5719 9.82652C9.34378 10.0031 9.09534 10.15 8.82972 10.2625C8.90472 10.2312 8.97972 10.2 9.05315 10.1687C8.78128 10.2828 8.4969 10.3609 8.20472 10.4015C8.28753 10.3906 8.37034 10.3796 8.45472 10.3687C8.15315 10.4093 7.8469 10.4093 7.54534 10.3687C7.62815 10.3796 7.71097 10.3906 7.79534 10.4015C7.50315 10.3609 7.21878 10.2828 6.9469 10.1687C7.0219 10.2 7.0969 10.2312 7.17034 10.2625C6.90472 10.1484 6.65628 10.0031 6.42815 9.82652C6.49065 9.87495 6.55472 9.92495 6.61722 9.97339C6.39687 9.80148 6.1985 9.60311 6.02659 9.38276C6.07503 9.44526 6.12503 9.50933 6.17347 9.57183C5.9969 9.3437 5.85003 9.09526 5.73753 8.82964C5.76878 8.90464 5.80003 8.97964 5.83128 9.05308C5.71722 8.7812 5.63909 8.49683 5.59847 8.20464C5.6094 8.28745 5.62034 8.37026 5.63128 8.45464C5.59065 8.15308 5.59065 7.84683 5.63128 7.54526C5.62034 7.62808 5.6094 7.71089 5.59847 7.79526C5.63909 7.50308 5.71722 7.2187 5.83128 6.94683C5.80003 7.02183 5.76878 7.09683 5.73753 7.17026C5.85159 6.90464 5.9969 6.6562 6.17347 6.42808C6.12503 6.49058 6.07503 6.55464 6.02659 6.61714C6.19847 6.39683 6.3969 6.19839 6.61722 6.02651C6.55472 6.07495 6.49065 6.12495 6.42815 6.17339C6.65628 5.99683 6.90472 5.84995 7.17034 5.73745C7.09534 5.7687 7.02034 5.79995 6.9469 5.8312C7.21878 5.71714 7.50315 5.63901 7.79534 5.59839C7.71253 5.60933 7.62972 5.62026 7.54534 5.6312C7.8469 5.59058 8.15315 5.59058 8.45472 5.6312C8.3719 5.62026 8.28909 5.60933 8.20472 5.59839C8.4969 5.63901 8.78128 5.71714 9.05315 5.8312C8.97815 5.79995 8.90315 5.7687 8.82972 5.73745C9.09534 5.85151 9.34378 5.99683 9.5719 6.17339C9.5094 6.12495 9.44534 6.07495 9.38284 6.02651C9.60315 6.19839 9.80159 6.39683 9.97347 6.61714C9.92503 6.55464 9.87503 6.49058 9.82659 6.42808C10.0032 6.6562 10.15 6.90464 10.2625 7.17026C10.2313 7.09526 10.2 7.02026 10.1688 6.94683C10.2828 7.2187 10.361 7.50308 10.4016 7.79526C10.3907 7.71245 10.3797 7.62964 10.3688 7.54526C10.3891 7.69683 10.3985 7.84839 10.4 7.99995C10.4 8.24058 10.5047 8.49214 10.675 8.66245C10.8375 8.82495 11.1047 8.94683 11.3375 8.93745C11.5797 8.92652 11.8313 8.84683 12 8.66245C12.1688 8.47964 12.275 8.25308 12.275 7.99995C12.2735 7.74214 12.2407 7.48745 12.2016 7.23276C12.175 7.05933 12.1328 6.88745 12.0797 6.72026C11.95 6.32183 11.7703 5.92964 11.5266 5.58745C11.386 5.39058 11.236 5.19526 11.0672 5.02183C10.8969 4.84526 10.7078 4.69683 10.5125 4.54839C10.1782 4.29214 9.80315 4.11245 9.4094 3.96714C9.00472 3.81714 8.56253 3.74683 8.13284 3.72964C7.95159 3.72183 7.76878 3.72964 7.58909 3.75151C7.33597 3.78276 7.08597 3.81558 6.84065 3.88589C6.60315 3.95308 6.3719 4.04995 6.14847 4.15151C5.99222 4.22183 5.84222 4.3062 5.69847 4.39995C5.35159 4.62808 5.02347 4.89839 4.7594 5.22026C4.60472 5.40776 4.45472 5.60308 4.32972 5.81089C4.20159 6.02339 4.10628 6.24839 4.01253 6.47651C3.84847 6.87495 3.7719 7.29995 3.73753 7.72808C3.7219 7.91245 3.72347 8.09995 3.73909 8.28433C3.76097 8.53745 3.79534 8.79214 3.85472 9.03901C3.89534 9.20777 3.95003 9.37339 4.01722 9.53433C4.11097 9.76245 4.20784 9.98745 4.33597 10.1984C4.46253 10.4062 4.61253 10.6015 4.76722 10.789C4.87503 10.9203 4.99378 11.0437 5.1219 11.1562C5.43284 11.4328 5.77972 11.6828 6.16097 11.8531C6.38597 11.9546 6.61565 12.0515 6.85472 12.1187C7.10003 12.1875 7.35159 12.2203 7.60315 12.2515C8.03753 12.3031 8.47972 12.2625 8.90784 12.1781C9.3219 12.0953 9.72815 11.9343 10.0969 11.7296C10.2469 11.6468 10.3891 11.5515 10.5235 11.4468C10.7172 11.2984 10.9078 11.15 11.0766 10.9718C11.361 10.675 11.6157 10.3328 11.8 9.96402C11.9907 9.58433 12.1422 9.17808 12.2078 8.7562C12.2469 8.50464 12.2782 8.25308 12.2797 7.99995C12.2797 7.75933 12.175 7.5062 12.0047 7.33745C11.8422 7.17495 11.575 7.05308 11.3422 7.06245C11.1 7.07339 10.8485 7.15308 10.6797 7.33745C10.5063 7.52026 10.4 7.74527 10.4 7.99995Z" fill="#CFDADD"/>
<path d="M13.8172 8.00004V9.50942C13.8172 9.62817 13.8172 9.74692 13.8016 9.86567C13.8125 9.78286 13.8234 9.70004 13.8344 9.61567C13.8125 9.76098 13.775 9.90317 13.7188 10.0391C13.75 9.96411 13.7813 9.88911 13.8125 9.81567C13.7531 9.95473 13.6781 10.0844 13.5859 10.2032C13.6344 10.1407 13.6844 10.0766 13.7328 10.0141C13.6438 10.1266 13.5438 10.2266 13.4313 10.3157C13.4938 10.2672 13.5578 10.2172 13.6203 10.1688C13.5 10.261 13.3719 10.336 13.2328 10.3954C13.3078 10.3641 13.3828 10.3329 13.4563 10.3016C13.3203 10.3579 13.1781 10.3969 13.0328 10.4172C13.1156 10.4063 13.1984 10.3954 13.2828 10.3844C13.125 10.4047 12.9672 10.4047 12.8078 10.3844C12.8906 10.3954 12.9734 10.4063 13.0578 10.4172C12.9125 10.3954 12.7703 10.3579 12.6344 10.3016C12.7094 10.3329 12.7844 10.3641 12.8578 10.3954C12.7188 10.336 12.5891 10.261 12.4703 10.1688C12.5328 10.2172 12.5969 10.2672 12.6594 10.3157C12.5469 10.2266 12.4469 10.1266 12.3578 10.0141C12.4063 10.0766 12.4563 10.1407 12.5047 10.2032C12.4125 10.0829 12.3375 9.95473 12.2781 9.81567C12.3094 9.89067 12.3406 9.96567 12.3719 10.0391C12.3156 9.90317 12.2766 9.76098 12.2563 9.61567C12.2672 9.69848 12.2781 9.78129 12.2891 9.86567C12.2594 9.63911 12.2734 9.40473 12.2734 9.17661V8.0016C12.2734 7.76098 12.1688 7.50942 11.9984 7.33911C11.8359 7.17661 11.5688 7.05473 11.3359 7.06411C11.0938 7.07504 10.8422 7.15473 10.6734 7.33911C10.5047 7.52192 10.3984 7.74848 10.3984 8.0016V9.33129C10.3984 9.61723 10.4078 9.88442 10.4563 10.1704C10.4734 10.2672 10.4969 10.3625 10.5297 10.4547C10.5875 10.6172 10.6547 10.7813 10.7391 10.9313C10.8203 11.0782 10.9281 11.211 11.0313 11.3422C11.0922 11.4188 11.1578 11.4922 11.2312 11.5579C11.4266 11.736 11.6469 11.9016 11.8906 12.0079C12.0469 12.0766 12.2047 12.1469 12.3703 12.1891C12.5438 12.2329 12.725 12.2547 12.9016 12.2704C13.1719 12.2922 13.4547 12.2563 13.7156 12.1891C13.8813 12.1469 14.0391 12.0766 14.1953 12.0079C14.2859 11.9672 14.3734 11.9204 14.4563 11.8657C14.6766 11.7204 14.8906 11.5485 15.0547 11.3407C15.1609 11.2063 15.2703 11.0719 15.3516 10.9204C15.4328 10.7719 15.4984 10.611 15.5563 10.4516C15.6656 10.1438 15.6891 9.81254 15.6891 9.48754V8.0016C15.6891 7.76098 15.5844 7.50942 15.4141 7.33911C15.2516 7.17661 14.9844 7.05473 14.7516 7.06411C14.5094 7.07504 14.2578 7.15473 14.0891 7.33911C13.9234 7.52036 13.8172 7.74536 13.8172 8.00004Z" fill="#CFDADD"/>
</g>
<defs>
<clipPath id="clip0_1501_204">
<rect width="16" height="16" fill="white"/>
</clipPath>
</defs>
</svg>
