<svg width="449" height="551" viewBox="0 0 449 551" fill="none" xmlns="http://www.w3.org/2000/svg">
<g clip-path="url(#clip0_450_732)">
<mask id="mask0_450_732" style="mask-type:luminance" maskUnits="userSpaceOnUse" x="-60" y="-19" width="570" height="570">
<path d="M510 -19H-60V551H510V-19Z" fill="white"/>
</mask>
<g mask="url(#mask0_450_732)">
<path d="M-246.176 378.785L-248.14 377.926C-199.628 409.556 -182.922 330.378 -154.953 297.953C-123.918 261.97 -87.8112 254 -60.7114 277.227C-48.2379 287.904 -37.354 304.957 -26.8217 321.448C-12.5385 343.817 2.22771 366.952 20.3922 372.628C39.4387 378.588 57.3261 364.62 76.2807 349.839C91.1846 338.21 106.596 326.19 122.743 324.716C145.578 322.615 166.72 341.5 187.177 359.749C191.818 363.891 196.612 368.164 201.322 372.091C214.194 382.845 233.363 395.18 251.596 392.856C261.959 391.544 316.384 387.982 323.856 377.573L325.605 378.831C317.773 389.738 262.841 393.6 251.872 394.988C232.887 397.458 213.15 384.771 199.941 373.741C195.209 369.798 190.399 365.502 185.75 361.352C165.638 343.418 144.897 324.832 122.943 326.849C107.416 328.268 92.2587 340.096 77.6007 351.526C59.0451 365.993 39.8989 380.958 19.7473 374.684C0.838593 368.77 -14.1419 345.298 -28.6325 322.607C-39.0794 306.245 -49.8798 289.331 -62.1068 278.853C-88.6171 256.171 -122.698 263.85 -153.327 299.35C-181.088 331.536 -202.003 410.347 -246.176 378.785Z" fill="white"/>
<path d="M-246.013 378.104L-247.915 377.107C-237.452 357.202 -204.99 386.765 -194.229 371.401C-190.815 366.53 -187.332 361.559 -183.735 356.266C-179.731 350.383 -175.642 344.047 -171.684 337.926C-166.322 329.626 -160.784 321.042 -155.146 313.072C-153.006 310.043 -150.666 306.921 -148.212 303.806C-117.928 265.483 -83.8 252.78 -56.9525 269.817C-47.7016 275.686 -39.5168 284.998 -31.6081 294.011C-22.8792 303.96 -11.9325 318.495 -1.58493 333.883C6.94449 346.563 15.7125 355.093 24.4725 359.227C42.5452 367.78 59.6198 357.693 77.6925 347.015C86.3755 341.891 95.351 336.591 104.456 333.531C111.006 331.321 117.12 330.493 123.126 330.969C130.191 331.537 137.21 333.853 145.579 337.159L147.91 338.072C150.058 338.908 152.198 339.743 154.285 340.641C165.967 345.635 176.852 352.73 187.368 359.588C189.662 361.077 191.933 362.556 194.188 364.006C197.157 365.901 200.117 367.735 203.078 369.506C212.122 374.907 220.798 378.911 229.589 381.749C234.045 383.184 238.409 384.572 242.728 385.653C258.715 389.696 314.293 388.091 324.196 376.984L325.807 378.41C315.305 390.177 258.998 391.974 242.207 387.739C237.819 386.635 233.424 385.239 228.929 383.789C219.977 380.905 211.163 376.832 201.973 371.347C198.998 369.576 196.022 367.727 193.038 365.816C190.767 364.367 188.488 362.879 186.195 361.391C175.755 354.579 164.955 347.537 153.441 342.62C151.37 341.731 149.252 340.902 147.128 340.074L144.788 339.153C136.604 335.924 129.754 333.661 122.957 333.116C117.227 332.64 111.413 333.454 105.146 335.571C96.2482 338.562 87.3725 343.801 78.7893 348.872C61.0237 359.358 42.6671 370.19 23.5521 361.176C14.4389 356.873 5.38068 348.089 -3.36407 335.08C-13.6742 319.769 -24.5512 305.31 -33.2194 295.421C-41.0363 286.532 -49.1129 277.335 -58.1036 271.628C-83.9388 255.243 -116.999 267.754 -146.524 305.141C-148.956 308.225 -151.272 311.316 -153.396 314.315C-159.004 322.247 -164.535 330.807 -169.882 339.091C-173.839 345.228 -177.943 351.572 -181.955 357.478C-185.56 362.771 -189.05 367.758 -192.472 372.636C-203.188 387.939 -235.62 358.321 -246.013 378.104Z" fill="white"/>
<path d="M-247.97 377.804L-245.969 378.268C-235.385 391.216 -207.713 392.84 -197.926 383.697C-191.989 378.144 -185.852 372.406 -179.362 364.743C-171.347 355.254 -163.415 342.927 -155.745 330.999C-153.305 327.202 -150.866 323.405 -148.419 319.692C-146.271 316.425 -143.931 313.05 -141.461 309.667C-111.913 269.089 -79.7811 251.868 -53.2402 262.407C-46.006 265.284 -39.6167 270.278 -32.8437 275.563C-31.3939 276.698 -29.9288 277.841 -28.4326 278.984C-19.7881 285.581 -6.84697 299.005 3.50803 316.9C11.355 330.447 19.7778 340.189 28.53 345.85C45.6975 356.98 62.0212 350.682 79.2953 344.024C87.7329 340.772 96.4624 337.404 105.323 336.215C111.436 335.386 117.541 335.748 123.51 337.259C128.442 338.509 133.366 340.495 138.575 342.59C141.145 343.626 143.768 344.676 146.468 345.681C148.93 346.572 151.447 347.307 153.87 348.013L155.842 348.596C166.259 351.672 175.702 355.531 184.83 359.259C188.665 360.823 192.416 362.357 196.098 363.769C198.998 364.889 201.882 365.901 204.766 366.914C213.242 369.875 221.979 372.406 231.476 374.653C236.354 375.804 241.478 377.476 245.59 378.818C262.496 384.311 314.171 385.924 323.79 377.823L325.171 379.464C315.062 387.995 262.373 386.551 244.93 380.859C240.849 379.532 235.771 377.875 230.984 376.74C221.412 374.477 212.597 371.923 204.06 368.938C201.145 367.926 198.245 366.898 195.33 365.778C191.634 364.359 187.867 362.825 184.016 361.253C174.934 357.54 165.545 353.705 155.228 350.652L153.272 350.077C150.81 349.356 148.263 348.611 145.732 347.698C143.001 346.686 140.362 345.627 137.777 344.584C132.63 342.514 127.774 340.557 122.981 339.345C117.281 337.888 111.443 337.566 105.613 338.347C96.9991 339.506 88.3932 342.82 80.0701 346.026C63.0482 352.592 45.4516 359.358 27.3641 347.66C18.3201 341.807 9.66772 331.82 1.65234 317.974C-8.55013 300.355 -21.2527 287.161 -29.7367 280.687C-31.2403 279.544 -32.7128 278.393 -34.17 277.257C-40.8127 272.064 -47.0879 267.163 -54.0377 264.402C-79.19 254.422 -111.231 271.812 -139.728 310.932C-142.174 314.293 -144.491 317.637 -146.624 320.874C-149.064 324.579 -151.502 328.368 -153.941 332.157C-161.643 344.146 -169.613 356.535 -177.72 366.124C-184.294 373.895 -190.478 379.67 -196.461 385.262C-206.133 394.306 -242.906 390.819 -247.97 377.804Z" fill="white"/>
<path d="M-246.355 379.094L-248.12 377.851C-237.45 362.679 -207.661 393.731 -197.343 388.33C-190.232 384.602 -182.876 380.752 -174.991 373.219C-164.266 362.987 -154.11 346.478 -144.292 330.523L-141.691 326.296C-139.575 322.868 -137.289 319.339 -134.712 315.527C-106.276 273.376 -75.24 251.407 -49.6043 255.021C-43.6056 255.887 -38.3125 258.273 -32.7133 260.796C-30.343 261.863 -27.8883 262.967 -25.364 263.956C-15.5769 267.761 -1.28622 280.357 8.59378 299.902C15.7351 314.039 24.0276 325.307 32.5802 332.487C48.9192 346.195 64.5752 343.633 81.121 340.932C89.2831 339.606 97.7128 338.241 106.235 338.93C111.957 339.406 117.726 340.925 123.863 343.572C126.615 344.76 129.339 346.102 132.223 347.529C137.01 349.892 141.95 352.339 147.358 354.196C150.779 355.362 154.292 355.998 157.399 356.558C162.017 357.386 166.427 358.222 170.67 359.028C180.357 360.861 189.509 362.595 197.939 363.577C200.072 363.815 202.181 363.999 204.313 364.182L206.399 364.367C214.285 365.065 222.861 365.894 233.37 367.566C237.804 368.271 242.598 369.675 248.443 371.976C261.729 377.185 312.915 383.269 324.106 377.071L325.15 378.943C313.168 385.593 261.429 379.379 247.66 373.971C241.961 371.731 237.313 370.366 233.033 369.682C222.585 368.026 214.055 367.205 206.215 366.499L204.129 366.323C201.982 366.139 199.849 365.955 197.693 365.709C189.187 364.72 179.997 362.978 170.271 361.137C166.036 360.332 161.625 359.496 157.015 358.675C153.84 358.1 150.234 357.448 146.668 356.22C141.121 354.326 136.113 351.849 131.273 349.455C128.411 348.044 125.711 346.709 123.018 345.55C117.089 342.988 111.544 341.531 106.051 341.078C97.7824 340.373 89.49 341.754 81.4662 343.057C65.1731 345.719 48.3054 348.473 31.1996 334.129C22.4236 326.772 13.9486 315.266 6.67636 300.868C-2.897 281.929 -17.0494 269.495 -26.1467 265.959C-28.7159 264.954 -31.2023 263.834 -33.5952 262.753C-39.0566 260.29 -44.2114 257.973 -49.9109 257.153C-74.6795 253.478 -104.979 275.287 -132.931 316.724C-135.493 320.521 -137.764 324.018 -139.866 327.432L-142.466 331.651C-152.354 347.721 -162.579 364.344 -173.502 374.769C-181.61 382.516 -189.104 386.436 -196.345 390.233C-206.424 395.51 -235.992 364.343 -246.355 379.094Z" fill="white"/>
<path d="M-246.201 378.515L-247.888 377.18C-236.167 362.421 -206.57 393.639 -195.939 391.675C-187.915 390.187 -179.608 388.653 -170.61 381.711C-157.531 371.616 -145.535 351.058 -134.957 332.909C-132.878 329.35 -130.592 325.577 -127.961 321.38C-100.499 277.664 -70.6294 250.809 -46.006 247.71C-37.6839 246.66 -30.1895 247.066 -22.38 248.968C-11.503 247.112 4.36728 261.978 13.672 282.904C20.2845 297.785 28.2165 310.304 36.6082 319.118C52.1718 335.456 67.2145 336.645 83.1466 337.895C90.955 338.509 99.0243 339.146 107.133 341.708C112.257 343.334 117.842 346.011 124.2 349.892C125.512 350.697 126.831 351.534 128.174 352.37C134.356 356.267 140.746 360.294 148.256 362.71C151.915 363.884 155.558 364.283 158.956 364.536C174.973 365.748 187.929 365.395 199.734 363.447C201.352 363.179 202.964 362.856 204.574 362.534C205.709 362.312 206.852 362.089 208.011 361.874C214.539 360.685 223.544 359.449 235.265 360.477C240.129 360.914 245.368 362.434 251.289 365.134C267.927 372.72 313.869 380.682 323.971 378.035L324.508 380.121C312.918 383.098 264.92 373.703 250.399 367.083C244.708 364.498 239.691 363.032 235.081 362.618C223.613 361.613 214.792 362.825 208.394 363.991C207.251 364.198 206.124 364.421 204.996 364.643C203.355 364.973 201.728 365.288 200.087 365.563C188.106 367.543 174.966 367.896 158.796 366.684C155.436 366.431 151.477 366.001 147.596 364.75C139.834 362.258 133.32 358.153 127.023 354.187C125.695 353.351 124.385 352.523 123.08 351.726C116.867 347.936 111.444 345.328 106.489 343.764C98.6104 341.271 90.6642 340.641 82.9777 340.035C67.3444 338.808 51.1822 337.534 35.0581 320.605C26.4901 311.607 18.4204 298.874 11.7082 283.778C1.68301 261.234 -13.4436 249.39 -22.2195 251.124L-22.4491 251.163L-22.6797 251.108C-30.2972 249.214 -37.6143 248.807 -45.7304 249.843C-69.7174 252.865 -99.0265 279.352 -126.135 322.516C-128.758 326.696 -131.037 330.454 -133.1 333.991C-143.777 352.309 -155.882 373.066 -169.291 383.414C-178.71 390.67 -187.27 392.25 -195.555 393.784C-206.264 395.764 -234.986 364.385 -246.201 378.515Z" fill="white"/>
<path d="M-246.178 378.602L-247.788 377.175C-234.917 362.663 -205.765 393.539 -194.29 394.644C-185.423 395.533 -176.257 396.43 -166.223 390.209C-152.247 381.542 -139.283 359.496 -128.229 339.514C-125.928 335.363 -123.565 331.276 -121.203 327.233C-94.5387 281.806 -65.8202 250.188 -42.4011 240.469C-33.3265 236.703 -26.4306 234.8 -19.4196 234.132C-16.2898 232.399 -12.4772 232.223 -8.36632 233.642C1.91216 237.186 12.2914 249.551 18.7345 265.904C24.8795 281.477 32.4425 295.253 40.6109 305.747C55.4473 324.786 69.9443 329.749 85.2942 335.011C92.7115 337.55 100.382 340.181 108.007 344.522C113.169 347.468 118.339 351.334 124.506 356.228L125.197 356.773C132.369 362.48 139.787 368.386 149.153 371.232C151.937 372.076 154.822 372.214 157.613 372.352C158.634 372.406 159.639 372.452 160.629 372.528C177.212 373.856 190.46 368.509 201.56 363.392C202.933 362.756 204.299 362.081 205.671 361.398C206.975 360.747 208.287 360.094 209.637 359.465C215.736 356.612 224.157 353.397 235.671 353.397C236.169 353.397 236.669 353.397 237.168 353.413C242.368 353.536 248.075 355.177 254.127 358.292C257.349 359.957 260.455 361.621 263.44 363.231C274.693 369.283 316.202 377.807 324.426 378.159L324.333 380.307C315.619 379.931 273.902 371.301 262.426 365.127C259.451 363.523 256.359 361.858 253.145 360.209C247.385 357.241 241.992 355.676 237.121 355.561C236.638 355.553 236.154 355.545 235.679 355.545C224.572 355.545 216.441 358.659 210.542 361.413C209.215 362.034 207.919 362.679 206.63 363.323C205.233 364.014 203.853 364.704 202.465 365.341C190.276 370.957 176.744 375.949 160.459 374.676C159.485 374.591 158.504 374.545 157.514 374.499C154.591 374.354 151.569 374.208 148.524 373.288C138.774 370.319 131.188 364.29 123.854 358.46L123.172 357.915C117.081 353.075 111.988 349.263 106.948 346.394C99.4924 342.145 91.9215 339.552 84.6033 337.044C69.6303 331.912 54.1426 326.612 38.9236 307.066C30.6243 296.412 22.9536 282.45 16.7401 266.687C10.611 251.146 0.485565 238.965 -9.06458 235.667C-12.6619 234.432 -15.9368 234.562 -18.5451 236.112L-18.9905 236.25C-25.8553 236.879 -32.613 238.728 -41.5725 242.448C-64.2401 251.852 -93.3122 283.954 -119.346 328.322C-121.709 332.35 -124.056 336.422 -126.343 340.557C-137.534 360.777 -150.674 383.099 -165.087 392.035C-175.719 398.64 -185.262 397.712 -194.504 396.783C-205.918 395.656 -234.035 364.902 -246.178 378.602Z" fill="white"/>
<path d="M-246.245 378.682L-247.78 377.179C-233.726 362.842 -204.898 393.293 -192.579 397.466C-182.883 400.749 -172.858 404.147 -161.834 398.716C-146.861 391.352 -133.031 367.995 -121.486 346.118C-119.178 341.731 -116.808 337.389 -114.445 333.085C-88.3331 285.634 -60.7414 249.252 -38.7262 233.274C-31.3395 227.912 -24.0757 222.811 -16.3664 219.39C-12.9987 216.183 -8.6503 215.063 -3.84752 216.214C6.86005 218.722 17.7148 231.547 23.8049 248.891C29.5197 265.137 36.7159 280.18 44.6162 292.376C58.7385 314.177 72.7061 323.006 87.4955 332.356C94.4764 336.775 101.702 341.339 108.843 347.368C112.985 350.866 117.143 354.993 121.546 359.35L124.791 362.564C132.331 369.959 139.933 376.839 150.051 379.747C153.572 380.766 157.399 381.005 162.109 380.529C176.937 379.003 190.461 373.388 203.455 363.378C204.721 362.403 205.978 361.383 207.244 360.347C208.586 359.258 209.936 358.153 211.333 357.088C217.553 352.316 226.329 346.785 239.07 346.34C239.362 346.333 239.653 346.325 239.937 346.325C245.267 346.325 250.989 348.051 256.958 351.449C263.546 355.208 269.661 359.343 275.046 362.986C282.832 368.255 309.546 376.833 325.012 377.32L324.29 379.345C305.983 376.833 281.75 370.112 273.841 364.766C268.487 361.145 262.412 357.033 255.899 353.321C249.954 349.93 244.332 348.304 239.147 348.488C227.011 348.91 218.604 354.219 212.636 358.79C211.263 359.849 209.921 360.938 208.602 362.012C207.32 363.055 206.047 364.099 204.759 365.08C191.45 375.344 177.566 381.096 162.324 382.662C157.369 383.184 153.265 382.907 149.453 381.818C138.867 378.772 130.72 371.394 123.288 364.099L120.028 360.877C115.664 356.543 111.536 352.454 107.462 349.01C100.429 343.08 93.272 338.555 86.3455 334.175C72.0084 325.116 57.1884 315.742 42.8059 293.543C34.8201 281.208 27.5484 266.012 21.7803 249.597C15.9278 232.928 5.67886 220.648 -4.3315 218.308C-8.46559 217.342 -12.1706 218.285 -15.009 221.062L-15.3314 221.277C-22.9177 224.621 -29.8437 229.477 -37.4686 235.007C-59.2304 250.816 -86.5999 286.938 -112.558 334.121C-114.92 338.417 -117.275 342.743 -119.584 347.116C-131.88 370.419 -145.395 393.032 -160.883 400.65C-172.704 406.464 -183.167 402.92 -193.269 399.499C-205.519 395.364 -233.135 365.311 -246.245 378.682Z" fill="white"/>
<path d="M-166.376 411.074C-175.451 411.074 -183.789 406.517 -191.92 402.084C-204.998 394.95 -232.251 365.622 -246.388 378.754L-247.844 377.174C-232.587 363.014 -204.07 393.017 -190.892 400.197C-180.383 405.935 -169.514 411.879 -157.447 407.239C-140.779 400.849 -125.874 374.745 -114.752 352.722C-112.412 348.097 -110.05 343.503 -107.679 338.938C-81.6678 288.664 -55.1734 247.534 -34.9991 226.086C-30.627 221.438 -26.4459 217.479 -22.4116 213.66C-19.1589 210.584 -16.0909 207.676 -13.1987 204.67C-8.68092 199.967 -2.897 198.165 2.94867 199.53C13.6029 202.031 23.2982 214.127 28.8752 231.877C34.1757 248.761 41.0025 265.054 48.5967 278.999C62.0513 303.683 76.1272 317.068 89.7349 330.009C96.2556 336.208 102.99 342.62 109.625 350.207C112.272 353.23 114.887 356.466 117.648 359.887C120.034 362.84 122.482 365.87 125.059 368.892C132.162 377.231 140.224 385.346 150.948 388.269C154.752 389.305 158.925 389.396 163.689 388.53C178.793 385.806 192.447 377.576 205.418 363.378C206.568 362.112 207.711 360.793 208.862 359.473C210.243 357.885 211.639 356.275 213.089 354.709C219.171 348.143 227.839 340.449 240.98 339.276C246.993 338.724 253.253 340.542 259.795 344.615C269.3 350.529 302.987 360.735 311.396 365.165C318.518 368.917 322.475 373.403 325.264 376.41L324.052 378.189C323.071 376.766 321.881 375.458 320.515 374.213C317.667 371.617 314.057 369.298 309.983 366.791C301.955 361.85 268.019 352.262 258.66 346.441C252.516 342.613 246.633 340.925 241.171 341.408C228.759 342.528 220.491 349.884 214.669 356.167C213.226 357.716 211.846 359.312 210.481 360.884C209.322 362.219 208.164 363.546 206.998 364.819C193.704 379.386 179.659 387.84 164.072 390.647C158.987 391.567 154.5 391.475 150.38 390.34C139.096 387.264 130.751 378.889 123.417 370.289C120.832 367.251 118.37 364.198 115.976 361.237C113.223 357.832 110.631 354.61 108.015 351.618C101.441 344.108 94.7372 337.734 88.255 331.567C74.5243 318.511 60.325 305.011 46.7099 280.027C39.0466 265.959 32.1733 249.535 26.8195 232.522C21.4731 215.501 12.3679 203.949 2.45677 201.624C-2.71333 200.397 -7.62219 201.962 -11.6497 206.158C-14.5794 209.203 -17.6632 212.126 -20.9306 215.217C-24.9507 219.021 -29.1075 222.957 -33.4342 227.559C-53.4771 248.868 -79.8423 289.822 -105.777 339.92C-108.132 344.484 -110.495 349.079 -112.834 353.69C-124.133 376.057 -139.329 402.59 -156.68 409.248C-160.009 410.53 -163.239 411.074 -166.376 411.074Z" fill="white"/>
<path d="M-159.649 418.868C-170.764 418.868 -180.751 411.634 -190.47 404.592C-204.431 394.482 -231.214 365.924 -246.357 378.827L-247.753 377.185C-231.307 363.193 -203.218 392.695 -189.204 402.851C-177.866 411.073 -166.123 419.543 -153.06 415.776C-134.635 410.43 -118.526 380.997 -108.009 359.32L-100.922 344.783C-72.7701 287.123 -49.3125 244.765 -31.2097 218.891C-27.0603 212.961 -23.0629 207.623 -19.1975 202.46C-15.9527 198.126 -12.8916 194.03 -9.9693 189.903C-5.32063 183.329 0.931442 180.346 7.54291 181.489C18.5582 183.383 28.6682 196.17 33.9381 214.864C38.8702 232.353 45.3065 249.904 52.5629 265.606C65.4037 293.397 78.9729 311.086 92.105 328.199C98.089 336 104.279 344.07 110.377 353.037C112.08 355.553 113.798 358.169 115.547 360.838C118.638 365.572 121.837 370.465 125.312 375.214C131.848 384.157 140.109 393.707 151.853 396.799C155.965 397.857 160.367 397.772 165.291 396.538C180.825 392.641 194.61 381.788 207.427 363.346C208.509 361.79 209.575 360.186 210.649 358.56C212.029 356.481 213.433 354.379 214.891 352.323C220.828 343.947 229.381 334.09 242.904 332.203C249.103 331.383 255.923 333.262 262.618 337.772C274.57 345.795 308.546 357.888 316.877 367.162C320.03 370.667 323.006 373.981 325.829 376.827L324.309 378.346C321.441 375.455 318.449 372.126 315.281 368.597C307.035 359.422 273.151 347.43 261.422 339.552C255.163 335.349 248.834 333.531 243.196 334.336C230.57 336.1 222.685 345.044 216.64 353.566C215.198 355.607 213.81 357.693 212.436 359.749C211.355 361.383 210.281 363.002 209.192 364.574C196.067 383.459 181.876 394.597 165.813 398.624C160.521 399.944 155.78 400.028 151.308 398.878C138.913 395.617 130.329 385.73 123.579 376.487C120.073 371.692 116.859 366.775 113.744 362.02C112.004 359.358 110.301 356.75 108.598 354.249C102.538 345.328 96.3705 337.289 90.403 329.503C77.2011 312.305 63.5555 294.517 50.6143 266.511C43.312 250.702 36.8298 233.044 31.8666 215.447C26.8268 197.559 17.3691 185.362 7.17503 183.606C1.38321 182.593 -4.07085 185.294 -8.22023 191.146C-11.1505 195.296 -14.2269 199.399 -17.4796 203.741C-21.3382 208.896 -25.3266 214.227 -29.4459 220.118C-47.4874 245.907 -70.8902 288.165 -98.988 345.719L-106.077 360.255C-116.769 382.301 -133.215 412.255 -152.461 417.84C-154.908 418.545 -157.302 418.868 -159.649 418.868Z" fill="white"/>
<path d="M-153.397 426.96C-166.391 426.96 -177.844 416.866 -188.951 407.07C-203.832 393.96 -230.108 365.645 -246.301 378.356L-247.62 376.669C-230 362.846 -202.39 392.365 -187.532 405.459C-175.373 416.175 -162.74 427.283 -148.687 424.322C-133.691 421.192 -118.18 402.084 -101.266 365.924C-98.8882 360.831 -96.5184 355.737 -94.1556 350.621L-86.6844 334.413C-65.1062 287.598 -44.7329 243.384 -27.3896 211.673C-23.0787 203.795 -18.8976 196.5 -14.8475 189.451C-12.0402 184.564 -9.31689 179.817 -6.69331 175.121C-1.93752 166.585 4.78163 162.427 12.2381 163.401C23.7357 164.912 33.992 178.106 39.0011 197.842C43.6651 216.245 49.5636 234.54 56.5287 252.221C68.8633 283.517 81.4587 304.865 94.7904 327.463C100.129 336.515 105.652 345.88 111.106 355.86C112.134 357.739 113.162 359.665 114.205 361.606C117.757 368.218 121.423 375.06 125.55 381.534C131.549 390.938 140.063 402.138 152.75 405.314C157.115 406.395 161.887 406.141 166.903 404.546C182.95 399.483 196.873 385.991 209.469 363.301C210.519 361.406 211.555 359.458 212.598 357.494C213.94 354.963 215.306 352.408 216.725 349.915C222.876 339.107 231.016 327.716 244.823 325.139C251.344 323.927 258.476 325.921 265.442 330.923C279.364 340.925 311.484 356.55 320.49 369.169C322.369 371.792 324.18 374.331 325.943 376.709L324.21 377.983C322.446 375.597 320.628 373.058 318.741 370.419C309.827 357.931 277.822 342.467 264.184 332.671C257.716 328.023 251.151 326.136 245.221 327.255C232.273 329.664 224.495 340.596 218.597 350.974C217.177 353.459 215.827 355.991 214.5 358.499C213.442 360.477 212.398 362.441 211.34 364.344C198.469 387.54 184.147 401.363 167.547 406.602C162.14 408.289 157 408.573 152.228 407.4C138.805 404.04 129.953 392.426 123.74 382.685C119.567 376.141 115.877 369.269 112.311 362.626C111.275 360.685 110.247 358.767 109.219 356.889C103.789 346.939 98.2733 337.596 92.9422 328.552C80.1472 306.874 66.9222 284.461 54.5342 253.003C47.5306 235.238 41.6089 216.859 36.9148 198.364C32.205 179.794 22.4094 166.907 11.9615 165.534C5.47934 164.698 -0.510406 168.448 -4.82182 176.165C-7.4454 180.867 -10.1761 185.624 -12.9834 190.517C-17.0262 197.567 -21.2072 204.846 -25.5028 212.701C-42.8076 244.351 -63.1735 288.534 -84.7284 335.31L-92.2076 351.526C-94.5704 356.642 -96.9402 361.736 -99.3178 366.829C-116.539 403.65 -132.54 423.14 -148.242 426.423C-149.991 426.792 -151.709 426.96 -153.397 426.96Z" fill="white"/>
<path d="M-147.436 435.229C-162.195 435.229 -174.982 422.181 -187.386 409.524C-203.157 393.431 -229.012 366.003 -246.302 378.552L-247.561 376.819C-228.76 363.165 -201.561 391.997 -185.852 408.021C-172.881 421.26 -159.48 435.007 -144.315 432.866C-128.374 430.68 -111.622 410.376 -94.5314 372.513C-92.13 367.197 -89.7455 361.843 -87.39 356.474C-75.0939 328.361 -63.6258 300.446 -52.5261 273.453C-42.2402 248.415 -32.5212 224.767 -23.5384 204.439C-18.1076 192.143 -12.8298 180.721 -7.72145 169.675L-3.40263 160.309C1.38377 149.915 8.81595 144.393 17.0013 145.275C28.7913 146.494 39.4081 160.448 44.0636 180.82C48.4209 199.913 53.9515 219.427 60.4949 238.819C72.4686 274.351 84.8487 300.745 97.9586 328.682C102.491 338.34 107.17 348.32 111.812 358.659L113.538 362.526C117.312 370.987 121.209 379.747 125.78 387.832C134.501 403.288 143.101 411.311 153.656 413.835C158.305 414.932 163.313 414.503 168.522 412.562C184.884 406.425 199.351 389.826 211.532 363.239C212.544 361.03 213.541 358.759 214.546 356.465C215.857 353.474 217.185 350.452 218.573 347.491C224.564 334.773 232.595 321.334 246.756 318.082C253.606 316.478 261.046 318.58 268.257 324.088C283.737 335.878 313.47 355.601 322.828 371.724C323.863 373.504 324.876 375.253 325.881 376.956L324.024 378.045C323.027 376.342 322.007 374.586 320.971 372.806C311.712 356.859 282.088 337.328 266.953 325.79C260.265 320.69 253.453 318.756 247.232 320.168C233.976 323.221 226.29 336.153 220.522 348.411C219.134 351.349 217.814 354.356 216.51 357.332C215.498 359.634 214.5 361.912 213.48 364.129C200.885 391.636 186.425 408.135 169.273 414.572C163.674 416.673 158.25 417.149 153.157 415.922C138.82 412.493 129.999 399.675 123.908 388.89C119.29 380.713 115.364 371.907 111.574 363.4L109.848 359.534C105.222 349.216 100.544 339.244 96.0175 329.595C82.8769 301.597 70.4741 275.148 58.4545 239.51C51.8879 220.049 46.342 200.466 41.962 181.296C37.5207 161.836 27.6412 148.535 16.7791 147.407C9.54584 146.686 2.92593 151.703 -1.45409 161.214L-5.77289 170.573C-10.8739 181.612 -16.1516 193.025 -21.5746 205.313C-30.5426 225.61 -40.2605 249.244 -50.5395 274.266C-61.6392 301.275 -73.1221 329.196 -85.4256 357.332C-87.7811 362.717 -90.1672 368.072 -92.5675 373.403C-109.988 411.98 -127.3 432.705 -144.023 434.999C-145.173 435.152 -146.309 435.229 -147.436 435.229Z" fill="white"/>
<path d="M-141.645 443.636C-158.099 443.636 -172.167 427.551 -185.79 411.971C-202.467 392.909 -227.824 365.903 -246.272 378.345L-247.469 376.566C-227.509 363.081 -200.74 391.622 -184.172 410.56C-170.862 425.772 -157.125 441.481 -141.63 441.481C-141.07 441.481 -140.518 441.466 -139.95 441.42C-123.105 440.178 -105.064 418.63 -87.781 379.11C-85.3649 373.564 -82.9709 367.965 -80.6238 362.311C-63.7941 321.779 -48.7365 279.084 -35.4513 241.413C-29.9514 225.818 -24.7586 211.09 -19.6877 197.19C-13.8045 181.051 -7.57622 164.62 -0.0965424 145.482C4.77432 133.04 12.7358 126.352 21.7957 127.096C34.0227 128.139 44.7461 142.544 49.1187 163.8C53.1837 183.536 58.3385 204.271 64.4523 225.419C76.3268 266.565 88.8071 299.243 102.024 333.838C105.499 342.92 108.989 352.063 112.502 361.452L113.292 363.554C117.143 373.848 121.131 384.502 126.002 394.137C134.456 410.86 143.53 419.834 154.553 422.357C159.532 423.485 164.771 422.879 170.14 420.571C187.069 413.283 201.691 393.969 213.603 363.163C214.577 360.647 215.536 358.062 216.495 355.461C217.783 351.994 219.08 348.489 220.445 345.052C226.267 330.424 234.183 314.937 248.681 311.017C255.853 309.091 263.593 311.216 271.072 317.238C287.725 330.639 315.089 353.939 324.562 373.569L326.059 376.66L324.125 377.595L322.63 374.497C313.256 355.075 286.007 332.011 269.722 318.91C262.811 313.349 255.731 311.347 249.242 313.088C235.657 316.762 228.07 331.713 222.439 345.85C221.082 349.264 219.785 352.753 218.512 356.205C217.545 358.821 216.586 361.414 215.613 363.937C203.477 395.303 188.466 415.016 170.984 422.549C165.192 425.043 159.501 425.664 154.078 424.459C138.705 420.931 129.601 406.019 124.085 395.104C119.161 385.369 115.156 374.662 111.275 364.305L110.493 362.204C106.979 352.823 103.489 343.679 100.022 334.596C86.7899 299.964 74.2863 267.248 62.3818 226.017C56.2606 204.815 51.0905 184.028 47.0171 164.229C42.8434 143.932 32.8716 130.201 21.611 129.235C13.6563 128.606 6.40039 134.758 1.89792 146.264C-5.5733 165.388 -11.7874 181.803 -17.6631 197.927C-22.7329 211.818 -27.9258 226.539 -33.4183 242.125C-46.7194 279.819 -61.7853 322.546 -78.6452 363.14C-80.9922 368.793 -83.3857 374.408 -85.8172 379.969C-103.683 420.846 -121.847 442.24 -139.797 443.567C-140.418 443.613 -141.031 443.636 -141.645 443.636Z" fill="white"/>
<path d="M-135.999 452.136C-154.072 452.136 -169.368 432.966 -184.165 414.419C-201.769 392.35 -226.851 366.106 -246.366 378.402L-247.516 376.593C-226.344 363.26 -199.905 391.245 -182.484 413.084C-168.002 431.225 -153.037 449.98 -135.992 449.98C-135.862 449.98 -135.731 449.98 -135.593 449.98C-112.873 449.589 -93.3887 414.818 -81.0466 385.707C-78.5682 379.87 -76.1525 373.963 -73.8593 368.157C-55.0731 320.605 -39.5321 268.797 -25.8242 223.087C-22.4258 211.75 -19.0971 200.658 -15.8148 189.926C-9.03343 167.757 -2.80513 148.366 3.21681 130.647C8.09558 116.303 16.7401 108.179 26.6047 108.877C39.2545 109.79 50.0771 124.664 54.1817 146.763C58.0244 167.512 62.6725 188.853 68.3947 212.003C80.7521 261.993 94.0463 303.868 108.114 348.197L113.2 364.229C117.074 376.487 121.078 389.167 126.217 400.435C134.54 418.645 143.829 428.318 155.459 430.88C160.705 432.023 166.213 431.256 171.766 428.587C189.37 420.102 204.144 398.057 215.681 363.078C216.67 360.118 217.637 357.08 218.603 354.02C219.816 350.215 221.028 346.372 222.316 342.605C227.977 326.06 235.772 308.532 250.622 303.953C258.117 301.659 266.17 303.875 273.879 310.388C291.414 325.192 315.961 352.064 325.389 375.076L325.972 376.481L323.978 377.294L323.403 375.89C314.067 353.108 289.62 326.497 272.499 312.029C267.512 307.834 259.781 303.392 251.25 306.008C237.321 310.304 229.841 327.271 224.357 343.295C223.068 347.054 221.856 350.881 220.652 354.671C219.677 357.739 218.711 360.785 217.721 363.753C206.001 399.307 190.851 421.775 172.703 430.519C166.711 433.403 160.751 434.209 154.998 432.982C142.648 430.259 132.883 420.202 124.269 401.324C119.068 389.941 115.041 377.201 111.144 364.873L106.066 348.849C91.9827 304.481 78.689 262.575 66.3084 212.524C60.5789 189.328 55.9228 167.949 52.0642 147.161C48.1529 126.044 38.096 111.861 26.4438 111.018C26.1139 110.994 25.7761 110.979 25.4389 110.979C17.1084 110.979 9.61401 118.496 5.2572 131.337C-0.764755 149.041 -6.98566 168.41 -13.7586 190.556C-17.0419 201.287 -20.3712 212.371 -23.769 223.709C-37.4917 269.456 -53.0401 321.304 -71.8649 368.938C-74.1581 374.769 -76.5827 380.691 -79.0674 386.551C-91.6629 416.244 -111.684 451.721 -135.562 452.128C-135.709 452.128 -135.854 452.136 -135.999 452.136Z" fill="white"/>
<path d="M-130.453 460.711C-130.737 460.711 -131.021 460.704 -131.313 460.696C-150.582 460.044 -166.814 438.098 -182.508 416.873C-201.048 391.798 -225.523 365.712 -246.203 377.931L-247.292 376.075C-224.985 362.92 -199.076 390.862 -180.781 415.592C-165.387 436.41 -149.478 457.934 -131.236 458.548C-112.466 459.185 -92.1611 435.651 -74.2963 392.304C-71.8179 386.274 -69.3943 380.115 -67.0932 374.001C-47.6557 322.346 -33.3656 266.373 -19.5425 212.233C-16.9881 202.238 -14.4643 192.358 -11.9483 182.654C-5.02917 156.006 0.846573 134.766 6.5376 115.796C11.3092 99.9099 20.1542 90.582 30.3483 90.582C30.7093 90.582 31.0624 90.5899 31.4149 90.6131C44.4854 91.4407 55.4088 106.798 59.2362 129.741C62.7111 150.575 66.8768 172.452 72.3462 198.594C85.5317 260.558 100.091 315.765 113.875 367.005C117.834 381.718 121.516 394.866 126.432 406.725C134.618 426.431 144.129 436.809 156.364 439.402C161.925 440.583 167.67 439.632 173.4 436.594C191.588 426.967 206.515 402.199 217.767 362.978C218.734 359.657 219.67 356.251 220.614 352.822C221.78 348.596 222.953 344.338 224.196 340.15C230.018 320.743 237.482 302.065 252.555 296.895C260.256 294.233 268.84 296.603 276.694 303.545C294.897 319.607 316.66 350.185 325.965 376.465L323.97 377.271C314.727 351.152 293.064 320.85 275.267 305.156C270.136 300.63 262.174 295.897 253.245 298.92C239.1 303.783 231.913 321.909 226.251 340.764C225.016 344.929 223.851 349.179 222.685 353.397C221.742 356.827 220.798 360.24 219.839 363.577C208.417 403.372 193.13 428.578 174.413 438.497C168.323 441.734 161.925 442.792 155.919 441.504C142.924 438.75 132.929 427.964 124.453 407.553C119.483 395.571 115.785 382.354 111.804 367.557C98.0121 316.294 83.4454 261.057 70.2441 199.039C64.7668 172.859 60.5937 150.959 57.1193 130.094C53.4602 108.178 43.3126 93.5196 31.2846 92.7606C21.5735 92.1157 13.2193 100.991 8.59381 116.409C2.91019 135.357 -2.95819 156.574 -9.86206 183.192C-12.3854 192.894 -14.9018 202.767 -17.4562 212.769C-31.2941 266.956 -45.6 322.998 -65.0835 374.753C-67.392 380.889 -69.8234 387.072 -72.3092 393.117C-85.0656 424.061 -105.447 460.703 -130.453 460.711Z" fill="white"/>
<path d="M-124.992 469.333C-125.683 469.333 -126.373 469.311 -127.064 469.257C-147.337 467.646 -164.366 443.077 -180.843 419.328C-200.311 391.245 -224.489 366.055 -246.297 378.113L-247.34 376.242C-223.86 363.193 -198.233 390.477 -179.079 418.1C-162.894 441.442 -146.149 465.582 -126.895 467.109C-99.7865 469.318 -78.1086 425.295 -67.5614 398.892C-65.13 392.863 -62.698 386.459 -60.3277 379.839C-40.9361 326.083 -27.758 265.568 -15.009 207.047C-12.6921 196.408 -10.3915 185.837 -8.06715 175.375C-3.45755 154.625 2.7491 127.417 9.86673 100.945C14.7154 82.9039 24.15 72.2955 35.2344 72.2955C35.5642 72.2955 35.902 72.3024 36.2318 72.3256C49.7092 73.0925 60.7165 88.9485 64.2912 112.712C67.6816 135.303 71.6088 159.005 76.296 185.178C87.0273 244.749 99.5462 305.125 114.55 369.76C117.711 383.597 121.507 399.491 126.647 413.015C134.716 434.217 144.443 445.309 157.268 447.932C163.075 449.106 169.204 447.962 175.041 444.618C193.812 433.825 208.892 406.326 219.862 362.879C220.751 359.366 221.619 355.776 222.493 352.163C223.659 347.338 224.833 342.467 226.075 337.688C231.705 316.271 239.039 295.66 254.495 289.838C262.519 286.808 271.402 289.247 279.509 296.696C298.257 313.931 317.02 348.26 326.018 377.278L323.962 377.908C315.048 349.158 296.378 315.12 278.052 298.276C270.588 291.41 262.511 289.101 255.247 291.847C240.703 297.324 233.631 317.376 228.154 338.233C226.912 342.997 225.745 347.851 224.579 352.669C223.705 356.29 222.838 359.886 221.948 363.4C210.825 407.438 195.408 435.39 176.115 446.475C169.81 450.079 163.159 451.315 156.839 450.033C143.223 447.257 132.99 435.736 124.637 413.782C119.451 400.128 115.631 384.15 112.456 370.242C97.444 305.578 84.9257 245.164 74.1786 185.562C69.4914 159.366 65.5642 135.64 62.1663 113.035C59.3665 94.4173 50.2301 75.2717 36.1089 74.4737C35.825 74.4504 35.5336 74.4431 35.2418 74.4431C25.186 74.4431 16.5178 84.4687 11.9383 101.497C4.82698 127.931 -1.36281 155.109 -5.96503 175.835C-8.28935 186.298 -10.5989 196.868 -12.9074 207.507C-25.6712 266.089 -38.8656 326.673 -58.3031 380.567C-60.6808 387.21 -63.1281 393.646 -65.567 399.691C-76.0681 425.979 -97.554 469.333 -124.992 469.333Z" fill="white"/>
<path d="M-119.538 478.009C-120.62 478.009 -121.709 477.94 -122.814 477.81C-144.07 475.232 -161.911 448.062 -179.163 421.783C-199.575 390.701 -223.361 366.033 -246.258 378.03L-247.255 376.128C-222.609 363.249 -198.332 388.668 -177.368 420.601C-160.385 446.475 -142.827 473.223 -122.553 475.678C-110.38 477.189 -86.0474 470.001 -60.8106 405.49C-37.3615 345.52 -23.8298 273.023 -10.7435 202.921C-3.46443 163.93 4.06064 123.604 13.1891 86.0795C18.1597 65.6598 28.7295 53.4713 41.0568 54.008C54.9257 54.7364 66.0334 71.0911 69.3468 95.6761C81.9422 189.113 97.3823 282.251 115.233 372.528C123.41 413.905 132.853 451.453 158.174 456.454C164.265 457.643 170.662 456.332 176.683 452.627C196.06 440.675 211.294 410.453 221.948 362.771C222.807 358.959 223.636 355.055 224.472 351.127C230.816 321.341 237.382 290.544 256.436 282.773C264.782 279.375 273.971 281.883 282.317 289.853C301.479 308.125 317.172 345.039 325.901 376.796L323.831 377.364C315.178 345.883 299.568 309.267 280.829 291.402C273.12 284.062 264.751 281.715 257.249 284.767C239.246 292.108 232.802 322.339 226.574 351.58C225.738 355.508 224.901 359.419 224.05 363.247C213.257 411.504 197.702 442.194 177.803 454.452C171.322 458.448 164.38 459.899 157.76 458.556C131.127 453.309 121.454 415.062 113.131 372.943C95.2659 282.628 79.8173 189.443 67.2145 95.9669C63.6161 69.227 51.4276 56.7002 40.9423 56.1555C29.8727 55.565 19.9847 67.2246 15.2748 86.5862C6.16171 124.058 -1.36281 164.352 -8.63454 203.319C-21.7361 273.522 -35.2831 346.11 -58.8167 406.272C-69.4636 433.503 -91.218 478.001 -119.538 478.009Z" fill="white"/>
<path d="M325.935 378.785L323.972 377.926C372.483 409.556 389.19 330.378 417.158 297.953C448.193 261.97 484.3 254 511.4 277.227C523.873 287.904 534.757 304.957 545.289 321.448C559.573 343.817 574.339 366.952 592.503 372.628C611.55 378.588 629.437 364.62 648.392 349.839C663.296 338.21 678.707 326.19 694.854 324.716C717.69 322.615 738.831 341.5 759.288 359.749C763.929 363.891 768.724 368.164 773.434 372.091C786.305 382.845 805.474 395.18 823.707 392.856C834.07 391.544 888.496 387.982 895.967 377.573L897.716 378.831C889.884 389.738 834.952 393.6 823.984 394.988C804.998 397.458 785.262 384.771 772.052 373.741C767.32 369.798 762.51 365.502 757.861 361.352C737.749 343.418 717.008 324.832 695.054 326.849C679.528 328.268 664.37 340.096 649.712 351.526C631.156 365.993 612.01 380.958 591.858 374.684C572.95 368.77 557.969 345.298 543.479 322.607C533.032 306.245 522.231 289.331 510.004 278.853C483.494 256.171 449.413 263.85 418.784 299.35C391.023 331.536 370.108 410.347 325.935 378.785Z" fill="white"/>
<path d="M326.098 378.104L324.196 377.107C334.659 357.202 367.121 386.765 377.883 371.401C381.296 366.53 384.779 361.559 388.376 356.266C392.381 350.383 396.469 344.047 400.427 337.926C405.789 329.626 411.327 321.042 416.966 313.072C419.105 310.043 421.445 306.921 423.9 303.806C454.183 265.483 488.311 252.78 515.159 269.817C524.41 275.686 532.594 284.998 540.503 294.011C549.232 303.96 560.179 318.495 570.526 333.883C579.056 346.563 587.824 355.093 596.584 359.227C614.656 367.78 631.731 357.693 649.804 347.015C658.487 341.891 667.462 336.591 676.567 333.531C683.118 331.321 689.231 330.493 695.237 330.969C702.302 331.537 709.321 333.853 717.69 337.159L720.021 338.072C722.169 338.908 724.31 339.743 726.396 340.641C738.078 345.635 748.963 352.73 759.48 359.588C761.773 361.077 764.044 362.556 766.299 364.006C769.268 365.901 772.229 367.735 775.19 369.506C784.234 374.907 792.909 378.911 801.7 381.749C806.156 383.184 810.521 384.572 814.839 385.653C830.826 389.696 886.404 388.091 896.307 376.984L897.918 378.41C887.417 390.177 831.109 391.974 814.318 387.739C809.93 386.635 805.536 385.239 801.041 383.789C792.088 380.905 783.275 376.832 774.084 371.347C771.109 369.576 768.133 367.727 765.149 365.816C762.878 364.367 760.6 362.879 758.306 361.391C747.866 354.579 737.066 347.537 725.553 342.62C723.481 341.731 721.363 340.902 719.239 340.074L716.9 339.153C708.715 335.924 701.865 333.661 695.068 333.116C689.339 332.64 683.524 333.454 677.257 335.571C668.359 338.562 659.484 343.801 650.9 348.872C633.135 359.358 614.778 370.19 595.663 361.176C586.55 356.873 577.492 348.089 568.747 335.08C558.437 319.769 547.56 305.31 538.892 295.421C531.075 286.532 522.998 277.335 514.008 271.628C488.172 255.243 455.112 267.754 425.587 305.141C423.155 308.225 420.84 311.316 418.715 314.315C413.107 322.247 407.576 330.807 402.23 339.091C398.272 345.228 394.168 351.572 390.156 357.478C386.551 362.771 383.061 367.758 379.639 372.636C368.923 387.939 336.492 358.321 326.098 378.104Z" fill="white"/>
<path d="M324.142 377.804L326.142 378.268C336.726 391.216 364.398 392.84 374.185 383.697C380.122 378.144 386.259 372.406 392.749 364.743C400.764 355.254 408.696 342.927 416.367 330.999C418.806 327.202 421.245 323.405 423.693 319.692C425.84 316.425 428.18 313.05 430.65 309.667C460.198 269.089 492.33 251.868 518.871 262.407C526.105 265.284 532.495 270.278 539.267 275.563C540.717 276.698 542.182 277.841 543.679 278.984C552.323 285.581 565.264 299.005 575.619 316.9C583.466 330.447 591.889 340.189 600.641 345.85C617.809 356.98 634.132 350.682 651.407 344.024C659.844 340.772 668.574 337.404 677.434 336.215C683.548 335.386 689.652 335.748 695.621 337.259C700.553 338.509 705.477 340.495 710.686 342.59C713.256 343.626 715.879 344.676 718.579 345.681C721.042 346.572 723.558 347.307 725.982 348.013L727.953 348.596C738.37 351.672 747.813 355.531 756.941 359.259C760.776 360.823 764.527 362.357 768.209 363.769C771.109 364.889 773.993 365.901 776.877 366.914C785.353 369.875 794.09 372.406 803.587 374.653C808.465 375.804 813.589 377.476 817.701 378.818C834.608 384.311 886.282 385.924 895.902 377.823L897.282 379.464C887.173 387.995 834.484 386.551 817.041 380.859C812.96 379.532 807.882 377.875 803.095 376.74C793.523 374.477 784.708 371.923 776.172 368.938C773.257 367.926 770.357 366.898 767.442 365.778C763.745 364.359 759.978 362.825 756.128 361.253C747.046 357.54 737.656 353.705 727.339 350.652L725.384 350.077C722.921 349.356 720.374 348.611 717.843 347.698C715.112 346.686 712.474 345.627 709.889 344.584C704.741 342.514 699.885 340.557 695.092 339.345C689.392 337.888 683.555 337.566 677.725 338.347C669.11 339.506 660.504 342.82 652.181 346.026C635.159 352.592 617.563 359.358 599.475 347.66C590.431 341.807 581.779 331.82 573.764 317.974C563.561 300.355 550.859 287.161 542.375 280.687C540.871 279.544 539.398 278.393 537.941 277.257C531.299 272.064 525.023 267.163 518.074 264.402C492.921 254.422 460.88 271.812 432.383 310.932C429.937 314.293 427.62 317.637 425.488 320.874C423.048 324.579 420.609 328.368 418.17 332.157C410.468 344.146 402.499 356.535 394.391 366.124C387.817 373.895 381.633 379.67 375.651 385.262C365.978 394.306 329.205 390.819 324.142 377.804Z" fill="white"/>
<path d="M325.756 379.094L323.991 377.851C334.661 362.679 364.451 393.731 374.768 388.33C381.879 384.602 389.235 380.752 397.121 373.219C407.845 362.987 418.001 346.478 427.819 330.523L430.42 326.296C432.536 322.868 434.822 319.339 437.4 315.527C465.835 273.376 496.871 251.407 522.507 255.021C528.506 255.887 533.799 258.273 539.398 260.796C541.768 261.863 544.223 262.967 546.747 263.956C556.534 267.761 570.825 280.357 580.705 299.902C587.846 314.039 596.139 325.307 604.691 332.487C621.03 346.195 636.686 343.633 653.232 340.932C661.394 339.606 669.824 338.241 678.346 338.93C684.068 339.406 689.837 340.925 695.974 343.572C698.727 344.76 701.451 346.102 704.334 347.529C709.121 349.892 714.061 352.339 719.469 354.196C722.89 355.362 726.403 355.998 729.51 356.558C734.128 357.386 738.539 358.222 742.781 359.028C752.469 360.861 761.62 362.595 770.05 363.577C772.183 363.815 774.292 363.999 776.425 364.182L778.51 364.367C786.396 365.065 794.972 365.894 805.481 367.566C809.915 368.271 814.709 369.675 820.554 371.976C833.84 377.185 885.026 383.269 896.217 377.071L897.261 378.943C885.279 385.593 833.541 379.379 819.771 373.971C814.072 371.731 809.424 370.366 805.144 369.682C794.696 368.026 786.166 367.205 778.327 366.499L776.24 366.323C774.093 366.139 771.961 365.955 769.805 365.709C761.298 364.72 752.108 362.978 742.382 361.137C738.147 360.332 733.736 359.496 729.127 358.675C725.951 358.1 722.345 357.448 718.779 356.22C713.232 354.326 708.224 351.849 703.384 349.455C700.522 348.044 697.822 346.709 695.129 345.55C689.2 342.988 683.655 341.531 678.162 341.078C669.894 340.373 661.601 341.754 653.577 343.057C637.284 345.719 620.417 348.473 603.311 334.129C594.535 326.772 586.06 315.266 578.788 300.868C569.214 281.929 555.062 269.495 545.965 265.959C543.395 264.954 540.909 263.834 538.516 262.753C533.055 260.29 527.9 257.973 522.2 257.153C497.432 253.478 467.132 275.287 439.18 316.724C436.618 320.521 434.347 324.018 432.245 327.432L429.645 331.651C419.758 347.721 409.532 364.344 398.609 374.769C390.501 382.516 383.007 386.436 375.766 390.233C365.687 395.51 336.12 364.343 325.756 379.094Z" fill="white"/>
<path d="M325.911 378.515L324.223 377.18C335.944 362.421 365.541 393.639 376.173 391.675C384.196 390.187 392.503 388.653 401.501 381.711C414.58 371.616 426.576 351.058 437.155 332.909C439.234 329.35 441.519 325.577 444.15 321.38C471.612 277.664 501.482 250.809 526.105 247.71C534.427 246.66 541.922 247.066 549.731 248.968C560.608 247.112 576.478 261.978 585.783 282.904C592.396 297.785 600.328 310.304 608.719 319.118C624.283 335.456 639.326 336.645 655.258 337.895C663.066 338.509 671.135 339.146 679.244 341.708C684.368 343.334 689.953 346.011 696.311 349.892C697.624 350.697 698.942 351.534 700.285 352.37C706.468 356.267 712.857 360.294 720.367 362.71C724.026 363.884 727.669 364.283 731.067 364.536C747.084 365.748 760.04 365.395 771.845 363.447C773.464 363.179 775.075 362.856 776.685 362.534C777.82 362.312 778.964 362.089 780.122 361.874C786.65 360.685 795.656 359.449 807.377 360.477C812.24 360.914 817.479 362.434 823.4 365.134C840.038 372.72 885.98 380.682 896.082 378.035L896.62 380.121C885.029 383.098 837.031 373.703 822.51 367.083C816.819 364.498 811.802 363.032 807.192 362.618C795.724 361.613 786.903 362.825 780.505 363.991C779.363 364.198 778.235 364.421 777.107 364.643C775.467 364.973 773.839 365.288 772.198 365.563C760.217 367.543 747.077 367.896 730.907 366.684C727.547 366.431 723.589 366.001 719.707 364.75C711.945 362.258 705.432 358.153 699.134 354.187C697.807 353.351 696.496 352.523 695.192 351.726C688.979 347.936 683.555 345.328 678.6 343.764C670.722 341.271 662.775 340.641 655.089 340.035C639.456 338.808 623.293 337.534 607.169 320.605C598.601 311.607 590.532 298.874 583.819 283.778C573.794 261.234 558.668 249.39 549.892 251.124L549.662 251.163L549.431 251.108C541.814 249.214 534.497 248.807 526.381 249.843C502.394 252.865 473.085 279.352 445.976 322.515C443.353 326.696 441.074 330.454 439.011 333.991C428.334 352.309 416.229 373.066 402.821 383.414C393.401 390.67 384.841 392.25 376.556 393.784C365.848 395.764 337.125 364.385 325.911 378.515Z" fill="white"/>
<path d="M325.933 378.602L324.323 377.175C337.194 362.663 366.346 393.539 377.821 394.644C386.689 395.533 395.855 396.43 405.888 390.209C419.864 381.542 432.829 359.496 443.882 339.514C446.183 335.363 448.546 331.276 450.909 327.233C477.572 281.806 506.291 250.188 529.71 240.469C538.785 236.703 545.681 234.8 552.692 234.132C555.821 232.399 559.634 232.223 563.745 233.642C574.023 237.186 584.403 249.551 590.846 265.904C596.991 281.477 604.554 295.253 612.722 305.747C627.559 324.786 642.055 329.749 657.405 335.011C664.823 337.55 672.493 340.181 680.118 344.522C685.28 347.468 690.451 351.334 696.618 356.228L697.309 356.773C704.481 362.48 711.898 368.386 721.264 371.232C724.048 372.076 726.933 372.214 729.725 372.352C730.745 372.406 731.75 372.452 732.74 372.528C749.323 373.856 762.571 368.509 773.671 363.392C775.044 362.756 776.41 362.081 777.782 361.398C779.087 360.747 780.398 360.094 781.748 359.465C787.847 356.612 796.268 353.397 807.782 353.397C808.281 353.397 808.78 353.397 809.279 353.413C814.479 353.536 820.186 355.177 826.238 358.292C829.46 359.957 832.566 361.621 835.551 363.231C846.804 369.283 888.313 377.807 896.537 378.159L896.444 380.307C887.73 379.931 846.013 371.301 834.538 365.127C831.562 363.523 828.47 361.858 825.257 360.209C819.496 357.241 814.103 355.676 809.232 355.561C808.749 355.553 808.265 355.545 807.79 355.545C796.683 355.545 788.552 358.659 782.653 361.413C781.326 362.034 780.03 362.679 778.741 363.323C777.344 364.014 775.964 364.704 774.576 365.341C762.387 370.957 748.856 375.949 732.57 374.676C731.596 374.591 730.615 374.545 729.625 374.499C726.702 374.354 723.68 374.208 720.635 373.288C710.885 370.319 703.299 364.29 695.965 358.46L695.283 357.915C689.192 353.075 684.099 349.263 679.06 346.394C671.604 342.145 664.033 339.552 656.715 337.044C641.741 331.912 626.254 326.612 611.035 307.066C602.736 296.412 595.065 282.45 588.851 266.687C582.722 251.146 572.597 238.965 563.047 235.667C559.449 234.432 556.174 234.562 553.566 236.112L553.121 236.25C546.256 236.879 539.498 238.728 530.539 242.448C507.871 251.852 478.799 283.954 452.765 328.322C450.402 332.35 448.055 336.422 445.769 340.557C434.578 360.777 421.438 383.099 407.024 392.035C396.392 398.64 386.85 397.712 377.607 396.783C366.193 395.656 338.076 364.902 325.933 378.602Z" fill="white"/>
<path d="M325.866 378.682L324.332 377.179C338.385 362.842 367.213 393.293 379.532 397.466C389.228 400.749 399.253 404.147 410.277 398.716C425.25 391.352 439.08 367.995 450.625 346.118C452.934 341.731 455.303 337.389 457.666 333.085C483.778 285.634 511.37 249.252 533.385 233.274C540.772 227.912 548.035 222.811 555.745 219.39C559.112 216.183 563.461 215.063 568.264 216.214C578.971 218.722 589.826 231.547 595.916 248.891C601.631 265.137 608.827 280.18 616.727 292.376C630.85 314.177 644.817 323.006 659.607 332.356C666.588 336.775 673.813 341.339 680.954 347.368C685.096 350.866 689.255 354.993 693.657 359.35L696.902 362.564C704.442 369.959 712.044 376.839 722.162 379.747C725.683 380.766 729.51 381.005 734.22 380.529C749.048 379.003 762.572 373.388 775.566 363.378C776.832 362.403 778.089 361.383 779.355 360.347C780.697 359.258 782.047 358.153 783.444 357.088C789.664 352.316 798.44 346.785 811.181 346.34C811.473 346.333 811.764 346.325 812.048 346.325C817.378 346.325 823.101 348.051 829.069 351.449C835.657 355.208 841.772 359.343 847.157 362.986C854.943 368.255 881.657 376.833 897.123 377.32L896.401 379.345C878.094 376.833 853.861 370.112 845.952 364.766C840.599 361.145 834.523 357.033 828.01 353.321C822.065 349.93 816.443 348.304 811.258 348.488C799.123 348.91 790.715 354.219 784.747 358.79C783.374 359.849 782.032 360.938 780.713 362.012C779.431 363.055 778.158 364.099 776.87 365.08C763.561 375.344 749.677 381.096 734.435 382.662C729.48 383.184 725.376 382.907 721.564 381.818C710.978 378.772 702.832 371.394 695.399 364.099L692.139 360.877C687.775 356.543 683.647 352.454 679.573 349.01C672.54 343.08 665.383 338.555 658.457 334.175C644.119 325.116 629.299 315.742 614.917 293.543C606.931 281.208 599.659 266.012 593.891 249.597C588.039 232.928 577.79 220.648 567.78 218.308C563.645 217.342 559.941 218.285 557.102 221.062L556.78 221.277C549.193 224.621 542.267 229.477 534.643 235.007C512.881 250.816 485.511 286.938 459.553 334.121C457.191 338.417 454.836 342.743 452.527 347.116C440.231 370.419 426.716 393.032 411.228 400.65C399.407 406.464 388.944 402.92 378.842 399.499C366.592 395.364 338.976 365.311 325.866 378.682Z" fill="white"/>
<path d="M405.735 411.074C396.66 411.074 388.322 406.517 380.192 402.084C367.113 394.95 339.86 365.622 325.723 378.754L324.267 377.174C339.524 363.014 368.041 393.017 381.219 400.197C391.728 405.935 402.597 411.879 414.664 407.239C431.332 400.849 446.237 374.745 457.359 352.722C459.699 348.097 462.061 343.503 464.432 338.938C490.443 288.664 516.938 247.534 537.112 226.086C541.484 221.438 545.665 217.479 549.7 213.66C552.952 210.584 556.02 207.676 558.912 204.67C563.43 199.967 569.214 198.165 575.06 199.53C585.714 202.031 595.409 214.127 600.986 231.877C606.287 248.761 613.114 265.054 620.708 278.999C634.162 303.683 648.238 317.068 661.846 330.009C668.367 336.208 675.101 342.62 681.736 350.207C684.383 353.23 686.998 356.466 689.76 359.887C692.145 362.84 694.593 365.87 697.17 368.892C704.273 377.231 712.335 385.346 723.059 388.269C726.863 389.305 731.037 389.396 735.8 388.53C750.904 385.806 764.558 377.576 777.529 363.378C778.679 362.112 779.822 360.793 780.973 359.473C782.354 357.885 783.75 356.275 785.2 354.709C791.282 348.143 799.95 340.449 813.091 339.276C819.104 338.724 825.364 340.542 831.906 344.615C841.411 350.529 875.098 360.735 883.507 365.165C890.629 368.917 894.586 373.403 897.375 376.41L896.163 378.189C895.182 376.766 893.992 375.458 892.626 374.213C889.778 371.617 886.168 369.298 882.094 366.791C874.066 361.85 840.13 352.262 830.771 346.441C824.627 342.613 818.744 340.925 813.282 341.408C800.871 342.528 792.602 349.884 786.78 356.167C785.337 357.716 783.957 359.312 782.592 360.884C781.434 362.219 780.275 363.546 779.109 364.819C765.816 379.386 751.77 387.84 736.183 390.647C731.098 391.567 726.611 391.475 722.491 390.34C711.207 387.264 702.862 378.889 695.528 370.289C692.943 367.251 690.481 364.198 688.088 361.237C685.334 357.832 682.742 354.61 680.126 351.618C673.552 344.108 666.848 337.734 660.366 331.567C646.635 318.511 632.436 305.011 618.821 280.027C611.158 265.959 604.284 249.535 598.931 232.522C593.584 215.501 584.479 203.949 574.568 201.624C569.398 200.397 564.489 201.962 560.461 206.158C557.532 209.203 554.448 212.126 551.18 215.217C547.16 219.021 543.004 222.957 538.677 227.559C518.634 248.868 492.269 289.822 466.334 339.92C463.979 344.484 461.617 349.079 459.277 353.69C447.978 376.057 432.782 402.59 415.431 409.248C412.102 410.53 408.872 411.074 405.735 411.074Z" fill="white"/>
<path d="M412.462 418.868C401.348 418.868 391.36 411.634 381.642 404.592C367.681 394.482 340.897 365.924 325.754 378.827L324.359 377.185C340.804 363.193 368.893 392.695 382.908 402.851C394.245 411.073 405.988 419.543 419.051 415.776C437.477 410.43 453.586 380.997 464.102 359.32L471.19 344.783C499.341 287.123 522.799 244.765 540.902 218.891C545.051 212.961 549.048 207.623 552.914 202.46C556.159 198.126 559.22 194.03 562.142 189.903C566.791 183.329 573.043 180.346 579.654 181.489C590.669 183.383 600.78 196.17 606.049 214.864C610.982 232.353 617.418 249.904 624.674 265.606C637.515 293.397 651.084 311.086 664.216 328.199C670.2 336 676.39 344.07 682.488 353.037C684.191 355.553 685.909 358.169 687.658 360.838C690.749 365.572 693.948 370.465 697.424 375.214C703.959 384.157 712.22 393.707 723.964 396.799C728.076 397.857 732.479 397.772 737.403 396.538C752.936 392.641 766.721 381.788 779.538 363.346C780.62 361.79 781.686 360.186 782.76 358.56C784.141 356.481 785.545 354.379 787.002 352.323C792.94 343.947 801.492 334.09 815.016 332.203C821.214 331.383 828.034 333.262 834.73 337.772C846.681 345.795 880.657 357.888 888.988 367.162C892.141 370.667 895.117 373.981 897.94 376.827L896.421 378.346C893.553 375.455 890.56 372.126 887.392 368.597C879.146 359.422 845.262 347.43 833.534 339.552C827.274 335.349 820.945 333.531 815.308 334.336C802.681 336.1 794.796 345.044 788.751 353.566C787.309 355.607 785.921 357.693 784.548 359.749C783.466 361.383 782.393 363.002 781.303 364.574C768.179 383.459 753.987 394.597 737.925 398.624C732.632 399.944 727.891 400.028 723.419 398.878C711.024 395.617 702.44 385.73 695.69 376.487C692.184 371.692 688.97 366.775 685.856 362.02C684.115 359.358 682.412 356.75 680.709 354.249C674.649 345.328 668.482 337.289 662.514 329.503C649.312 312.305 635.667 294.517 622.726 266.511C615.423 250.702 608.941 233.044 603.978 215.447C598.938 197.559 589.48 185.362 579.286 183.606C573.495 182.593 568.04 185.294 563.891 191.146C560.961 195.296 557.884 199.399 554.632 203.741C550.773 208.896 546.785 214.227 542.665 220.118C524.624 245.907 501.221 288.165 473.123 345.719L466.035 360.255C455.342 382.301 438.896 412.255 419.65 417.84C417.204 418.545 414.809 418.868 412.462 418.868Z" fill="white"/>
<path d="M418.715 426.96C405.72 426.96 394.267 416.866 383.16 407.07C368.279 393.96 342.003 365.645 325.81 378.356L324.491 376.669C342.111 362.846 369.721 392.365 384.579 405.459C396.738 416.175 409.371 427.283 423.424 424.322C438.42 421.192 453.931 402.084 470.845 365.924C473.223 360.831 475.593 355.737 477.955 350.621L485.427 334.413C507.005 287.598 527.378 243.384 544.721 211.673C549.032 203.795 553.213 196.5 557.264 189.451C560.071 184.564 562.794 179.817 565.418 175.121C570.174 166.585 576.893 162.427 584.349 163.401C595.847 164.912 606.103 178.106 611.112 197.842C615.776 216.245 621.675 234.54 628.64 252.221C640.974 283.517 653.57 304.865 666.901 327.463C672.241 336.515 677.763 345.88 683.217 355.86C684.245 357.739 685.273 359.665 686.316 361.606C689.868 368.218 693.534 375.06 697.661 381.534C703.66 390.938 712.174 402.138 724.862 405.314C729.226 406.395 733.998 406.141 739.014 404.546C755.061 399.483 768.984 385.991 781.58 363.301C782.63 361.406 783.666 359.458 784.709 357.494C786.052 354.963 787.417 352.408 788.836 349.915C794.987 339.107 803.127 327.716 816.934 325.139C823.455 323.927 830.588 325.921 837.553 330.923C851.475 340.925 883.595 356.55 892.601 369.169C894.48 371.792 896.291 374.331 898.054 376.709L896.321 377.983C894.557 375.597 892.739 373.058 890.852 370.419C881.938 357.931 849.933 342.467 836.295 332.671C829.828 328.023 823.262 326.136 817.332 327.255C804.384 329.664 796.606 340.596 790.708 350.974C789.288 353.459 787.938 355.991 786.611 358.499C785.553 360.477 784.509 362.441 783.451 364.344C770.58 387.54 756.258 401.363 739.658 406.602C734.251 408.289 729.111 408.573 724.34 407.4C710.916 404.04 702.064 392.426 695.851 382.685C691.678 376.141 687.988 369.269 684.422 362.626C683.386 360.685 682.358 358.767 681.33 356.889C675.9 346.939 670.384 337.596 665.053 328.552C652.258 306.874 639.033 284.461 626.645 253.003C619.642 235.238 613.72 216.859 609.026 198.364C604.316 179.794 594.52 166.907 584.073 165.534C577.59 164.698 571.601 168.448 567.289 176.165C564.666 180.867 561.935 185.624 559.128 190.517C555.085 197.567 550.904 204.846 546.608 212.701C529.304 244.351 508.938 288.534 487.383 335.31L479.904 351.526C477.541 356.642 475.171 361.736 472.793 366.829C455.572 403.65 439.571 423.14 423.869 426.423C422.12 426.792 420.402 426.96 418.715 426.96Z" fill="white"/>
<path d="M424.675 435.229C409.916 435.229 397.129 422.181 384.725 409.524C368.954 393.431 343.099 366.003 325.809 378.552L324.551 376.819C343.352 363.165 370.55 391.997 386.259 408.021C399.23 421.26 412.631 435.007 427.797 432.866C443.737 430.68 460.489 410.376 477.58 372.513C479.981 367.197 482.366 361.843 484.721 356.474C497.017 328.361 508.485 300.446 519.585 273.453C529.871 248.415 539.59 224.767 548.573 204.439C554.003 192.143 559.281 180.721 564.39 169.675L568.708 160.309C573.495 149.915 580.927 144.393 589.112 145.275C600.902 146.494 611.519 160.448 616.175 180.82C620.532 199.913 626.063 219.427 632.606 238.819C644.58 274.351 656.96 300.745 670.07 328.682C674.602 338.34 679.282 348.32 683.923 358.659L685.649 362.526C689.423 370.987 693.32 379.747 697.891 387.832C706.613 403.288 715.212 411.311 725.767 413.835C730.416 414.932 735.424 414.503 740.633 412.562C756.995 406.425 771.462 389.826 783.643 363.239C784.655 361.03 785.652 358.759 786.657 356.465C787.968 353.474 789.296 350.452 790.684 347.491C796.675 334.773 804.706 321.334 818.867 318.082C825.717 316.478 833.157 318.58 840.368 324.088C855.848 335.878 885.581 355.601 894.939 371.724C895.974 373.504 896.987 375.253 897.992 376.956L896.135 378.045C895.138 376.342 894.118 374.586 893.082 372.806C883.823 356.859 854.199 337.328 839.064 325.79C832.376 320.69 825.564 318.756 819.343 320.168C806.088 323.221 798.401 336.153 792.633 348.411C791.245 351.349 789.925 354.356 788.621 357.332C787.609 359.634 786.611 361.912 785.591 364.129C772.996 391.636 758.536 408.135 741.384 414.572C735.785 416.673 730.361 417.149 725.268 415.922C710.931 412.493 702.11 399.675 696.02 388.89C691.401 380.713 687.475 371.907 683.685 363.4L681.959 359.534C677.334 349.216 672.655 339.244 668.129 329.595C654.988 301.597 642.585 275.148 630.566 239.51C623.999 220.049 618.453 200.466 614.073 181.296C609.632 161.836 599.752 148.535 588.89 147.407C581.657 146.686 575.037 151.703 570.657 161.214L566.338 170.573C561.237 181.612 555.959 193.025 550.537 205.313C541.569 225.61 531.851 249.244 521.572 274.266C510.472 301.275 498.989 329.196 486.685 357.332C484.33 362.717 481.944 368.072 479.544 373.403C462.123 411.98 444.811 432.705 428.088 434.999C426.938 435.152 425.802 435.229 424.675 435.229Z" fill="white"/>
<path d="M430.466 443.636C414.012 443.636 399.944 427.551 386.321 411.971C369.645 392.909 344.288 365.903 325.84 378.345L324.643 376.566C344.602 363.081 371.371 391.622 387.939 410.56C401.249 425.772 414.986 441.481 430.482 441.481C431.041 441.481 431.593 441.466 432.161 441.42C449.006 440.178 467.048 418.63 484.33 379.11C486.746 373.564 489.14 367.965 491.487 362.311C508.317 321.779 523.375 279.084 536.66 241.413C542.16 225.818 547.353 211.09 552.424 197.19C558.307 181.051 564.535 164.62 572.015 145.482C576.886 133.04 584.847 126.352 593.907 127.096C606.134 128.139 616.857 142.544 621.23 163.8C625.295 183.536 630.45 204.271 636.563 225.419C648.438 266.565 660.918 299.243 674.135 333.838C677.61 342.92 681.101 352.063 684.613 361.452L685.404 363.554C689.254 373.848 693.243 384.502 698.113 394.137C706.567 410.86 715.641 419.834 726.664 422.357C731.643 423.485 736.882 422.879 742.251 420.571C759.18 413.283 773.802 393.969 785.714 363.163C786.688 360.647 787.647 358.062 788.606 355.461C789.895 351.994 791.191 348.489 792.556 345.052C798.379 330.424 806.294 314.937 820.792 311.017C827.964 309.091 835.705 311.216 843.183 317.238C859.836 330.639 887.2 353.939 896.673 373.569L898.17 376.66L896.237 377.595L894.741 374.497C885.367 355.075 858.118 332.011 841.833 318.91C834.922 313.349 827.842 311.347 821.353 313.088C807.768 316.762 800.181 331.713 794.551 345.85C793.194 349.264 791.896 352.753 790.623 356.205C789.656 358.821 788.698 361.414 787.724 363.937C775.589 395.303 760.577 415.016 743.095 422.549C737.304 425.043 731.612 425.664 726.189 424.459C710.816 420.931 701.712 406.019 696.197 395.104C691.272 385.369 687.267 374.662 683.386 364.305L682.604 362.204C679.09 352.823 675.6 343.679 672.133 334.596C658.901 299.964 646.398 267.248 634.493 226.017C628.372 204.815 623.202 184.028 619.128 164.229C614.955 143.932 604.983 130.201 593.722 129.235C585.767 128.606 578.512 134.758 574.009 146.264C566.538 165.388 560.324 181.803 554.448 197.927C549.378 211.818 544.185 226.539 538.693 242.125C525.392 279.819 510.326 322.546 493.466 363.14C491.119 368.793 488.726 374.408 486.294 379.969C468.428 420.846 450.264 442.24 432.315 443.567C431.693 443.613 431.08 443.636 430.466 443.636Z" fill="white"/>
<path d="M436.112 452.136C418.039 452.136 402.744 432.966 387.946 414.419C370.342 392.35 345.26 366.106 325.745 378.402L324.595 376.593C345.767 363.26 372.206 391.245 389.627 413.084C404.109 431.225 419.075 449.98 436.119 449.98C436.249 449.98 436.38 449.98 436.518 449.98C459.238 449.589 478.722 414.818 491.064 385.707C493.543 379.87 495.959 373.963 498.252 368.157C517.038 320.605 532.579 268.797 546.287 223.087C549.685 211.75 553.014 200.658 556.296 189.926C563.078 167.757 569.306 148.366 575.328 130.647C580.207 116.303 588.851 108.179 598.716 108.877C611.366 109.79 622.188 124.664 626.293 146.763C630.135 167.512 634.784 188.853 640.506 212.003C652.863 261.993 666.157 303.868 680.225 348.197L685.311 364.229C689.185 376.487 693.189 389.167 698.328 400.435C706.651 418.645 715.941 428.318 727.57 430.88C732.816 432.023 738.324 431.256 743.877 428.587C761.481 420.102 776.255 398.057 787.792 363.078C788.781 360.118 789.748 357.08 790.714 354.02C791.927 350.215 793.139 346.372 794.427 342.605C800.088 326.06 807.883 308.532 822.733 303.952C830.228 301.659 838.281 303.875 845.99 310.388C863.525 325.192 888.073 352.064 897.5 375.076L898.083 376.481L896.089 377.294L895.514 375.89C886.178 353.108 861.731 326.497 844.61 312.029C839.623 307.834 831.892 303.392 823.361 306.008C809.432 310.304 801.952 327.271 796.468 343.295C795.18 347.054 793.967 350.881 792.763 354.671C791.788 357.739 790.822 360.785 789.833 363.753C778.112 399.307 762.962 421.775 744.814 430.519C738.822 433.403 732.862 434.209 727.109 432.982C714.759 430.259 704.994 420.202 696.38 401.324C691.179 389.941 687.152 377.201 683.255 364.873L678.178 348.849C664.094 304.481 650.8 262.575 638.419 212.524C632.69 189.328 628.034 167.949 624.175 147.161C620.264 126.044 610.207 111.861 598.555 111.018C598.225 110.994 597.887 110.979 597.55 110.979C589.22 110.979 581.725 118.496 577.368 131.337C571.346 149.041 565.125 168.41 558.352 190.556C555.069 201.287 551.74 212.371 548.342 223.709C534.619 269.456 519.071 321.304 500.246 368.938C497.953 374.769 495.528 380.691 493.044 386.551C480.448 416.244 460.427 451.721 436.549 452.128C436.403 452.128 436.257 452.136 436.112 452.136Z" fill="white"/>
<path d="M441.658 460.711C441.374 460.711 441.09 460.704 440.798 460.696C421.529 460.044 405.298 438.098 389.604 416.873C371.063 391.798 346.589 365.712 325.908 377.931L324.819 376.075C347.126 362.92 373.035 390.862 391.33 415.592C406.725 436.41 422.633 457.934 440.875 458.548C459.645 459.185 479.95 435.651 497.815 392.304C500.293 386.274 502.717 380.115 505.018 374.001C524.456 322.346 538.746 266.373 552.569 212.233C555.123 202.238 557.647 192.358 560.163 182.654C567.082 156.006 572.958 134.766 578.649 115.796C583.42 99.9099 592.265 90.582 602.459 90.582C602.82 90.582 603.174 90.5899 603.526 90.6131C616.597 91.4407 627.52 106.798 631.347 129.741C634.822 150.575 638.988 172.452 644.457 198.594C657.643 260.558 672.202 315.765 685.987 367.005C689.945 381.718 693.627 394.866 698.544 406.725C706.729 426.431 716.24 436.809 728.475 439.402C734.037 440.583 739.781 439.632 745.511 436.594C763.699 426.967 778.626 402.199 789.879 362.978C790.845 359.657 791.781 356.251 792.725 352.822C793.891 348.596 795.065 344.338 796.308 340.15C802.129 320.743 809.593 302.065 824.666 296.895C832.367 294.233 840.951 296.603 848.806 303.545C867.009 319.607 888.772 350.185 898.076 376.465L896.081 377.271C886.838 351.152 865.175 320.85 847.378 305.156C842.247 300.63 834.285 295.897 825.356 298.92C811.211 303.783 804.024 321.909 798.363 340.764C797.128 344.929 795.962 349.179 794.797 353.397C793.853 356.827 792.909 360.24 791.95 363.577C780.529 403.372 765.241 428.578 746.524 438.497C740.434 441.734 734.036 442.792 728.03 441.504C715.036 438.75 705.04 427.964 696.564 407.553C691.594 395.571 687.897 382.354 683.915 367.557C670.123 316.294 655.557 261.057 642.355 199.039C636.878 172.859 632.705 150.959 629.23 130.094C625.571 108.178 615.424 93.5196 603.396 92.7606C593.685 92.1157 585.33 100.991 580.705 116.409C575.021 135.357 569.153 156.574 562.249 183.192C559.726 192.894 557.209 202.767 554.655 212.769C540.817 266.956 526.511 322.998 507.028 374.753C504.719 380.889 502.288 387.072 499.802 393.117C487.046 424.061 466.664 460.703 441.658 460.711Z" fill="white"/>
<path d="M447.119 469.333C446.428 469.333 445.738 469.311 445.048 469.257C424.774 467.646 407.745 443.077 391.268 419.328C371.8 391.245 347.622 366.055 325.815 378.113L324.771 376.242C348.252 363.193 373.878 390.477 393.032 418.1C409.217 441.442 425.963 465.582 445.216 467.109C472.325 469.318 494.003 425.295 504.55 398.892C506.981 392.863 509.413 386.459 511.783 379.839C531.175 326.083 544.353 265.568 557.102 207.047C559.419 196.408 561.72 185.837 564.044 175.375C568.654 154.625 574.86 127.417 581.978 100.945C586.827 82.9039 596.261 72.2955 607.346 72.2955C607.675 72.2955 608.013 72.3024 608.343 72.3256C621.82 73.0925 632.828 88.9485 636.402 112.712C639.793 135.303 643.72 159.005 648.407 185.178C659.138 244.749 671.657 305.125 686.662 369.76C689.822 383.597 693.618 399.491 698.758 413.015C706.827 434.217 716.554 445.309 729.379 447.932C735.186 449.106 741.315 447.962 747.152 444.618C765.923 433.825 781.003 406.326 791.973 362.879C792.862 359.366 793.73 355.776 794.604 352.163C795.77 347.338 796.944 342.467 798.186 337.688C803.816 316.271 811.15 295.66 826.606 289.838C834.63 286.808 843.513 289.247 851.621 296.696C870.368 313.931 889.131 348.26 898.129 377.278L896.073 377.908C887.16 349.158 868.489 315.12 850.163 298.276C842.7 291.41 834.622 289.101 827.358 291.847C812.814 297.324 805.742 317.376 800.265 338.233C799.023 342.997 797.856 347.851 796.691 352.669C795.816 356.29 794.949 359.886 794.06 363.4C782.937 407.438 767.519 435.39 748.226 446.475C741.922 450.079 735.27 451.315 728.95 450.033C715.334 447.257 705.101 435.736 696.748 413.782C691.562 400.128 687.742 384.15 684.567 370.242C669.555 305.578 657.037 245.164 646.29 185.562C641.603 159.366 637.675 135.64 634.278 113.035C631.478 94.4173 622.341 75.2717 608.22 74.4737C607.936 74.4504 607.645 74.4431 607.353 74.4431C597.297 74.4431 588.629 84.4687 584.049 101.497C576.938 127.931 570.748 155.109 566.146 175.835C563.822 186.298 561.512 196.868 559.204 207.507C546.44 266.089 533.246 326.673 513.808 380.567C511.43 387.21 508.983 393.646 506.544 399.691C496.043 425.979 474.557 469.333 447.119 469.333Z" fill="white"/>
<path d="M452.573 478.009C451.491 478.009 450.402 477.94 449.297 477.81C428.042 475.232 410.2 448.062 392.949 421.783C372.536 390.701 348.75 366.033 325.853 378.03L324.856 376.128C349.502 363.249 373.779 388.668 394.743 420.601C411.726 446.475 429.284 473.223 449.558 475.678C461.732 477.189 486.064 470.001 511.301 405.49C534.75 345.52 548.281 273.023 561.368 202.921C568.647 163.93 576.172 123.604 585.3 86.0795C590.271 65.6598 600.841 53.4713 613.168 54.008C627.037 54.7364 638.145 71.0911 641.458 95.6761C654.053 189.113 669.493 282.251 687.344 372.528C695.521 413.905 704.964 451.453 730.286 456.454C736.376 457.643 742.773 456.332 748.794 452.627C768.171 440.675 783.405 410.453 794.06 362.771C794.918 358.959 795.747 355.055 796.583 351.127C802.927 321.341 809.493 290.544 828.547 282.773C836.893 279.375 846.083 281.883 854.428 289.853C873.59 308.125 889.283 345.039 898.012 376.796L895.942 377.364C887.289 345.883 871.679 309.267 852.94 291.402C845.231 284.062 836.862 281.715 829.361 284.767C811.357 292.108 804.913 322.339 798.685 351.58C797.849 355.508 797.013 359.419 796.161 363.247C785.368 411.504 769.813 442.194 749.914 454.452C743.433 458.448 736.491 459.899 729.871 458.556C703.238 453.309 693.565 415.062 685.242 372.943C667.377 282.628 651.929 189.443 639.326 95.9669C635.727 69.227 623.539 56.7002 613.053 56.1555C601.984 55.565 592.096 67.2246 587.386 86.5862C578.273 124.058 570.748 164.352 563.477 203.319C550.375 273.522 536.828 346.11 513.295 406.272C502.648 433.503 480.893 478.001 452.573 478.009Z" fill="white"/>
</g>
</g>
<defs>
<clipPath id="clip0_450_732">
<rect width="570" height="570" fill="white" transform="translate(-60 -19)"/>
</clipPath>
</defs>
</svg>
